<?xml version="1.0" encoding="UTF-8" standalone="no"?>
<!DOCTYPE svg PUBLIC "-//W3C//DTD SVG 1.1//EN"
 "http://www.w3.org/Graphics/SVG/1.1/DTD/svg11.dtd">
<!-- Generated by graphviz version 2.43.0 (0)
 -->
<!-- Title: array_adaptors.hpp Pages: 1 -->
<svg width="534pt" height="104pt"
 viewBox="0.00 0.00 534.00 104.00" xmlns="http://www.w3.org/2000/svg" xmlns:xlink="http://www.w3.org/1999/xlink">
<g id="graph0" class="graph" transform="scale(1 1) rotate(0) translate(4 100)">
<title>array_adaptors.hpp</title>
<!-- Node1 -->
<g id="Node000001" class="node">
<title>Node1</title>
<g id="a_Node000001"><a xlink:title=" ">
<polygon fill="#999999" stroke="#666666" points="292,-96 181,-96 181,-77 292,-77 292,-96"/>
<text text-anchor="middle" x="236.5" y="-84" font-family="Helvetica,sans-Serif" font-size="10.00">array_adaptors.hpp</text>
</a>
</g>
</g>
<!-- Node2 -->
<g id="Node000002" class="node">
<title>Node2</title>
<g id="a_Node000002"><a xlink:title=" ">
<polygon fill="#e0e0e0" stroke="#999999" points="77,-30 0,-30 0,-11 77,-11 77,-30"/>
<text text-anchor="middle" x="38.5" y="-18" font-family="Helvetica,sans-Serif" font-size="10.00">Eigen/Dense</text>
</a>
</g>
</g>
<!-- Node1&#45;&gt;Node2 -->
<g id="edge1_Node000001_Node000002" class="edge">
<title>Node1&#45;&gt;Node2</title>
<g id="a_edge1_Node000001_Node000002"><a xlink:title=" ">
<path fill="none" stroke="#63b8ff" d="M204.32,-76.93C173.74,-68.56 126.62,-55.06 86.5,-41 80.37,-38.85 73.88,-36.37 67.73,-33.9"/>
<polygon fill="#63b8ff" stroke="#63b8ff" points="69,-30.64 58.42,-30.1 66.35,-37.12 69,-30.64"/>
</a>
</g>
</g>
<!-- Node3 -->
<g id="Node000003" class="node">
<title>Node3</title>
<g id="a_Node000003"><a target="_parent" xlink:href="../../../cieutils/docs/html/basic__concepts_8hpp.html" xlink:title=" ">
<polygon fill="white" stroke="#666666" points="227.5,-41 95.5,-41 95.5,0 227.5,0 227.5,-41"/>
<text text-anchor="start" x="103.5" y="-29" font-family="Helvetica,sans-Serif" font-size="10.00">packages/compile_time</text>
<text text-anchor="start" x="103.5" y="-18" font-family="Helvetica,sans-Serif" font-size="10.00">/packages/concepts/inc</text>
<text text-anchor="middle" x="161.5" y="-7" font-family="Helvetica,sans-Serif" font-size="10.00">/basic_concepts.hpp</text>
</a>
</g>
</g>
<!-- Node1&#45;&gt;Node3 -->
<g id="edge2_Node000001_Node000003" class="edge">
<title>Node1&#45;&gt;Node3</title>
<g id="a_edge2_Node000001_Node000003"><a xlink:title=" ">
<path fill="none" stroke="#63b8ff" d="M226.39,-76.87C217.59,-69.37 204.39,-58.1 192.18,-47.68"/>
<polygon fill="#63b8ff" stroke="#63b8ff" points="194.24,-44.84 184.36,-41.01 189.7,-50.16 194.24,-44.84"/>
</a>
</g>
</g>
<!-- Node4 -->
<g id="Node000004" class="node">
<title>Node4</title>
<g id="a_Node000004"><a target="_parent" xlink:href="../../../cieutils/docs/html/StaticArray_8hpp.html" xlink:title=" ">
<polygon fill="white" stroke="#666666" points="377,-35.5 246,-35.5 246,-5.5 377,-5.5 377,-35.5"/>
<text text-anchor="start" x="254" y="-23.5" font-family="Helvetica,sans-Serif" font-size="10.00">packages/stl_extension</text>
<text text-anchor="middle" x="311.5" y="-12.5" font-family="Helvetica,sans-Serif" font-size="10.00">/inc/StaticArray.hpp</text>
</a>
</g>
</g>
<!-- Node1&#45;&gt;Node4 -->
<g id="edge3_Node000001_Node000004" class="edge">
<title>Node1&#45;&gt;Node4</title>
<g id="a_edge3_Node000001_Node000004"><a xlink:title=" ">
<path fill="none" stroke="#63b8ff" d="M246.61,-76.87C256.98,-68.03 273.47,-53.95 287.24,-42.21"/>
<polygon fill="#63b8ff" stroke="#63b8ff" points="289.62,-44.77 294.96,-35.62 285.08,-39.44 289.62,-44.77"/>
</a>
</g>
</g>
<!-- Node5 -->
<g id="Node000005" class="node">
<title>Node5</title>
<g id="a_Node000005"><a target="_parent" xlink:href="../../../cieutils/docs/html/DynamicArray_8hpp.html" xlink:title=" ">
<polygon fill="white" stroke="#666666" points="526,-35.5 395,-35.5 395,-5.5 526,-5.5 526,-35.5"/>
<text text-anchor="start" x="403" y="-23.5" font-family="Helvetica,sans-Serif" font-size="10.00">packages/stl_extension</text>
<text text-anchor="middle" x="460.5" y="-12.5" font-family="Helvetica,sans-Serif" font-size="10.00">/inc/DynamicArray.hpp</text>
</a>
</g>
</g>
<!-- Node1&#45;&gt;Node5 -->
<g id="edge4_Node000001_Node000005" class="edge">
<title>Node1&#45;&gt;Node5</title>
<g id="a_edge4_Node000001_Node000005"><a xlink:title=" ">
<path fill="none" stroke="#63b8ff" d="M266.71,-76.87C301.05,-67.06 357.96,-50.8 401.25,-38.43"/>
<polygon fill="#63b8ff" stroke="#63b8ff" points="402.44,-41.73 411.1,-35.62 400.52,-35 402.44,-41.73"/>
</a>
</g>
</g>
</g>
</svg>
