<?xml version="1.0" encoding="UTF-8" standalone="no"?>
<!DOCTYPE svg PUBLIC "-//W3C//DTD SVG 1.1//EN"
 "http://www.w3.org/Graphics/SVG/1.1/DTD/svg11.dtd">
<!-- Generated by graphviz version 2.43.0 (0)
 -->
<!-- Title: cie::linalg::EigenMatrix&lt; TMatrix &gt; Pages: 1 -->
<svg width="188pt" height="355pt"
 viewBox="0.00 0.00 187.50 355.00" xmlns="http://www.w3.org/2000/svg" xmlns:xlink="http://www.w3.org/1999/xlink">

<svg id="main" version="1.1" xmlns="http://www.w3.org/2000/svg" xmlns:xlink="http://www.w3.org/1999/xlink" xml:space="preserve" onload="init(evt)">
<style type="text/css"><![CDATA[
.node, .edge {opacity: 0.7;}
.node.selected, .edge.selected {opacity: 1;}
.edge:hover path { stroke: red; }
.edge:hover polygon { stroke: red; fill: red; }
]]></style>
<script type="application/ecmascript" xlink:href="svg.min.js"/>
<svg id="graph" class="graph">
<g id="graph0" class="graph" transform="scale(1 1) rotate(0) translate(4 351)">
<title>cie::linalg::EigenMatrix&lt; TMatrix &gt;</title>
<!-- Node1 -->
<g id="Node000001" class="node">
<title>Node1</title>
<g id="a_Node000001"><a xlink:title=" ">
<polygon fill="#999999" stroke="transparent" points="148,-240 23,-240 23,0 148,0 148,-240"/>
<text text-anchor="start" x="30" y="-228" font-family="Helvetica,sans-Serif" font-size="10.00">cie::linalg::EigenMatrix</text>
<text text-anchor="start" x="55.5" y="-217" font-family="Helvetica,sans-Serif" font-size="10.00">&lt; TMatrix &gt;</text>
<text text-anchor="start" x="84" y="-202" font-family="Helvetica,sans-Serif" font-size="10.00"> </text>
<text text-anchor="start" x="27.5" y="-187" font-family="Helvetica,sans-Serif" font-size="10.00">+</text>
<text text-anchor="start" x="40.5" y="-187" font-family="Helvetica,sans-Serif" font-size="10.00">EigenMatrix()</text>
<text text-anchor="start" x="27.5" y="-172" font-family="Helvetica,sans-Serif" font-size="10.00">+</text>
<text text-anchor="start" x="40.5" y="-172" font-family="Helvetica,sans-Serif" font-size="10.00">EigenMatrix()</text>
<text text-anchor="start" x="27.5" y="-157" font-family="Helvetica,sans-Serif" font-size="10.00">+</text>
<text text-anchor="start" x="40.5" y="-157" font-family="Helvetica,sans-Serif" font-size="10.00">EigenMatrix()</text>
<text text-anchor="start" x="27.5" y="-142" font-family="Helvetica,sans-Serif" font-size="10.00">+</text>
<text text-anchor="start" x="40.5" y="-142" font-family="Helvetica,sans-Serif" font-size="10.00">EigenMatrix()</text>
<text text-anchor="start" x="27.5" y="-127" font-family="Helvetica,sans-Serif" font-size="10.00">+</text>
<text text-anchor="start" x="40.5" y="-127" font-family="Helvetica,sans-Serif" font-size="10.00">EigenMatrix()</text>
<text text-anchor="start" x="27.5" y="-112" font-family="Helvetica,sans-Serif" font-size="10.00">+</text>
<text text-anchor="start" x="40.5" y="-112" font-family="Helvetica,sans-Serif" font-size="10.00">EigenMatrix()</text>
<text text-anchor="start" x="27.5" y="-97" font-family="Helvetica,sans-Serif" font-size="10.00">+</text>
<text text-anchor="start" x="40.5" y="-97" font-family="Helvetica,sans-Serif" font-size="10.00">EigenMatrix()</text>
<text text-anchor="start" x="27.5" y="-82" font-family="Helvetica,sans-Serif" font-size="10.00">+</text>
<text text-anchor="start" x="40.5" y="-82" font-family="Helvetica,sans-Serif" font-size="10.00">EigenMatrix()</text>
<text text-anchor="start" x="27.5" y="-67" font-family="Helvetica,sans-Serif" font-size="10.00">+</text>
<text text-anchor="start" x="40.5" y="-67" font-family="Helvetica,sans-Serif" font-size="10.00">operator=()</text>
<text text-anchor="start" x="27.5" y="-52" font-family="Helvetica,sans-Serif" font-size="10.00">+</text>
<text text-anchor="start" x="40.5" y="-52" font-family="Helvetica,sans-Serif" font-size="10.00">operator=()</text>
<text text-anchor="start" x="40.5" y="-37" font-family="Helvetica,sans-Serif" font-size="10.00">and 27 more...</text>
<text text-anchor="start" x="27.5" y="-22" font-family="Helvetica,sans-Serif" font-size="10.00">+</text>
<text text-anchor="start" x="40.5" y="-22" font-family="Helvetica,sans-Serif" font-size="10.00">makeZeroMatrix()</text>
<text text-anchor="start" x="27.5" y="-7" font-family="Helvetica,sans-Serif" font-size="10.00">+</text>
<text text-anchor="start" x="40.5" y="-7" font-family="Helvetica,sans-Serif" font-size="10.00">makeIdentityMatrix()</text>
<polygon fill="#666666" stroke="#666666" points="23.5,-212 23.5,-212 148.5,-212 148.5,-212 23.5,-212"/>
<polygon fill="#666666" stroke="#666666" points="23.5,-197 23.5,-197 148.5,-197 148.5,-197 23.5,-197"/>
<polygon fill="none" stroke="#666666" points="23,0 23,-240 148,-240 148,0 23,0"/>
</a>
</g>
</g>
<!-- Node2 -->
<g id="Node000002" class="node">
<title>Node2</title>
<g id="a_Node000002"><a xlink:title=" ">
<polygon fill="white" stroke="transparent" points="83,-347 0,-347 0,-298 83,-298 83,-347"/>
<text text-anchor="start" x="5.5" y="-334.5" font-family="Helvetica,sans-Serif" font-size="10.00">static const int</text>
<text text-anchor="start" x="40" y="-319.5" font-family="Helvetica,sans-Serif" font-size="10.00"> </text>
<text text-anchor="start" x="40" y="-304.5" font-family="Helvetica,sans-Serif" font-size="10.00"> </text>
<polygon fill="#666666" stroke="#666666" points="0.5,-329.5 0.5,-329.5 83.5,-329.5 83.5,-329.5 0.5,-329.5"/>
<polygon fill="#666666" stroke="#666666" points="0.5,-314.5 0.5,-314.5 83.5,-314.5 83.5,-314.5 0.5,-314.5"/>
<polygon fill="none" stroke="#666666" points="0,-298 0,-347 83,-347 83,-298 0,-298"/>
</a>
</g>
</g>
<!-- Node2&#45;&gt;Node1 -->
<g id="edge1_Node000001_Node000002" class="edge">
<title>Node2&#45;&gt;Node1</title>
<g id="a_edge1_Node000001_Node000002"><a xlink:title=" ">
<path fill="none" stroke="#63b8ff" d="M40.26,-297.84C40.04,-285.83 40.39,-271.06 42.5,-258 42.83,-255.97 43.18,-253.93 43.55,-251.88"/>
<polygon fill="none" stroke="#63b8ff" points="43.56,-251.83 40.81,-245.16 45.91,-240.06 48.66,-246.73 43.56,-251.83"/>
</a>
</g>
<text text-anchor="middle" x="75.5" y="-272" font-family="Helvetica,sans-Serif" font-size="10.00" fill="grey"> +ColumnTag</text>
<text text-anchor="middle" x="75.5" y="-261" font-family="Helvetica,sans-Serif" font-size="10.00" fill="grey">+RowTag</text>
</g>
<!-- Node3 -->
<g id="Node000003" class="node">
<title>Node3</title>
<g id="a_Node000003"><a xlink:title=" ">
<polygon fill="white" stroke="transparent" points="154.5,-347 106.5,-347 106.5,-298 154.5,-298 154.5,-347"/>
<text text-anchor="start" x="111.5" y="-334.5" font-family="Helvetica,sans-Serif" font-size="10.00">TMatrix</text>
<text text-anchor="start" x="128.5" y="-319.5" font-family="Helvetica,sans-Serif" font-size="10.00"> </text>
<text text-anchor="start" x="128.5" y="-304.5" font-family="Helvetica,sans-Serif" font-size="10.00"> </text>
<polygon fill="#666666" stroke="#666666" points="106.5,-329.5 106.5,-329.5 154.5,-329.5 154.5,-329.5 106.5,-329.5"/>
<polygon fill="#666666" stroke="#666666" points="106.5,-314.5 106.5,-314.5 154.5,-314.5 154.5,-314.5 106.5,-314.5"/>
<polygon fill="none" stroke="#666666" points="106.5,-298 106.5,-347 154.5,-347 154.5,-298 106.5,-298"/>
</a>
</g>
</g>
<!-- Node3&#45;&gt;Node1 -->
<g id="edge2_Node000001_Node000003" class="edge">
<title>Node3&#45;&gt;Node1</title>
<g id="a_edge2_Node000001_Node000003"><a xlink:title=" ">
<path fill="none" stroke="#63b8ff" d="M125.16,-297.71C122.41,-285.43 118.8,-269.39 114.89,-251.97"/>
<polygon fill="none" stroke="#63b8ff" points="114.84,-251.75 109.63,-246.77 112.22,-240.04 117.43,-245.02 114.84,-251.75"/>
</a>
</g>
<text text-anchor="middle" x="150" y="-266.5" font-family="Helvetica,sans-Serif" font-size="10.00" fill="grey"> #_wrapped</text>
</g>
</g>
</svg>
</svg>

<style type='text/css'>
<![CDATA[
[data-mouse-over-selected='false'] { opacity: 0.7; }
[data-mouse-over-selected='true']  { opacity: 1.0; }
]]>
</style>
<script type="application/ecmascript"><![CDATA[
document.addEventListener('DOMContentLoaded', (event) => {
  highlightEdges();
  highlightAdjacentNodes();
});
]]></script>
</svg>
