<?xml version="1.0" encoding="UTF-8" standalone="no"?>
<!DOCTYPE svg PUBLIC "-//W3C//DTD SVG 1.1//EN"
 "http://www.w3.org/Graphics/SVG/1.1/DTD/svg11.dtd">
<!-- Generated by graphviz version 2.43.0 (0)
 -->
<!-- Title: cie::linalg::Quaternion&lt; NT &gt; Pages: 1 -->
<svg width="156pt" height="743pt"
 viewBox="0.00 0.00 156.00 743.00" xmlns="http://www.w3.org/2000/svg" xmlns:xlink="http://www.w3.org/1999/xlink">
<g id="graph0" class="graph" transform="scale(1 1) rotate(0) translate(4 739)">
<title>cie::linalg::Quaternion&lt; NT &gt;</title>
<!-- Node1 -->
<g id="Node000001" class="node">
<title>Node1</title>
<g id="a_Node000001"><a xlink:title=" ">
<polygon fill="#999999" stroke="transparent" points="142,-210 0,-210 0,0 142,0 142,-210"/>
<text text-anchor="start" x="17" y="-198" font-family="Helvetica,sans-Serif" font-size="10.00">cie::linalg::Quaternion</text>
<text text-anchor="start" x="52.5" y="-187" font-family="Helvetica,sans-Serif" font-size="10.00">&lt; NT &gt;</text>
<text text-anchor="start" x="69" y="-172" font-family="Helvetica,sans-Serif" font-size="10.00"> </text>
<text text-anchor="start" x="4" y="-157" font-family="Helvetica,sans-Serif" font-size="10.00">+</text>
<text text-anchor="start" x="17" y="-157" font-family="Helvetica,sans-Serif" font-size="10.00">Quaternion()</text>
<text text-anchor="start" x="4" y="-142" font-family="Helvetica,sans-Serif" font-size="10.00">+</text>
<text text-anchor="start" x="17" y="-142" font-family="Helvetica,sans-Serif" font-size="10.00">Quaternion()</text>
<text text-anchor="start" x="4" y="-127" font-family="Helvetica,sans-Serif" font-size="10.00">+</text>
<text text-anchor="start" x="17" y="-127" font-family="Helvetica,sans-Serif" font-size="10.00">Quaternion()</text>
<text text-anchor="start" x="4" y="-112" font-family="Helvetica,sans-Serif" font-size="10.00">+</text>
<text text-anchor="start" x="17" y="-112" font-family="Helvetica,sans-Serif" font-size="10.00">Quaternion()</text>
<text text-anchor="start" x="4" y="-97" font-family="Helvetica,sans-Serif" font-size="10.00">+</text>
<text text-anchor="start" x="17" y="-97" font-family="Helvetica,sans-Serif" font-size="10.00">Quaternion()</text>
<text text-anchor="start" x="4" y="-82" font-family="Helvetica,sans-Serif" font-size="10.00">+</text>
<text text-anchor="start" x="17" y="-82" font-family="Helvetica,sans-Serif" font-size="10.00">operator=()</text>
<text text-anchor="start" x="4" y="-67" font-family="Helvetica,sans-Serif" font-size="10.00">+</text>
<text text-anchor="start" x="17" y="-67" font-family="Helvetica,sans-Serif" font-size="10.00">conjugate()</text>
<text text-anchor="start" x="4" y="-52" font-family="Helvetica,sans-Serif" font-size="10.00">+</text>
<text text-anchor="start" x="17" y="-52" font-family="Helvetica,sans-Serif" font-size="10.00">normalize()</text>
<text text-anchor="start" x="4" y="-37" font-family="Helvetica,sans-Serif" font-size="10.00">+</text>
<text text-anchor="start" x="17" y="-37" font-family="Helvetica,sans-Serif" font-size="10.00">normSquared()</text>
<text text-anchor="start" x="4" y="-22" font-family="Helvetica,sans-Serif" font-size="10.00">+</text>
<text text-anchor="start" x="17" y="-22" font-family="Helvetica,sans-Serif" font-size="10.00">loadFromAxisAndAngle()</text>
<text text-anchor="start" x="17" y="-7" font-family="Helvetica,sans-Serif" font-size="10.00">and 13 more...</text>
<polygon fill="#666666" stroke="#666666" points="0,-182 0,-182 142,-182 142,-182 0,-182"/>
<polygon fill="#666666" stroke="#666666" points="0,-167 0,-167 142,-167 142,-167 0,-167"/>
<polygon fill="none" stroke="#666666" points="0,0 0,-210 142,-210 142,0 0,0"/>
</a>
</g>
</g>
<!-- Node2 -->
<g id="Node000002" class="node">
<title>Node2</title>
<g id="a_Node000002"><a target="_parent" xlink:href="../../../cieutils/docs/html/classcie_1_1STLContainerBase.html" xlink:title=" ">
<polygon fill="white" stroke="transparent" points="130.5,-467 11.5,-467 11.5,-257 130.5,-257 130.5,-467"/>
<text text-anchor="start" x="17" y="-455" font-family="Helvetica,sans-Serif" font-size="10.00">cie::STLContainerBase</text>
<text text-anchor="start" x="47" y="-444" font-family="Helvetica,sans-Serif" font-size="10.00">&lt; NT, 4 &gt;</text>
<text text-anchor="start" x="69.5" y="-429" font-family="Helvetica,sans-Serif" font-size="10.00"> </text>
<text text-anchor="start" x="16" y="-414" font-family="Helvetica,sans-Serif" font-size="10.00">+</text>
<text text-anchor="start" x="29" y="-414" font-family="Helvetica,sans-Serif" font-size="10.00">STLContainerBase()</text>
<text text-anchor="start" x="16" y="-399" font-family="Helvetica,sans-Serif" font-size="10.00">+</text>
<text text-anchor="start" x="29" y="-399" font-family="Helvetica,sans-Serif" font-size="10.00">STLContainerBase()</text>
<text text-anchor="start" x="16" y="-384" font-family="Helvetica,sans-Serif" font-size="10.00">+</text>
<text text-anchor="start" x="29" y="-384" font-family="Helvetica,sans-Serif" font-size="10.00">STLContainerBase()</text>
<text text-anchor="start" x="16" y="-369" font-family="Helvetica,sans-Serif" font-size="10.00">+</text>
<text text-anchor="start" x="29" y="-369" font-family="Helvetica,sans-Serif" font-size="10.00">STLContainerBase()</text>
<text text-anchor="start" x="16" y="-354" font-family="Helvetica,sans-Serif" font-size="10.00">+</text>
<text text-anchor="start" x="29" y="-354" font-family="Helvetica,sans-Serif" font-size="10.00">STLContainerBase()</text>
<text text-anchor="start" x="16" y="-339" font-family="Helvetica,sans-Serif" font-size="10.00">+</text>
<text text-anchor="start" x="29" y="-339" font-family="Helvetica,sans-Serif" font-size="10.00">STLContainerBase()</text>
<text text-anchor="start" x="16" y="-324" font-family="Helvetica,sans-Serif" font-size="10.00">+</text>
<text text-anchor="start" x="29" y="-324" font-family="Helvetica,sans-Serif" font-size="10.00">STLContainerBase()</text>
<text text-anchor="start" x="16" y="-309" font-family="Helvetica,sans-Serif" font-size="10.00">+</text>
<text text-anchor="start" x="29" y="-309" font-family="Helvetica,sans-Serif" font-size="10.00">STLContainerBase()</text>
<text text-anchor="start" x="16" y="-294" font-family="Helvetica,sans-Serif" font-size="10.00">+</text>
<text text-anchor="start" x="29" y="-294" font-family="Helvetica,sans-Serif" font-size="10.00">STLContainerBase()</text>
<text text-anchor="start" x="16" y="-279" font-family="Helvetica,sans-Serif" font-size="10.00">+</text>
<text text-anchor="start" x="29" y="-279" font-family="Helvetica,sans-Serif" font-size="10.00">STLContainerBase()</text>
<text text-anchor="start" x="29" y="-264" font-family="Helvetica,sans-Serif" font-size="10.00">and 88 more...</text>
<polygon fill="#666666" stroke="#666666" points="12,-439 12,-439 131,-439 131,-439 12,-439"/>
<polygon fill="#666666" stroke="#666666" points="12,-424 12,-424 131,-424 131,-424 12,-424"/>
<polygon fill="none" stroke="#666666" points="11.5,-257 11.5,-467 130.5,-467 130.5,-257 11.5,-257"/>
</a>
</g>
</g>
<!-- Node2&#45;&gt;Node1 -->
<g id="edge1_Node000001_Node000002" class="edge">
<title>Node2&#45;&gt;Node1</title>
<g id="a_edge1_Node000001_Node000002"><a xlink:title=" ">
<path fill="none" stroke="#63b8ff" d="M71,-256.91C71,-245.47 71,-233.76 71,-222.18"/>
<polygon fill="none" stroke="#63b8ff" points="71,-222.17 67,-216.17 71,-210.17 75,-216.17 71,-222.17"/>
</a>
</g>
<text text-anchor="middle" x="109.5" y="-231" font-family="Helvetica,sans-Serif" font-size="10.00" fill="grey"> #_components</text>
</g>
<!-- Node3 -->
<g id="Node000003" class="node">
<title>Node3</title>
<g id="a_Node000003"><a target="_parent" xlink:href="../../../cieutils/docs/html/classcie_1_1STLContainerBase.html" xlink:title=" ">
<polygon fill="white" stroke="transparent" points="134,-735 8,-735 8,-514 134,-514 134,-735"/>
<text text-anchor="start" x="16.5" y="-722.5" font-family="Helvetica,sans-Serif" font-size="10.00">cie::STLContainerBase</text>
<text text-anchor="start" x="16.5" y="-711.5" font-family="Helvetica,sans-Serif" font-size="10.00">&lt; concepts::Container</text>
<text text-anchor="start" x="48.5" y="-700.5" font-family="Helvetica,sans-Serif" font-size="10.00"> TBase &gt;</text>
<text text-anchor="start" x="69" y="-685.5" font-family="Helvetica,sans-Serif" font-size="10.00"> </text>
<text text-anchor="start" x="12" y="-670.5" font-family="Helvetica,sans-Serif" font-size="10.00">+</text>
<text text-anchor="start" x="25" y="-670.5" font-family="Helvetica,sans-Serif" font-size="10.00">STLContainerBase()</text>
<text text-anchor="start" x="12" y="-655.5" font-family="Helvetica,sans-Serif" font-size="10.00">+</text>
<text text-anchor="start" x="25" y="-655.5" font-family="Helvetica,sans-Serif" font-size="10.00">STLContainerBase()</text>
<text text-anchor="start" x="12" y="-640.5" font-family="Helvetica,sans-Serif" font-size="10.00">+</text>
<text text-anchor="start" x="25" y="-640.5" font-family="Helvetica,sans-Serif" font-size="10.00">STLContainerBase()</text>
<text text-anchor="start" x="12" y="-625.5" font-family="Helvetica,sans-Serif" font-size="10.00">+</text>
<text text-anchor="start" x="25" y="-625.5" font-family="Helvetica,sans-Serif" font-size="10.00">STLContainerBase()</text>
<text text-anchor="start" x="12" y="-610.5" font-family="Helvetica,sans-Serif" font-size="10.00">+</text>
<text text-anchor="start" x="25" y="-610.5" font-family="Helvetica,sans-Serif" font-size="10.00">STLContainerBase()</text>
<text text-anchor="start" x="12" y="-595.5" font-family="Helvetica,sans-Serif" font-size="10.00">+</text>
<text text-anchor="start" x="25" y="-595.5" font-family="Helvetica,sans-Serif" font-size="10.00">STLContainerBase()</text>
<text text-anchor="start" x="12" y="-580.5" font-family="Helvetica,sans-Serif" font-size="10.00">+</text>
<text text-anchor="start" x="25" y="-580.5" font-family="Helvetica,sans-Serif" font-size="10.00">STLContainerBase()</text>
<text text-anchor="start" x="12" y="-565.5" font-family="Helvetica,sans-Serif" font-size="10.00">+</text>
<text text-anchor="start" x="25" y="-565.5" font-family="Helvetica,sans-Serif" font-size="10.00">operator=()</text>
<text text-anchor="start" x="12" y="-550.5" font-family="Helvetica,sans-Serif" font-size="10.00">+</text>
<text text-anchor="start" x="25" y="-550.5" font-family="Helvetica,sans-Serif" font-size="10.00">operator=()</text>
<text text-anchor="start" x="12" y="-535.5" font-family="Helvetica,sans-Serif" font-size="10.00">+</text>
<text text-anchor="start" x="25" y="-535.5" font-family="Helvetica,sans-Serif" font-size="10.00">~STLContainerBase()</text>
<text text-anchor="start" x="25" y="-520.5" font-family="Helvetica,sans-Serif" font-size="10.00">and 88 more...</text>
<polygon fill="#666666" stroke="#666666" points="8,-695.5 8,-695.5 134,-695.5 134,-695.5 8,-695.5"/>
<polygon fill="#666666" stroke="#666666" points="8,-680.5 8,-680.5 134,-680.5 134,-680.5 8,-680.5"/>
<polygon fill="none" stroke="#666666" points="8,-514 8,-735 134,-735 134,-514 8,-514"/>
</a>
</g>
</g>
<!-- Node3&#45;&gt;Node2 -->
<g id="edge2_Node000002_Node000003" class="edge">
<title>Node3&#45;&gt;Node2</title>
<g id="a_edge2_Node000002_Node000003"><a xlink:title=" ">
<path fill="none" stroke="orange" d="M71,-503.6C71,-491.44 71,-479.16 71,-467.19"/>
<polygon fill="orange" stroke="orange" points="67.5,-503.78 71,-513.78 74.5,-503.78 67.5,-503.78"/>
</a>
</g>
<text text-anchor="middle" x="97" y="-488" font-family="Helvetica,sans-Serif" font-size="10.00" fill="grey"> &lt; NT, 4 &gt;</text>
</g>
</g>
</svg>
