<?xml version="1.0" encoding="UTF-8" standalone="no"?>
<!DOCTYPE svg PUBLIC "-//W3C//DTD SVG 1.1//EN"
 "http://www.w3.org/Graphics/SVG/1.1/DTD/svg11.dtd">
<!-- Generated by graphviz version 2.43.0 (0)
 -->
<!-- Title: cie::linalg::Quaternion&lt; NT &gt; Pages: 1 -->
<!--zoomable 743 -->

<svg id="main" version="1.1" xmlns="http://www.w3.org/2000/svg" xmlns:xlink="http://www.w3.org/1999/xlink" xml:space="preserve" onload="init(evt)">
<style type="text/css"><![CDATA[
.node, .edge {opacity: 0.7;}
.node.selected, .edge.selected {opacity: 1;}
.edge:hover path { stroke: red; }
.edge:hover polygon { stroke: red; fill: red; }
]]></style>

<defs>
  <circle id="rim" cx="0" cy="0" r="7"/>
  <circle id="rim2" cx="0" cy="0" r="3.5"/>
  <g id="zoomPlus">
    <use xlink:href="#rim" fill="#404040"><set attributeName="fill" to="#808080" begin="zoomplus.mouseover" end="zoomplus.mouseout"/></use>
    <path d="M-4,0h8M0,-4v8" fill="none" stroke="white" stroke-width="1.5" pointer-events="none"/>
  </g>
  <g id="zoomMin">
    <use xlink:href="#rim" fill="#404040"><set attributeName="fill" to="#808080" begin="zoomminus.mouseover" end="zoomminus.mouseout"/></use>
    <path d="M-4,0h8" fill="none" stroke="white" stroke-width="1.5" pointer-events="none"/>
  </g>
  <g id="arrowUp" transform="translate(30 24)">
    <use xlink:href="#rim"/>
    <path pointer-events="none" fill="none" stroke="white" stroke-width="1.5" d="M0,-3.0v7 M-2.5,-0.5L0,-3.0L2.5,-0.5"/>
  </g>
  <g id="arrowRight" transform="rotate(90) translate(36 -43)">
    <use xlink:href="#rim"/>
    <path pointer-events="none" fill="none" stroke="white" stroke-width="1.5" d="M0,-3.0v7 M-2.5,-0.5L0,-3.0L2.5,-0.5"/>
  </g>
  <g id="arrowDown" transform="rotate(180) translate(-30 -48)">
    <use xlink:href="#rim"/>
    <path pointer-events="none" fill="none" stroke="white" stroke-width="1.5" d="M0,-3.0v7 M-2.5,-0.5L0,-3.0L2.5,-0.5"/>
  </g>
  <g id="arrowLeft" transform="rotate(270) translate(-36 17)">
    <use xlink:href="#rim"/>
    <path pointer-events="none" fill="none" stroke="white" stroke-width="1.5" d="M0,-3.0v7 M-2.5,-0.5L0,-3.0L2.5,-0.5"/>
  </g>
  <g id="resetDef">
    <use xlink:href="#rim2" fill="#404040"><set attributeName="fill" to="#808080" begin="reset.mouseover" end="reset.mouseout"/></use>
  </g>
</defs>
<script type="application/ecmascript">
var viewWidth = 156;
var viewHeight = 743;
var sectionId = 'dynsection-0';
</script>
<script type="application/ecmascript" xlink:href="svg.min.js"/>
<svg id="graph" class="graph">
<g id="viewport">
<title>cie::linalg::Quaternion&lt; NT &gt;</title>
<!-- Node1 -->
<g id="Node000001" class="node">
<title>Node1</title>
<g id="a_Node000001"><a xlink:title=" ">
<polygon fill="#999999" stroke="transparent" points="142,-210 0,-210 0,0 142,0 142,-210"/>
<text text-anchor="start" x="17" y="-198" font-family="Helvetica,sans-Serif" font-size="10.00">cie::linalg::Quaternion</text>
<text text-anchor="start" x="52.5" y="-187" font-family="Helvetica,sans-Serif" font-size="10.00">&lt; NT &gt;</text>
<text text-anchor="start" x="69" y="-172" font-family="Helvetica,sans-Serif" font-size="10.00"> </text>
<text text-anchor="start" x="4" y="-157" font-family="Helvetica,sans-Serif" font-size="10.00">+</text>
<text text-anchor="start" x="17" y="-157" font-family="Helvetica,sans-Serif" font-size="10.00">Quaternion()</text>
<text text-anchor="start" x="4" y="-142" font-family="Helvetica,sans-Serif" font-size="10.00">+</text>
<text text-anchor="start" x="17" y="-142" font-family="Helvetica,sans-Serif" font-size="10.00">Quaternion()</text>
<text text-anchor="start" x="4" y="-127" font-family="Helvetica,sans-Serif" font-size="10.00">+</text>
<text text-anchor="start" x="17" y="-127" font-family="Helvetica,sans-Serif" font-size="10.00">Quaternion()</text>
<text text-anchor="start" x="4" y="-112" font-family="Helvetica,sans-Serif" font-size="10.00">+</text>
<text text-anchor="start" x="17" y="-112" font-family="Helvetica,sans-Serif" font-size="10.00">Quaternion()</text>
<text text-anchor="start" x="4" y="-97" font-family="Helvetica,sans-Serif" font-size="10.00">+</text>
<text text-anchor="start" x="17" y="-97" font-family="Helvetica,sans-Serif" font-size="10.00">Quaternion()</text>
<text text-anchor="start" x="4" y="-82" font-family="Helvetica,sans-Serif" font-size="10.00">+</text>
<text text-anchor="start" x="17" y="-82" font-family="Helvetica,sans-Serif" font-size="10.00">operator=()</text>
<text text-anchor="start" x="4" y="-67" font-family="Helvetica,sans-Serif" font-size="10.00">+</text>
<text text-anchor="start" x="17" y="-67" font-family="Helvetica,sans-Serif" font-size="10.00">conjugate()</text>
<text text-anchor="start" x="4" y="-52" font-family="Helvetica,sans-Serif" font-size="10.00">+</text>
<text text-anchor="start" x="17" y="-52" font-family="Helvetica,sans-Serif" font-size="10.00">normalize()</text>
<text text-anchor="start" x="4" y="-37" font-family="Helvetica,sans-Serif" font-size="10.00">+</text>
<text text-anchor="start" x="17" y="-37" font-family="Helvetica,sans-Serif" font-size="10.00">normSquared()</text>
<text text-anchor="start" x="4" y="-22" font-family="Helvetica,sans-Serif" font-size="10.00">+</text>
<text text-anchor="start" x="17" y="-22" font-family="Helvetica,sans-Serif" font-size="10.00">loadFromAxisAndAngle()</text>
<text text-anchor="start" x="17" y="-7" font-family="Helvetica,sans-Serif" font-size="10.00">and 13 more...</text>
<polygon fill="#666666" stroke="#666666" points="0,-182 0,-182 142,-182 142,-182 0,-182"/>
<polygon fill="#666666" stroke="#666666" points="0,-167 0,-167 142,-167 142,-167 0,-167"/>
<polygon fill="none" stroke="#666666" points="0,0 0,-210 142,-210 142,0 0,0"/>
</a>
</g>
</g>
<!-- Node2 -->
<g id="Node000002" class="node">
<title>Node2</title>
<g id="a_Node000002"><a target="_parent" xlink:href="../../../cieutils/docs/html/classcie_1_1STLContainerBase.html" xlink:title=" ">
<polygon fill="white" stroke="transparent" points="130.5,-467 11.5,-467 11.5,-257 130.5,-257 130.5,-467"/>
<text text-anchor="start" x="17" y="-455" font-family="Helvetica,sans-Serif" font-size="10.00">cie::STLContainerBase</text>
<text text-anchor="start" x="47" y="-444" font-family="Helvetica,sans-Serif" font-size="10.00">&lt; NT, 4 &gt;</text>
<text text-anchor="start" x="69.5" y="-429" font-family="Helvetica,sans-Serif" font-size="10.00"> </text>
<text text-anchor="start" x="16" y="-414" font-family="Helvetica,sans-Serif" font-size="10.00">+</text>
<text text-anchor="start" x="29" y="-414" font-family="Helvetica,sans-Serif" font-size="10.00">STLContainerBase()</text>
<text text-anchor="start" x="16" y="-399" font-family="Helvetica,sans-Serif" font-size="10.00">+</text>
<text text-anchor="start" x="29" y="-399" font-family="Helvetica,sans-Serif" font-size="10.00">STLContainerBase()</text>
<text text-anchor="start" x="16" y="-384" font-family="Helvetica,sans-Serif" font-size="10.00">+</text>
<text text-anchor="start" x="29" y="-384" font-family="Helvetica,sans-Serif" font-size="10.00">STLContainerBase()</text>
<text text-anchor="start" x="16" y="-369" font-family="Helvetica,sans-Serif" font-size="10.00">+</text>
<text text-anchor="start" x="29" y="-369" font-family="Helvetica,sans-Serif" font-size="10.00">STLContainerBase()</text>
<text text-anchor="start" x="16" y="-354" font-family="Helvetica,sans-Serif" font-size="10.00">+</text>
<text text-anchor="start" x="29" y="-354" font-family="Helvetica,sans-Serif" font-size="10.00">STLContainerBase()</text>
<text text-anchor="start" x="16" y="-339" font-family="Helvetica,sans-Serif" font-size="10.00">+</text>
<text text-anchor="start" x="29" y="-339" font-family="Helvetica,sans-Serif" font-size="10.00">STLContainerBase()</text>
<text text-anchor="start" x="16" y="-324" font-family="Helvetica,sans-Serif" font-size="10.00">+</text>
<text text-anchor="start" x="29" y="-324" font-family="Helvetica,sans-Serif" font-size="10.00">STLContainerBase()</text>
<text text-anchor="start" x="16" y="-309" font-family="Helvetica,sans-Serif" font-size="10.00">+</text>
<text text-anchor="start" x="29" y="-309" font-family="Helvetica,sans-Serif" font-size="10.00">STLContainerBase()</text>
<text text-anchor="start" x="16" y="-294" font-family="Helvetica,sans-Serif" font-size="10.00">+</text>
<text text-anchor="start" x="29" y="-294" font-family="Helvetica,sans-Serif" font-size="10.00">STLContainerBase()</text>
<text text-anchor="start" x="16" y="-279" font-family="Helvetica,sans-Serif" font-size="10.00">+</text>
<text text-anchor="start" x="29" y="-279" font-family="Helvetica,sans-Serif" font-size="10.00">STLContainerBase()</text>
<text text-anchor="start" x="29" y="-264" font-family="Helvetica,sans-Serif" font-size="10.00">and 88 more...</text>
<polygon fill="#666666" stroke="#666666" points="12,-439 12,-439 131,-439 131,-439 12,-439"/>
<polygon fill="#666666" stroke="#666666" points="12,-424 12,-424 131,-424 131,-424 12,-424"/>
<polygon fill="none" stroke="#666666" points="11.5,-257 11.5,-467 130.5,-467 130.5,-257 11.5,-257"/>
</a>
</g>
</g>
<!-- Node2&#45;&gt;Node1 -->
<g id="edge1_Node000001_Node000002" class="edge">
<title>Node2&#45;&gt;Node1</title>
<g id="a_edge1_Node000001_Node000002"><a xlink:title=" ">
<path fill="none" stroke="#63b8ff" d="M71,-256.91C71,-245.47 71,-233.76 71,-222.18"/>
<polygon fill="none" stroke="#63b8ff" points="71,-222.17 67,-216.17 71,-210.17 75,-216.17 71,-222.17"/>
</a>
</g>
<text text-anchor="middle" x="109.5" y="-231" font-family="Helvetica,sans-Serif" font-size="10.00" fill="grey"> #_components</text>
</g>
<!-- Node3 -->
<g id="Node000003" class="node">
<title>Node3</title>
<g id="a_Node000003"><a target="_parent" xlink:href="../../../cieutils/docs/html/classcie_1_1STLContainerBase.html" xlink:title=" ">
<polygon fill="white" stroke="transparent" points="134,-735 8,-735 8,-514 134,-514 134,-735"/>
<text text-anchor="start" x="16.5" y="-722.5" font-family="Helvetica,sans-Serif" font-size="10.00">cie::STLContainerBase</text>
<text text-anchor="start" x="16.5" y="-711.5" font-family="Helvetica,sans-Serif" font-size="10.00">&lt; concepts::Container</text>
<text text-anchor="start" x="48.5" y="-700.5" font-family="Helvetica,sans-Serif" font-size="10.00"> TBase &gt;</text>
<text text-anchor="start" x="69" y="-685.5" font-family="Helvetica,sans-Serif" font-size="10.00"> </text>
<text text-anchor="start" x="12" y="-670.5" font-family="Helvetica,sans-Serif" font-size="10.00">+</text>
<text text-anchor="start" x="25" y="-670.5" font-family="Helvetica,sans-Serif" font-size="10.00">STLContainerBase()</text>
<text text-anchor="start" x="12" y="-655.5" font-family="Helvetica,sans-Serif" font-size="10.00">+</text>
<text text-anchor="start" x="25" y="-655.5" font-family="Helvetica,sans-Serif" font-size="10.00">STLContainerBase()</text>
<text text-anchor="start" x="12" y="-640.5" font-family="Helvetica,sans-Serif" font-size="10.00">+</text>
<text text-anchor="start" x="25" y="-640.5" font-family="Helvetica,sans-Serif" font-size="10.00">STLContainerBase()</text>
<text text-anchor="start" x="12" y="-625.5" font-family="Helvetica,sans-Serif" font-size="10.00">+</text>
<text text-anchor="start" x="25" y="-625.5" font-family="Helvetica,sans-Serif" font-size="10.00">STLContainerBase()</text>
<text text-anchor="start" x="12" y="-610.5" font-family="Helvetica,sans-Serif" font-size="10.00">+</text>
<text text-anchor="start" x="25" y="-610.5" font-family="Helvetica,sans-Serif" font-size="10.00">STLContainerBase()</text>
<text text-anchor="start" x="12" y="-595.5" font-family="Helvetica,sans-Serif" font-size="10.00">+</text>
<text text-anchor="start" x="25" y="-595.5" font-family="Helvetica,sans-Serif" font-size="10.00">STLContainerBase()</text>
<text text-anchor="start" x="12" y="-580.5" font-family="Helvetica,sans-Serif" font-size="10.00">+</text>
<text text-anchor="start" x="25" y="-580.5" font-family="Helvetica,sans-Serif" font-size="10.00">STLContainerBase()</text>
<text text-anchor="start" x="12" y="-565.5" font-family="Helvetica,sans-Serif" font-size="10.00">+</text>
<text text-anchor="start" x="25" y="-565.5" font-family="Helvetica,sans-Serif" font-size="10.00">operator=()</text>
<text text-anchor="start" x="12" y="-550.5" font-family="Helvetica,sans-Serif" font-size="10.00">+</text>
<text text-anchor="start" x="25" y="-550.5" font-family="Helvetica,sans-Serif" font-size="10.00">operator=()</text>
<text text-anchor="start" x="12" y="-535.5" font-family="Helvetica,sans-Serif" font-size="10.00">+</text>
<text text-anchor="start" x="25" y="-535.5" font-family="Helvetica,sans-Serif" font-size="10.00">~STLContainerBase()</text>
<text text-anchor="start" x="25" y="-520.5" font-family="Helvetica,sans-Serif" font-size="10.00">and 88 more...</text>
<polygon fill="#666666" stroke="#666666" points="8,-695.5 8,-695.5 134,-695.5 134,-695.5 8,-695.5"/>
<polygon fill="#666666" stroke="#666666" points="8,-680.5 8,-680.5 134,-680.5 134,-680.5 8,-680.5"/>
<polygon fill="none" stroke="#666666" points="8,-514 8,-735 134,-735 134,-514 8,-514"/>
</a>
</g>
</g>
<!-- Node3&#45;&gt;Node2 -->
<g id="edge2_Node000002_Node000003" class="edge">
<title>Node3&#45;&gt;Node2</title>
<g id="a_edge2_Node000002_Node000003"><a xlink:title=" ">
<path fill="none" stroke="orange" d="M71,-503.6C71,-491.44 71,-479.16 71,-467.19"/>
<polygon fill="orange" stroke="orange" points="67.5,-503.78 71,-513.78 74.5,-503.78 67.5,-503.78"/>
</a>
</g>
<text text-anchor="middle" x="97" y="-488" font-family="Helvetica,sans-Serif" font-size="10.00" fill="grey"> &lt; NT, 4 &gt;</text>
</g>
</g>
</svg>

<g id="navigator" transform="translate(0 0)" fill="#404254">
  <rect fill="#f2f5e9" fill-opacity="0.5" stroke="#606060" stroke-width=".5" x="0" y="0" width="60" height="60"/>
  <use id="zoomplus" xlink:href="#zoomPlus" x="17" y="9" onmousedown="handleZoom(evt,'in')"/>
  <use id="zoomminus" xlink:href="#zoomMin" x="42" y="9" onmousedown="handleZoom(evt,'out')"/>
  <use id="reset" xlink:href="#resetDef" x="30" y="36" onmousedown="handleReset()"/>
   <use id="arrowup" xlink:href="#arrowUp" x="0" y="0" onmousedown="handlePan(0,-1)"/>
  <use id="arrowright" xlink:href="#arrowRight" x="0" y="0" onmousedown="handlePan(1,0)"/>
  <use id="arrowdown" xlink:href="#arrowDown" x="0" y="0" onmousedown="handlePan(0,1)"/>
  <use id="arrowleft" xlink:href="#arrowLeft" x="0" y="0" onmousedown="handlePan(-1,0)"/>
</g>
<svg viewBox="0 0 15 15" width="100%" height="30px" preserveAspectRatio="xMaxYMin meet">
 <g id="arrow_out" transform="scale(0.3 0.3)">
  <a xlink:href="classcie_1_1linalg_1_1Quaternion__coll__graph_org.svg" target="_base">
   <rect id="button" ry="5" rx="5" y="6" x="6" height="38" width="38"
        fill="#f2f5e9" fill-opacity="0.5" stroke="#606060" stroke-width="1.0"/>
   <path id="arrow"
     d="M 11.500037,31.436501 C 11.940474,20.09759 22.043105,11.32322 32.158766,21.979434 L 37.068811,17.246167 C 37.068811,17.246167 37.088388,32 37.088388,32 L 22.160133,31.978069 C 22.160133,31.978069 26.997745,27.140456 26.997745,27.140456 C 18.528582,18.264221 13.291696,25.230495 11.500037,31.436501 z"
     style="fill:#404040;"/>
  </a>
 </g>
</svg>

<style type='text/css'>
<![CDATA[
[data-mouse-over-selected='false'] { opacity: 0.7; }
[data-mouse-over-selected='true']  { opacity: 1.0; }
]]>
</style>
<script type="application/ecmascript"><![CDATA[
document.addEventListener('DOMContentLoaded', (event) => {
  highlightEdges();
  highlightAdjacentNodes();
});
]]></script>
</svg>
