<?xml version="1.0" encoding="UTF-8" standalone="no"?>
<!DOCTYPE svg PUBLIC "-//W3C//DTD SVG 1.1//EN"
 "http://www.w3.org/Graphics/SVG/1.1/DTD/svg11.dtd">
<!-- Generated by graphviz version 2.43.0 (0)
 -->
<!-- Title: cie::linalg::EigenMatrix&lt; TMatrix &gt; Pages: 1 -->
<svg width="189pt" height="325pt"
 viewBox="0.00 0.00 188.50 325.00" xmlns="http://www.w3.org/2000/svg" xmlns:xlink="http://www.w3.org/1999/xlink">
<g id="graph0" class="graph" transform="scale(1 1) rotate(0) translate(4 321)">
<title>cie::linalg::EigenMatrix&lt; TMatrix &gt;</title>
<polygon fill="white" stroke="transparent" points="-4,4 -4,-321 184.5,-321 184.5,4 -4,4"/>
<!-- Node1 -->
<g id="node1" class="node">
<title>Node1</title>
<g id="a_node1"><a xlink:title=" ">
<polygon fill="#bfbfbf" stroke="black" points="24,-0.5 24,-200.5 155,-200.5 155,-0.5 24,-0.5"/>
<text text-anchor="start" x="32" y="-188.5" font-family="Helvetica,sans-Serif" font-size="10.00">cie::linalg::EigenMatrix</text>
<text text-anchor="middle" x="89.5" y="-177.5" font-family="Helvetica,sans-Serif" font-size="10.00">&lt; TMatrix &gt;</text>
<polyline fill="none" stroke="black" points="24,-170.5 155,-170.5 "/>
<text text-anchor="middle" x="89.5" y="-158.5" font-family="Helvetica,sans-Serif" font-size="10.00"> </text>
<polyline fill="none" stroke="black" points="24,-151.5 155,-151.5 "/>
<text text-anchor="start" x="32" y="-139.5" font-family="Helvetica,sans-Serif" font-size="10.00">+ EigenMatrix()</text>
<text text-anchor="start" x="32" y="-128.5" font-family="Helvetica,sans-Serif" font-size="10.00">+ EigenMatrix()</text>
<text text-anchor="start" x="32" y="-117.5" font-family="Helvetica,sans-Serif" font-size="10.00">+ EigenMatrix()</text>
<text text-anchor="start" x="32" y="-106.5" font-family="Helvetica,sans-Serif" font-size="10.00">+ EigenMatrix()</text>
<text text-anchor="start" x="32" y="-95.5" font-family="Helvetica,sans-Serif" font-size="10.00">+ EigenMatrix()</text>
<text text-anchor="start" x="32" y="-84.5" font-family="Helvetica,sans-Serif" font-size="10.00">+ EigenMatrix()</text>
<text text-anchor="start" x="32" y="-73.5" font-family="Helvetica,sans-Serif" font-size="10.00">+ operator=()</text>
<text text-anchor="start" x="32" y="-62.5" font-family="Helvetica,sans-Serif" font-size="10.00">+ operator=()</text>
<text text-anchor="start" x="32" y="-51.5" font-family="Helvetica,sans-Serif" font-size="10.00">+ operator=()</text>
<text text-anchor="start" x="32" y="-40.5" font-family="Helvetica,sans-Serif" font-size="10.00">+ operator=()</text>
<text text-anchor="start" x="32" y="-29.5" font-family="Helvetica,sans-Serif" font-size="10.00">and 22 more...</text>
<text text-anchor="start" x="32" y="-18.5" font-family="Helvetica,sans-Serif" font-size="10.00">+ makeZeroMatrix()</text>
<text text-anchor="start" x="32" y="-7.5" font-family="Helvetica,sans-Serif" font-size="10.00">+ makeIdentityMatrix()</text>
</a>
</g>
</g>
<!-- Node2 -->
<g id="node2" class="node">
<title>Node2</title>
<g id="a_node2"><a xlink:title=" ">
<polygon fill="white" stroke="#bfbfbf" points="0,-259.5 0,-316.5 89,-316.5 89,-259.5 0,-259.5"/>
<text text-anchor="middle" x="44.5" y="-304.5" font-family="Helvetica,sans-Serif" font-size="10.00">static const int</text>
<polyline fill="none" stroke="#bfbfbf" points="0,-297.5 89,-297.5 "/>
<text text-anchor="middle" x="44.5" y="-285.5" font-family="Helvetica,sans-Serif" font-size="10.00"> </text>
<polyline fill="none" stroke="#bfbfbf" points="0,-278.5 89,-278.5 "/>
<text text-anchor="middle" x="44.5" y="-266.5" font-family="Helvetica,sans-Serif" font-size="10.00"> </text>
</a>
</g>
</g>
<!-- Node2&#45;&gt;Node1 -->
<g id="edge1" class="edge">
<title>Node2&#45;&gt;Node1</title>
<path fill="none" stroke="#404040" d="M43.31,-259.32C43.29,-246.89 43.98,-232.11 46.5,-219 46.92,-216.82 47.38,-214.62 47.86,-212.41"/>
<polygon fill="none" stroke="#404040" points="47.91,-212.21 45.45,-205.44 50.75,-200.55 53.22,-207.33 47.91,-212.21"/>
<text text-anchor="middle" x="79.5" y="-233" font-family="Helvetica,sans-Serif" font-size="10.00"> +ColumnTag</text>
<text text-anchor="middle" x="79.5" y="-222" font-family="Helvetica,sans-Serif" font-size="10.00">+RowTag</text>
</g>
<!-- Node3 -->
<g id="node3" class="node">
<title>Node3</title>
<g id="a_node3"><a xlink:title=" ">
<polygon fill="white" stroke="#bfbfbf" points="107.5,-259.5 107.5,-316.5 161.5,-316.5 161.5,-259.5 107.5,-259.5"/>
<text text-anchor="middle" x="134.5" y="-304.5" font-family="Helvetica,sans-Serif" font-size="10.00">TMatrix</text>
<polyline fill="none" stroke="#bfbfbf" points="107.5,-297.5 161.5,-297.5 "/>
<text text-anchor="middle" x="134.5" y="-285.5" font-family="Helvetica,sans-Serif" font-size="10.00"> </text>
<polyline fill="none" stroke="#bfbfbf" points="107.5,-278.5 161.5,-278.5 "/>
<text text-anchor="middle" x="134.5" y="-266.5" font-family="Helvetica,sans-Serif" font-size="10.00"> </text>
</a>
</g>
</g>
<!-- Node3&#45;&gt;Node1 -->
<g id="edge2" class="edge">
<title>Node3&#45;&gt;Node1</title>
<path fill="none" stroke="#404040" d="M127.76,-259.23C124.62,-246.25 120.64,-229.87 116.45,-212.6"/>
<polygon fill="none" stroke="#404040" points="116.35,-212.2 111.05,-207.31 113.52,-200.54 118.83,-205.42 116.35,-212.2"/>
<text text-anchor="middle" x="151" y="-227.5" font-family="Helvetica,sans-Serif" font-size="10.00"> #_wrapped</text>
</g>
</g>
</svg>
