<?xml version="1.0" encoding="UTF-8" standalone="no"?>
<!DOCTYPE svg PUBLIC "-//W3C//DTD SVG 1.1//EN"
 "http://www.w3.org/Graphics/SVG/1.1/DTD/svg11.dtd">
<!-- Generated by graphviz version 2.43.0 (0)
 -->
<!-- Title: concepts.hpp Pages: 1 -->
<svg width="228pt" height="106pt"
 viewBox="0.00 0.00 227.50 106.00" xmlns="http://www.w3.org/2000/svg" xmlns:xlink="http://www.w3.org/1999/xlink">
<g id="graph0" class="graph" transform="scale(1 1) rotate(0) translate(4 102)">
<title>concepts.hpp</title>
<polygon fill="white" stroke="transparent" points="-4,4 -4,-102 223.5,-102 223.5,4 -4,4"/>
<!-- Node1 -->
<g id="node1" class="node">
<title>Node1</title>
<g id="a_node1"><a xlink:title=" ">
<polygon fill="#bfbfbf" stroke="black" points="53,-78.5 53,-97.5 134,-97.5 134,-78.5 53,-78.5"/>
<text text-anchor="middle" x="93.5" y="-85.5" font-family="Helvetica,sans-Serif" font-size="10.00">concepts.hpp</text>
</a>
</g>
</g>
<!-- Node2 -->
<g id="node2" class="node">
<title>Node2</title>
<g id="a_node2"><a xlink:title=" ">
<polygon fill="white" stroke="#bfbfbf" points="0,-11.5 0,-30.5 69,-30.5 69,-11.5 0,-11.5"/>
<text text-anchor="middle" x="34.5" y="-18.5" font-family="Helvetica,sans-Serif" font-size="10.00">Eigen/Core</text>
</a>
</g>
</g>
<!-- Node1&#45;&gt;Node2 -->
<g id="edge1" class="edge">
<title>Node1&#45;&gt;Node2</title>
<path fill="none" stroke="midnightblue" d="M85.54,-78.23C76.25,-68 60.7,-50.86 49.2,-38.19"/>
<polygon fill="midnightblue" stroke="midnightblue" points="51.64,-35.68 42.33,-30.63 46.46,-40.38 51.64,-35.68"/>
</g>
<!-- Node3 -->
<g id="node3" class="node">
<title>Node3</title>
<g id="a_node3"><a target="_parent" xlink:href="../../../cieutils/docs/html/basic__concepts_8hpp.html.html" xlink:title=" ">
<polygon fill="white" stroke="black" points="87.5,-0.5 87.5,-41.5 219.5,-41.5 219.5,-0.5 87.5,-0.5"/>
<text text-anchor="start" x="95.5" y="-29.5" font-family="Helvetica,sans-Serif" font-size="10.00">packages/compile_time</text>
<text text-anchor="start" x="95.5" y="-18.5" font-family="Helvetica,sans-Serif" font-size="10.00">/packages/concepts/inc</text>
<text text-anchor="middle" x="153.5" y="-7.5" font-family="Helvetica,sans-Serif" font-size="10.00">/basic_concepts.hpp</text>
</a>
</g>
</g>
<!-- Node1&#45;&gt;Node3 -->
<g id="edge2" class="edge">
<title>Node1&#45;&gt;Node3</title>
<path fill="none" stroke="midnightblue" d="M101.59,-78.23C108.54,-70.7 118.94,-59.44 128.61,-48.96"/>
<polygon fill="midnightblue" stroke="midnightblue" points="131.25,-51.26 135.46,-41.54 126.11,-46.52 131.25,-51.26"/>
</g>
</g>
</svg>
