<?xml version="1.0" encoding="UTF-8" standalone="no"?>
<!DOCTYPE svg PUBLIC "-//W3C//DTD SVG 1.1//EN"
 "http://www.w3.org/Graphics/SVG/1.1/DTD/svg11.dtd">
<!-- Generated by graphviz version 2.43.0 (0)
 -->
<!-- Title: DynamicEigenMatrix.hpp Pages: 1 -->
<svg width="373pt" height="196pt"
 viewBox="0.00 0.00 372.50 196.00" xmlns="http://www.w3.org/2000/svg" xmlns:xlink="http://www.w3.org/1999/xlink">
<g id="graph0" class="graph" transform="scale(1 1) rotate(0) translate(4 192)">
<title>DynamicEigenMatrix.hpp</title>
<polygon fill="white" stroke="transparent" points="-4,4 -4,-192 368.5,-192 368.5,4 -4,4"/>
<!-- Node1 -->
<g id="node1" class="node">
<title>Node1</title>
<g id="a_node1"><a xlink:title=" ">
<polygon fill="#bfbfbf" stroke="black" points="155,-168.5 155,-187.5 295,-187.5 295,-168.5 155,-168.5"/>
<text text-anchor="middle" x="225" y="-175.5" font-family="Helvetica,sans-Serif" font-size="10.00">DynamicEigenMatrix.hpp</text>
</a>
</g>
</g>
<!-- Node2 -->
<g id="node2" class="node">
<title>Node2</title>
<g id="a_node2"><a xlink:href="matrix__operators_8hpp.html" target="_top" xlink:title=" ">
<polygon fill="white" stroke="black" points="0,-112.5 0,-131.5 122,-131.5 122,-112.5 0,-112.5"/>
<text text-anchor="middle" x="61" y="-119.5" font-family="Helvetica,sans-Serif" font-size="10.00">matrix_operators.hpp</text>
</a>
</g>
</g>
<!-- Node1&#45;&gt;Node2 -->
<g id="edge1" class="edge">
<title>Node1&#45;&gt;Node2</title>
<path fill="none" stroke="midnightblue" d="M189.48,-165.3C158.58,-155.13 114.53,-140.62 86.86,-131.52"/>
<polygon fill="midnightblue" stroke="midnightblue" points="188.42,-168.64 199.01,-168.44 190.61,-161.99 188.42,-168.64"/>
</g>
<!-- Node3 -->
<g id="node3" class="node">
<title>Node3</title>
<g id="a_node3"><a xlink:href="sparse_8hpp.html" target="_top" xlink:title=" ">
<polygon fill="white" stroke="black" points="140,-112.5 140,-131.5 210,-131.5 210,-112.5 140,-112.5"/>
<text text-anchor="middle" x="175" y="-119.5" font-family="Helvetica,sans-Serif" font-size="10.00">sparse.hpp</text>
</a>
</g>
</g>
<!-- Node1&#45;&gt;Node3 -->
<g id="edge2" class="edge">
<title>Node1&#45;&gt;Node3</title>
<path fill="none" stroke="midnightblue" d="M209.92,-160.72C201.11,-151.2 190.33,-139.56 183.1,-131.75"/>
<polygon fill="midnightblue" stroke="midnightblue" points="207.38,-163.12 216.74,-168.08 212.52,-158.37 207.38,-163.12"/>
</g>
<!-- Node4 -->
<g id="node4" class="node">
<title>Node4</title>
<g id="a_node4"><a xlink:href="linalghelper_8hpp.html" target="_top" xlink:title=" ">
<polygon fill="white" stroke="black" points="228.5,-112.5 228.5,-131.5 323.5,-131.5 323.5,-112.5 228.5,-112.5"/>
<text text-anchor="middle" x="276" y="-119.5" font-family="Helvetica,sans-Serif" font-size="10.00">linalghelper.hpp</text>
</a>
</g>
</g>
<!-- Node1&#45;&gt;Node4 -->
<g id="edge3" class="edge">
<title>Node1&#45;&gt;Node4</title>
<path fill="none" stroke="midnightblue" d="M240.38,-160.72C249.37,-151.2 260.36,-139.56 267.74,-131.75"/>
<polygon fill="midnightblue" stroke="midnightblue" points="237.74,-158.41 233.42,-168.08 242.83,-163.22 237.74,-158.41"/>
</g>
<!-- Node6 -->
<g id="node6" class="node">
<title>Node6</title>
<g id="a_node6"><a xlink:href="linalgutilities_8hpp.html" target="_top" xlink:title=" ">
<polygon fill="white" stroke="black" points="263.5,-0.5 263.5,-19.5 364.5,-19.5 364.5,-0.5 263.5,-0.5"/>
<text text-anchor="middle" x="314" y="-7.5" font-family="Helvetica,sans-Serif" font-size="10.00">linalgutilities.hpp</text>
</a>
</g>
</g>
<!-- Node1&#45;&gt;Node6 -->
<g id="edge6" class="edge">
<title>Node1&#45;&gt;Node6</title>
<path fill="none" stroke="midnightblue" d="M286.27,-165.21C304.37,-158.56 322.21,-148.19 333,-132 356.94,-96.08 330.97,-41.04 319.18,-19.79"/>
<polygon fill="midnightblue" stroke="midnightblue" points="284.92,-161.97 276.53,-168.44 287.12,-168.61 284.92,-161.97"/>
</g>
<!-- Node5 -->
<g id="node5" class="node">
<title>Node5</title>
<g id="a_node5"><a xlink:href="errortypes_8hpp.html" target="_top" xlink:title=" ">
<polygon fill="white" stroke="black" points="234,-56.5 234,-75.5 322,-75.5 322,-56.5 234,-56.5"/>
<text text-anchor="middle" x="278" y="-63.5" font-family="Helvetica,sans-Serif" font-size="10.00">errortypes.hpp</text>
</a>
</g>
</g>
<!-- Node4&#45;&gt;Node5 -->
<g id="edge4" class="edge">
<title>Node4&#45;&gt;Node5</title>
<path fill="none" stroke="midnightblue" d="M276.71,-101.8C277.04,-92.91 277.42,-82.78 277.68,-75.75"/>
<polygon fill="midnightblue" stroke="midnightblue" points="273.2,-101.96 276.33,-112.08 280.2,-102.22 273.2,-101.96"/>
</g>
<!-- Node5&#45;&gt;Node6 -->
<g id="edge5" class="edge">
<title>Node5&#45;&gt;Node6</title>
<path fill="none" stroke="midnightblue" d="M289.62,-47.57C295.82,-38.27 303.17,-27.25 308.17,-19.75"/>
<polygon fill="midnightblue" stroke="midnightblue" points="286.58,-45.82 283.94,-56.08 292.4,-49.7 286.58,-45.82"/>
</g>
</g>
</svg>
