<?xml version="1.0" encoding="UTF-8" standalone="no"?>
<!DOCTYPE svg PUBLIC "-//W3C//DTD SVG 1.1//EN"
 "http://www.w3.org/Graphics/SVG/1.1/DTD/svg11.dtd">
<!-- Generated by graphviz version 2.43.0 (0)
 -->
<!-- Title: EigenArray.hpp Pages: 1 -->
<svg width="587pt" height="173pt"
 viewBox="0.00 0.00 586.50 173.00" xmlns="http://www.w3.org/2000/svg" xmlns:xlink="http://www.w3.org/1999/xlink">
<g id="graph0" class="graph" transform="scale(1 1) rotate(0) translate(4 169)">
<title>EigenArray.hpp</title>
<polygon fill="white" stroke="transparent" points="-4,4 -4,-169 582.5,-169 582.5,4 -4,4"/>
<!-- Node1 -->
<g id="node1" class="node">
<title>Node1</title>
<g id="a_node1"><a xlink:title=" ">
<polygon fill="#bfbfbf" stroke="black" points="120,-145.5 120,-164.5 209,-164.5 209,-145.5 120,-145.5"/>
<text text-anchor="middle" x="164.5" y="-152.5" font-family="Helvetica,sans-Serif" font-size="10.00">EigenArray.hpp</text>
</a>
</g>
</g>
<!-- Node2 -->
<g id="node2" class="node">
<title>Node2</title>
<g id="a_node2"><a xlink:title=" ">
<polygon fill="white" stroke="#bfbfbf" points="0,-11.5 0,-30.5 77,-30.5 77,-11.5 0,-11.5"/>
<text text-anchor="middle" x="38.5" y="-18.5" font-family="Helvetica,sans-Serif" font-size="10.00">Eigen/Dense</text>
</a>
</g>
</g>
<!-- Node1&#45;&gt;Node2 -->
<g id="edge1" class="edge">
<title>Node1&#45;&gt;Node2</title>
<path fill="none" stroke="midnightblue" d="M156.23,-145.34C135.4,-123.52 80.52,-66.03 53.7,-37.92"/>
<polygon fill="midnightblue" stroke="midnightblue" points="56.07,-35.34 46.63,-30.52 51.01,-40.17 56.07,-35.34"/>
</g>
<!-- Node3 -->
<g id="node3" class="node">
<title>Node3</title>
<g id="a_node3"><a xlink:href="EigenMatrix_8hpp.html" target="_top" xlink:title=" ">
<polygon fill="white" stroke="black" points="163,-78.5 163,-108.5 278,-108.5 278,-78.5 163,-78.5"/>
<text text-anchor="start" x="171" y="-96.5" font-family="Helvetica,sans-Serif" font-size="10.00">packages/matrix/inc</text>
<text text-anchor="middle" x="220.5" y="-85.5" font-family="Helvetica,sans-Serif" font-size="10.00">/EigenMatrix.hpp</text>
</a>
</g>
</g>
<!-- Node1&#45;&gt;Node3 -->
<g id="edge2" class="edge">
<title>Node1&#45;&gt;Node3</title>
<path fill="none" stroke="midnightblue" d="M172.52,-145.48C179.75,-137.79 190.69,-126.17 200.3,-115.96"/>
<polygon fill="midnightblue" stroke="midnightblue" points="203,-118.2 207.3,-108.52 197.9,-113.41 203,-118.2"/>
</g>
<!-- Node3&#45;&gt;Node2 -->
<g id="edge3" class="edge">
<title>Node3&#45;&gt;Node2</title>
<path fill="none" stroke="midnightblue" d="M182.24,-78.48C155.37,-68.53 118.62,-54.74 86.5,-42 80.44,-39.6 73.98,-36.96 67.83,-34.41"/>
<polygon fill="midnightblue" stroke="midnightblue" points="69.1,-31.15 58.52,-30.52 66.4,-37.61 69.1,-31.15"/>
</g>
<!-- Node4 -->
<g id="node4" class="node">
<title>Node4</title>
<g id="a_node4"><a target="_parent" xlink:href="../../../cieutils/docs/html/types_8hpp.html.html" xlink:title=" ">
<polygon fill="white" stroke="black" points="95.5,-6 95.5,-36 205.5,-36 205.5,-6 95.5,-6"/>
<text text-anchor="start" x="103.5" y="-24" font-family="Helvetica,sans-Serif" font-size="10.00">packages/types/inc</text>
<text text-anchor="middle" x="150.5" y="-13" font-family="Helvetica,sans-Serif" font-size="10.00">/types.hpp</text>
</a>
</g>
</g>
<!-- Node3&#45;&gt;Node4 -->
<g id="edge4" class="edge">
<title>Node3&#45;&gt;Node4</title>
<path fill="none" stroke="midnightblue" d="M206.33,-78.23C196.47,-68.3 183.13,-54.86 171.96,-43.61"/>
<polygon fill="midnightblue" stroke="midnightblue" points="174.17,-40.88 164.64,-36.25 169.21,-45.81 174.17,-40.88"/>
</g>
<!-- Node5 -->
<g id="node5" class="node">
<title>Node5</title>
<g id="a_node5"><a target="_parent" xlink:href="../../../cieutils/docs/html/container__concepts_8hpp.html.html" xlink:title=" ">
<polygon fill="white" stroke="black" points="224,-0.5 224,-41.5 359,-41.5 359,-0.5 224,-0.5"/>
<text text-anchor="start" x="232" y="-29.5" font-family="Helvetica,sans-Serif" font-size="10.00">packages/compile_time</text>
<text text-anchor="start" x="232" y="-18.5" font-family="Helvetica,sans-Serif" font-size="10.00">/packages/concepts/inc</text>
<text text-anchor="middle" x="291.5" y="-7.5" font-family="Helvetica,sans-Serif" font-size="10.00">/container_concepts.hpp</text>
</a>
</g>
</g>
<!-- Node3&#45;&gt;Node5 -->
<g id="edge5" class="edge">
<title>Node3&#45;&gt;Node5</title>
<path fill="none" stroke="midnightblue" d="M234.87,-78.23C243.41,-69.75 254.52,-58.72 264.63,-48.68"/>
<polygon fill="midnightblue" stroke="midnightblue" points="267.14,-51.12 271.77,-41.59 262.21,-46.15 267.14,-51.12"/>
</g>
<!-- Node6 -->
<g id="node6" class="node">
<title>Node6</title>
<g id="a_node6"><a xlink:title=" ">
<polygon fill="white" stroke="#bfbfbf" points="377,-11.5 377,-30.5 434,-30.5 434,-11.5 377,-11.5"/>
<text text-anchor="middle" x="405.5" y="-18.5" font-family="Helvetica,sans-Serif" font-size="10.00">ostream</text>
</a>
</g>
</g>
<!-- Node3&#45;&gt;Node6 -->
<g id="edge6" class="edge">
<title>Node3&#45;&gt;Node6</title>
<path fill="none" stroke="midnightblue" d="M268.26,-78.43C297.63,-69.24 335.79,-56.3 368.5,-42 372.91,-40.07 377.5,-37.81 381.89,-35.52"/>
<polygon fill="midnightblue" stroke="midnightblue" points="383.9,-38.41 391.02,-30.56 380.56,-32.26 383.9,-38.41"/>
</g>
<!-- Node7 -->
<g id="node7" class="node">
<title>Node7</title>
<g id="a_node7"><a xlink:title=" ">
<polygon fill="white" stroke="#bfbfbf" points="452.5,-6 452.5,-36 578.5,-36 578.5,-6 452.5,-6"/>
<text text-anchor="start" x="460.5" y="-24" font-family="Helvetica,sans-Serif" font-size="10.00">packages/matrix/impl</text>
<text text-anchor="middle" x="515.5" y="-13" font-family="Helvetica,sans-Serif" font-size="10.00">/EigenMatrix_impl.hpp</text>
</a>
</g>
</g>
<!-- Node3&#45;&gt;Node7 -->
<g id="edge7" class="edge">
<title>Node3&#45;&gt;Node7</title>
<path fill="none" stroke="midnightblue" d="M278.44,-80.18C323.56,-70.4 387.69,-56.06 443.5,-42 447.6,-40.97 451.83,-39.87 456.08,-38.75"/>
<polygon fill="midnightblue" stroke="midnightblue" points="457.25,-42.06 466.01,-36.09 455.44,-35.3 457.25,-42.06"/>
</g>
</g>
</svg>
