<?xml version="1.0" encoding="UTF-8" standalone="no"?>
<!DOCTYPE svg PUBLIC "-//W3C//DTD SVG 1.1//EN"
 "http://www.w3.org/Graphics/SVG/1.1/DTD/svg11.dtd">
<!-- Generated by graphviz version 2.43.0 (0)
 -->
<!-- Title: EigenMatrix.hpp Pages: 1 -->
<svg width="564pt" height="252pt"
 viewBox="0.00 0.00 563.50 252.00" xmlns="http://www.w3.org/2000/svg" xmlns:xlink="http://www.w3.org/1999/xlink">
<g id="graph0" class="graph" transform="scale(1 1) rotate(0) translate(4 248)">
<title>EigenMatrix.hpp</title>
<polygon fill="white" stroke="transparent" points="-4,4 -4,-248 559.5,-248 559.5,4 -4,4"/>
<!-- Node1 -->
<g id="node1" class="node">
<title>Node1</title>
<g id="a_node1"><a xlink:title=" ">
<polygon fill="#bfbfbf" stroke="black" points="202,-224.5 202,-243.5 298,-243.5 298,-224.5 202,-224.5"/>
<text text-anchor="middle" x="250" y="-231.5" font-family="Helvetica,sans-Serif" font-size="10.00">EigenMatrix.hpp</text>
</a>
</g>
</g>
<!-- Node2 -->
<g id="node2" class="node">
<title>Node2</title>
<g id="a_node2"><a xlink:href="DynamicEigenMatrix_8hpp.html" target="_top" xlink:title=" ">
<polygon fill="white" stroke="black" points="397,-168.5 397,-187.5 537,-187.5 537,-168.5 397,-168.5"/>
<text text-anchor="middle" x="467" y="-175.5" font-family="Helvetica,sans-Serif" font-size="10.00">DynamicEigenMatrix.hpp</text>
</a>
</g>
</g>
<!-- Node1&#45;&gt;Node2 -->
<g id="edge1" class="edge">
<title>Node1&#45;&gt;Node2</title>
<path fill="none" stroke="midnightblue" d="M294.11,-222.02C335.1,-211.82 395.3,-196.84 432.78,-187.52"/>
<polygon fill="midnightblue" stroke="midnightblue" points="293.24,-218.63 284.38,-224.44 294.93,-225.43 293.24,-218.63"/>
</g>
<!-- Node8 -->
<g id="node8" class="node">
<title>Node8</title>
<g id="a_node8"><a xlink:href="EigenArray_8hpp.html" target="_top" xlink:title=" ">
<polygon fill="white" stroke="black" points="142.5,-168.5 142.5,-187.5 231.5,-187.5 231.5,-168.5 142.5,-168.5"/>
<text text-anchor="middle" x="187" y="-175.5" font-family="Helvetica,sans-Serif" font-size="10.00">EigenArray.hpp</text>
</a>
</g>
</g>
<!-- Node1&#45;&gt;Node8 -->
<g id="edge8" class="edge">
<title>Node1&#45;&gt;Node8</title>
<path fill="none" stroke="midnightblue" d="M231.96,-217.54C220.73,-207.91 206.68,-195.87 197.31,-187.83"/>
<polygon fill="midnightblue" stroke="midnightblue" points="230.01,-220.47 239.88,-224.32 234.56,-215.16 230.01,-220.47"/>
</g>
<!-- Node9 -->
<g id="node9" class="node">
<title>Node9</title>
<g id="a_node9"><a xlink:href="SparseEigenMatrix_8hpp.html" target="_top" xlink:title=" ">
<polygon fill="white" stroke="black" points="249.5,-168.5 249.5,-187.5 378.5,-187.5 378.5,-168.5 249.5,-168.5"/>
<text text-anchor="middle" x="314" y="-175.5" font-family="Helvetica,sans-Serif" font-size="10.00">SparseEigenMatrix.hpp</text>
</a>
</g>
</g>
<!-- Node1&#45;&gt;Node9 -->
<g id="edge10" class="edge">
<title>Node1&#45;&gt;Node9</title>
<path fill="none" stroke="midnightblue" d="M267.99,-217.82C279.46,-208.15 293.91,-195.95 303.53,-187.83"/>
<polygon fill="midnightblue" stroke="midnightblue" points="265.67,-215.2 260.28,-224.32 270.18,-220.55 265.67,-215.2"/>
</g>
<!-- Node10 -->
<g id="node10" class="node">
<title>Node10</title>
<g id="a_node10"><a xlink:href="StaticEigenMatrix_8hpp.html" target="_top" xlink:title=" ">
<polygon fill="white" stroke="black" points="0,-168.5 0,-187.5 124,-187.5 124,-168.5 0,-168.5"/>
<text text-anchor="middle" x="62" y="-175.5" font-family="Helvetica,sans-Serif" font-size="10.00">StaticEigenMatrix.hpp</text>
</a>
</g>
</g>
<!-- Node1&#45;&gt;Node10 -->
<g id="edge11" class="edge">
<title>Node1&#45;&gt;Node10</title>
<path fill="none" stroke="midnightblue" d="M210.2,-221.57C174.73,-211.38 123.63,-196.7 91.65,-187.52"/>
<polygon fill="midnightblue" stroke="midnightblue" points="209.63,-225.05 220.21,-224.44 211.57,-218.32 209.63,-225.05"/>
</g>
<!-- Node3 -->
<g id="node3" class="node">
<title>Node3</title>
<g id="a_node3"><a xlink:href="matrix__operators_8hpp.html" target="_top" xlink:title=" ">
<polygon fill="white" stroke="black" points="126,-112.5 126,-131.5 248,-131.5 248,-112.5 126,-112.5"/>
<text text-anchor="middle" x="187" y="-119.5" font-family="Helvetica,sans-Serif" font-size="10.00">matrix_operators.hpp</text>
</a>
</g>
</g>
<!-- Node2&#45;&gt;Node3 -->
<g id="edge2" class="edge">
<title>Node2&#45;&gt;Node3</title>
<path fill="none" stroke="midnightblue" d="M412.75,-166.54C359.83,-156.33 280.33,-141 231.16,-131.52"/>
<polygon fill="midnightblue" stroke="midnightblue" points="412.15,-169.99 422.63,-168.44 413.48,-163.11 412.15,-169.99"/>
</g>
<!-- Node4 -->
<g id="node4" class="node">
<title>Node4</title>
<g id="a_node4"><a xlink:href="sparse_8hpp.html" target="_top" xlink:title=" ">
<polygon fill="white" stroke="black" points="331,-112.5 331,-131.5 401,-131.5 401,-112.5 331,-112.5"/>
<text text-anchor="middle" x="366" y="-119.5" font-family="Helvetica,sans-Serif" font-size="10.00">sparse.hpp</text>
</a>
</g>
</g>
<!-- Node2&#45;&gt;Node4 -->
<g id="edge3" class="edge">
<title>Node2&#45;&gt;Node4</title>
<path fill="none" stroke="midnightblue" d="M441.92,-163.59C423.24,-153.61 398.3,-140.27 382.19,-131.65"/>
<polygon fill="midnightblue" stroke="midnightblue" points="440.3,-166.7 450.77,-168.32 443.6,-160.52 440.3,-166.7"/>
</g>
<!-- Node5 -->
<g id="node5" class="node">
<title>Node5</title>
<g id="a_node5"><a xlink:href="linalghelper_8hpp.html" target="_top" xlink:title=" ">
<polygon fill="white" stroke="black" points="419.5,-112.5 419.5,-131.5 514.5,-131.5 514.5,-112.5 419.5,-112.5"/>
<text text-anchor="middle" x="467" y="-119.5" font-family="Helvetica,sans-Serif" font-size="10.00">linalghelper.hpp</text>
</a>
</g>
</g>
<!-- Node2&#45;&gt;Node5 -->
<g id="edge4" class="edge">
<title>Node2&#45;&gt;Node5</title>
<path fill="none" stroke="midnightblue" d="M467,-157.8C467,-148.91 467,-138.78 467,-131.75"/>
<polygon fill="midnightblue" stroke="midnightblue" points="463.5,-158.08 467,-168.08 470.5,-158.08 463.5,-158.08"/>
</g>
<!-- Node7 -->
<g id="node7" class="node">
<title>Node7</title>
<g id="a_node7"><a xlink:href="linalgutilities_8hpp.html" target="_top" xlink:title=" ">
<polygon fill="white" stroke="black" points="454.5,-0.5 454.5,-19.5 555.5,-19.5 555.5,-0.5 454.5,-0.5"/>
<text text-anchor="middle" x="505" y="-7.5" font-family="Helvetica,sans-Serif" font-size="10.00">linalgutilities.hpp</text>
</a>
</g>
</g>
<!-- Node2&#45;&gt;Node7 -->
<g id="edge7" class="edge">
<title>Node2&#45;&gt;Node7</title>
<path fill="none" stroke="midnightblue" d="M493.67,-163.22C505.25,-155.7 517.6,-145.2 524,-132 542.73,-93.35 520.07,-40.36 509.68,-19.72"/>
<polygon fill="midnightblue" stroke="midnightblue" points="491.84,-160.23 485.08,-168.39 495.45,-166.23 491.84,-160.23"/>
</g>
<!-- Node6 -->
<g id="node6" class="node">
<title>Node6</title>
<g id="a_node6"><a xlink:href="errortypes_8hpp.html" target="_top" xlink:title=" ">
<polygon fill="white" stroke="black" points="425,-56.5 425,-75.5 513,-75.5 513,-56.5 425,-56.5"/>
<text text-anchor="middle" x="469" y="-63.5" font-family="Helvetica,sans-Serif" font-size="10.00">errortypes.hpp</text>
</a>
</g>
</g>
<!-- Node5&#45;&gt;Node6 -->
<g id="edge5" class="edge">
<title>Node5&#45;&gt;Node6</title>
<path fill="none" stroke="midnightblue" d="M467.71,-101.8C468.04,-92.91 468.42,-82.78 468.68,-75.75"/>
<polygon fill="midnightblue" stroke="midnightblue" points="464.2,-101.96 467.33,-112.08 471.2,-102.22 464.2,-101.96"/>
</g>
<!-- Node6&#45;&gt;Node7 -->
<g id="edge6" class="edge">
<title>Node6&#45;&gt;Node7</title>
<path fill="none" stroke="midnightblue" d="M480.62,-47.57C486.82,-38.27 494.17,-27.25 499.17,-19.75"/>
<polygon fill="midnightblue" stroke="midnightblue" points="477.58,-45.82 474.94,-56.08 483.4,-49.7 477.58,-45.82"/>
</g>
<!-- Node8&#45;&gt;Node3 -->
<g id="edge9" class="edge">
<title>Node8&#45;&gt;Node3</title>
<path fill="none" stroke="midnightblue" d="M187,-157.8C187,-148.91 187,-138.78 187,-131.75"/>
<polygon fill="midnightblue" stroke="midnightblue" points="183.5,-158.08 187,-168.08 190.5,-158.08 183.5,-158.08"/>
</g>
<!-- Node10&#45;&gt;Node3 -->
<g id="edge12" class="edge">
<title>Node10&#45;&gt;Node3</title>
<path fill="none" stroke="midnightblue" d="M91.24,-164.37C114.65,-154.26 146.84,-140.35 167.29,-131.52"/>
<polygon fill="midnightblue" stroke="midnightblue" points="89.6,-161.26 81.81,-168.44 92.37,-167.69 89.6,-161.26"/>
</g>
</g>
</svg>
