<?xml version="1.0" encoding="UTF-8" standalone="no"?>
<!DOCTYPE svg PUBLIC "-//W3C//DTD SVG 1.1//EN"
 "http://www.w3.org/Graphics/SVG/1.1/DTD/svg11.dtd">
<!-- Generated by graphviz version 2.43.0 (0)
 -->
<!-- Title: EigenArray.hpp Pages: 1 -->
<svg width="587pt" height="170pt"
 viewBox="0.00 0.00 586.50 170.00" xmlns="http://www.w3.org/2000/svg" xmlns:xlink="http://www.w3.org/1999/xlink">
<g id="graph0" class="graph" transform="scale(1 1) rotate(0) translate(4 166)">
<title>EigenArray.hpp</title>
<!-- Node1 -->
<g id="Node000001" class="node">
<title>Node1</title>
<g id="a_Node000001"><a xlink:title=" ">
<polygon fill="#999999" stroke="#666666" points="209,-162 120,-162 120,-143 209,-143 209,-162"/>
<text text-anchor="middle" x="164.5" y="-150" font-family="Helvetica,sans-Serif" font-size="10.00">EigenArray.hpp</text>
</a>
</g>
</g>
<!-- Node2 -->
<g id="Node000002" class="node">
<title>Node2</title>
<g id="a_Node000002"><a xlink:title=" ">
<polygon fill="#e0e0e0" stroke="#999999" points="77,-30 0,-30 0,-11 77,-11 77,-30"/>
<text text-anchor="middle" x="38.5" y="-18" font-family="Helvetica,sans-Serif" font-size="10.00">Eigen/Dense</text>
</a>
</g>
</g>
<!-- Node1&#45;&gt;Node2 -->
<g id="edge1_Node000001_Node000002" class="edge">
<title>Node1&#45;&gt;Node2</title>
<g id="a_edge1_Node000001_Node000002"><a xlink:title=" ">
<path fill="none" stroke="#63b8ff" d="M156.23,-142.97C135.5,-121.58 81.05,-65.4 54.09,-37.58"/>
<polygon fill="#63b8ff" stroke="#63b8ff" points="56.44,-34.98 46.96,-30.23 51.41,-39.85 56.44,-34.98"/>
</a>
</g>
</g>
<!-- Node3 -->
<g id="Node000003" class="node">
<title>Node3</title>
<g id="a_Node000003"><a xlink:href="EigenMatrix_8hpp.html" target="_top" xlink:title=" ">
<polygon fill="white" stroke="#666666" points="278,-107 163,-107 163,-77 278,-77 278,-107"/>
<text text-anchor="start" x="171" y="-95" font-family="Helvetica,sans-Serif" font-size="10.00">packages/matrix/inc</text>
<text text-anchor="middle" x="220.5" y="-84" font-family="Helvetica,sans-Serif" font-size="10.00">/EigenMatrix.hpp</text>
</a>
</g>
</g>
<!-- Node1&#45;&gt;Node3 -->
<g id="edge2_Node000001_Node000003" class="edge">
<title>Node1&#45;&gt;Node3</title>
<g id="a_edge2_Node000001_Node000003"><a xlink:title=" ">
<path fill="none" stroke="#63b8ff" d="M172.76,-142.87C179.87,-135.44 190.43,-124.42 199.81,-114.62"/>
<polygon fill="#63b8ff" stroke="#63b8ff" points="202.6,-116.76 206.99,-107.11 197.55,-111.92 202.6,-116.76"/>
</a>
</g>
</g>
<!-- Node3&#45;&gt;Node2 -->
<g id="edge3_Node000003_Node000002" class="edge">
<title>Node3&#45;&gt;Node2</title>
<g id="a_edge3_Node000003_Node000002"><a xlink:title=" ">
<path fill="none" stroke="#63b8ff" d="M181.98,-76.96C155.14,-67.1 118.54,-53.48 86.5,-41 80.81,-38.78 74.76,-36.37 68.94,-34.02"/>
<polygon fill="#63b8ff" stroke="#63b8ff" points="70.06,-30.7 59.48,-30.17 67.42,-37.18 70.06,-30.7"/>
</a>
</g>
</g>
<!-- Node4 -->
<g id="Node000004" class="node">
<title>Node4</title>
<g id="a_Node000004"><a target="_parent" xlink:href="../../../cieutils/docs/html/types_8hpp.html" xlink:title=" ">
<polygon fill="white" stroke="#666666" points="205.5,-35.5 95.5,-35.5 95.5,-5.5 205.5,-5.5 205.5,-35.5"/>
<text text-anchor="start" x="103.5" y="-23.5" font-family="Helvetica,sans-Serif" font-size="10.00">packages/types/inc</text>
<text text-anchor="middle" x="150.5" y="-12.5" font-family="Helvetica,sans-Serif" font-size="10.00">/types.hpp</text>
</a>
</g>
</g>
<!-- Node3&#45;&gt;Node4 -->
<g id="edge4_Node000003_Node000004" class="edge">
<title>Node3&#45;&gt;Node4</title>
<g id="a_edge4_Node000003_Node000004"><a xlink:title=" ">
<path fill="none" stroke="#63b8ff" d="M206.33,-76.94C196.47,-67.14 183.13,-53.89 171.96,-42.81"/>
<polygon fill="#63b8ff" stroke="#63b8ff" points="174.21,-40.11 164.64,-35.54 169.27,-45.07 174.21,-40.11"/>
</a>
</g>
</g>
<!-- Node5 -->
<g id="Node000005" class="node">
<title>Node5</title>
<g id="a_Node000005"><a target="_parent" xlink:href="../../../cieutils/docs/html/container__concepts_8hpp.html" xlink:title=" ">
<polygon fill="white" stroke="#666666" points="359,-41 224,-41 224,0 359,0 359,-41"/>
<text text-anchor="start" x="232" y="-29" font-family="Helvetica,sans-Serif" font-size="10.00">packages/compile_time</text>
<text text-anchor="start" x="232" y="-18" font-family="Helvetica,sans-Serif" font-size="10.00">/packages/concepts/inc</text>
<text text-anchor="middle" x="291.5" y="-7" font-family="Helvetica,sans-Serif" font-size="10.00">/container_concepts.hpp</text>
</a>
</g>
</g>
<!-- Node3&#45;&gt;Node5 -->
<g id="edge5_Node000003_Node000005" class="edge">
<title>Node3&#45;&gt;Node5</title>
<g id="a_edge5_Node000003_Node000005"><a xlink:title=" ">
<path fill="none" stroke="#63b8ff" d="M234.87,-76.94C243.26,-68.72 254.14,-58.07 264.11,-48.31"/>
<polygon fill="#63b8ff" stroke="#63b8ff" points="266.81,-50.57 271.5,-41.07 261.91,-45.57 266.81,-50.57"/>
</a>
</g>
</g>
<!-- Node6 -->
<g id="Node000006" class="node">
<title>Node6</title>
<g id="a_Node000006"><a xlink:title=" ">
<polygon fill="#e0e0e0" stroke="#999999" points="434,-30 377,-30 377,-11 434,-11 434,-30"/>
<text text-anchor="middle" x="405.5" y="-18" font-family="Helvetica,sans-Serif" font-size="10.00">ostream</text>
</a>
</g>
</g>
<!-- Node3&#45;&gt;Node6 -->
<g id="edge6_Node000003_Node000006" class="edge">
<title>Node3&#45;&gt;Node6</title>
<g id="a_edge6_Node000003_Node000006"><a xlink:title=" ">
<path fill="none" stroke="#63b8ff" d="M268.55,-76.9C297.86,-67.78 335.85,-55.01 368.5,-41 372.82,-39.15 377.32,-36.98 381.64,-34.78"/>
<polygon fill="#63b8ff" stroke="#63b8ff" points="383.44,-37.79 390.64,-30.02 380.17,-31.6 383.44,-37.79"/>
</a>
</g>
</g>
<!-- Node7 -->
<g id="Node000007" class="node">
<title>Node7</title>
<g id="a_Node000007"><a xlink:title=" ">
<polygon fill="#e0e0e0" stroke="#999999" points="578.5,-35.5 452.5,-35.5 452.5,-5.5 578.5,-5.5 578.5,-35.5"/>
<text text-anchor="start" x="460.5" y="-23.5" font-family="Helvetica,sans-Serif" font-size="10.00">packages/matrix/impl</text>
<text text-anchor="middle" x="515.5" y="-12.5" font-family="Helvetica,sans-Serif" font-size="10.00">/EigenMatrix_impl.hpp</text>
</a>
</g>
</g>
<!-- Node3&#45;&gt;Node7 -->
<g id="edge7_Node000003_Node000007" class="edge">
<title>Node3&#45;&gt;Node7</title>
<g id="a_edge7_Node000003_Node000007"><a xlink:title=" ">
<path fill="none" stroke="#63b8ff" d="M278.42,-78.74C323.53,-69.02 387.65,-54.82 443.5,-41 447.28,-40.06 451.17,-39.08 455.08,-38.07"/>
<polygon fill="#63b8ff" stroke="#63b8ff" points="456.04,-41.44 464.83,-35.52 454.27,-34.67 456.04,-41.44"/>
</a>
</g>
</g>
</g>
</svg>
