<?xml version="1.0" encoding="UTF-8" standalone="no"?>
<!DOCTYPE svg PUBLIC "-//W3C//DTD SVG 1.1//EN"
 "http://www.w3.org/Graphics/SVG/1.1/DTD/svg11.dtd">
<!-- Generated by graphviz version 2.43.0 (0)
 -->
<!-- Title: linalghelper.hpp Pages: 1 -->
<svg width="873pt" height="236pt"
 viewBox="0.00 0.00 872.50 236.00" xmlns="http://www.w3.org/2000/svg" xmlns:xlink="http://www.w3.org/1999/xlink">
<g id="graph0" class="graph" transform="scale(1 1) rotate(0) translate(4 232)">
<title>linalghelper.hpp</title>
<!-- Node1 -->
<g id="Node000001" class="node">
<title>Node1</title>
<g id="a_Node000001"><a xlink:title=" ">
<polygon fill="#999999" stroke="#666666" points="528,-228 433,-228 433,-209 528,-209 528,-228"/>
<text text-anchor="middle" x="480.5" y="-216" font-family="Helvetica,sans-Serif" font-size="10.00">linalghelper.hpp</text>
</a>
</g>
</g>
<!-- Node2 -->
<g id="Node000002" class="node">
<title>Node2</title>
<g id="a_Node000002"><a target="_parent" xlink:href="../../../cieutils/docs/html/container__concepts_8hpp.html" xlink:title=" ">
<polygon fill="white" stroke="#666666" points="135,-41 0,-41 0,0 135,0 135,-41"/>
<text text-anchor="start" x="8" y="-29" font-family="Helvetica,sans-Serif" font-size="10.00">packages/compile_time</text>
<text text-anchor="start" x="8" y="-18" font-family="Helvetica,sans-Serif" font-size="10.00">/packages/concepts/inc</text>
<text text-anchor="middle" x="67.5" y="-7" font-family="Helvetica,sans-Serif" font-size="10.00">/container_concepts.hpp</text>
</a>
</g>
</g>
<!-- Node1&#45;&gt;Node2 -->
<g id="edge1_Node000001_Node000002" class="edge">
<title>Node1&#45;&gt;Node2</title>
<g id="a_edge1_Node000001_Node000002"><a xlink:title=" ">
<path fill="none" stroke="#63b8ff" d="M432.93,-217.11C380.29,-214.91 294.22,-205.96 228.5,-173 168.79,-143.05 115.85,-83.8 88.08,-48.93"/>
<polygon fill="#63b8ff" stroke="#63b8ff" points="90.82,-46.75 81.89,-41.04 85.31,-51.07 90.82,-46.75"/>
</a>
</g>
</g>
<!-- Node3 -->
<g id="Node000003" class="node">
<title>Node3</title>
<g id="a_Node000003"><a target="_parent" xlink:href="../../../cieutils/docs/html/types_8hpp.html" xlink:title=" ">
<polygon fill="white" stroke="#666666" points="263.5,-35.5 153.5,-35.5 153.5,-5.5 263.5,-5.5 263.5,-35.5"/>
<text text-anchor="start" x="161.5" y="-23.5" font-family="Helvetica,sans-Serif" font-size="10.00">packages/types/inc</text>
<text text-anchor="middle" x="208.5" y="-12.5" font-family="Helvetica,sans-Serif" font-size="10.00">/types.hpp</text>
</a>
</g>
</g>
<!-- Node1&#45;&gt;Node3 -->
<g id="edge2_Node000001_Node000003" class="edge">
<title>Node1&#45;&gt;Node3</title>
<g id="a_edge2_Node000001_Node000003"><a xlink:title=" ">
<path fill="none" stroke="#63b8ff" d="M432.98,-213.84C374.62,-208.4 280.19,-196.24 254.5,-173 218.23,-140.2 210.16,-79.83 208.61,-46.05"/>
<polygon fill="#63b8ff" stroke="#63b8ff" points="212.09,-45.58 208.3,-35.68 205.1,-45.78 212.09,-45.58"/>
</a>
</g>
</g>
<!-- Node4 -->
<g id="Node000004" class="node">
<title>Node4</title>
<g id="a_Node000004"><a xlink:href="vectortypes_8hpp.html" target="_top" xlink:title=" ">
<polygon fill="white" stroke="#666666" points="535.5,-173 425.5,-173 425.5,-143 535.5,-143 535.5,-173"/>
<text text-anchor="start" x="433.5" y="-161" font-family="Helvetica,sans-Serif" font-size="10.00">packages/types/inc</text>
<text text-anchor="middle" x="480.5" y="-150" font-family="Helvetica,sans-Serif" font-size="10.00">/vectortypes.hpp</text>
</a>
</g>
</g>
<!-- Node1&#45;&gt;Node4 -->
<g id="edge3_Node000001_Node000004" class="edge">
<title>Node1&#45;&gt;Node4</title>
<g id="a_edge3_Node000001_Node000004"><a xlink:title=" ">
<path fill="none" stroke="#63b8ff" d="M480.5,-208.87C480.5,-202.11 480.5,-192.35 480.5,-183.26"/>
<polygon fill="#63b8ff" stroke="#63b8ff" points="484,-183.11 480.5,-173.11 477,-183.11 484,-183.11"/>
</a>
</g>
</g>
<!-- Node7 -->
<g id="Node000007" class="node">
<title>Node7</title>
<g id="a_Node000007"><a xlink:href="DynamicEigenMatrix_8hpp.html" target="_top" xlink:title=" ">
<polygon fill="white" stroke="#666666" points="407,-173 264,-173 264,-143 407,-143 407,-173"/>
<text text-anchor="start" x="272" y="-161" font-family="Helvetica,sans-Serif" font-size="10.00">packages/matrix/inc</text>
<text text-anchor="middle" x="335.5" y="-150" font-family="Helvetica,sans-Serif" font-size="10.00">/DynamicEigenMatrix.hpp</text>
</a>
</g>
</g>
<!-- Node1&#45;&gt;Node7 -->
<g id="edge6_Node000001_Node000007" class="edge">
<title>Node1&#45;&gt;Node7</title>
<g id="a_edge6_Node000001_Node000007"><a xlink:title=" ">
<path fill="none" stroke="#63b8ff" d="M459.42,-208.99C438.64,-200.61 406.26,-187.55 379.8,-176.87"/>
<polygon fill="#63b8ff" stroke="#63b8ff" points="380.94,-173.56 370.36,-173.06 378.32,-180.05 380.94,-173.56"/>
</a>
</g>
</g>
<!-- Node12 -->
<g id="Node000012" class="node">
<title>Node12</title>
<g id="a_Node000012"><a xlink:title=" ">
<polygon fill="#e0e0e0" stroke="#999999" points="613.5,-167.5 553.5,-167.5 553.5,-148.5 613.5,-148.5 613.5,-167.5"/>
<text text-anchor="middle" x="583.5" y="-155.5" font-family="Helvetica,sans-Serif" font-size="10.00">iostream</text>
</a>
</g>
</g>
<!-- Node1&#45;&gt;Node12 -->
<g id="edge14_Node000001_Node000012" class="edge">
<title>Node1&#45;&gt;Node12</title>
<g id="a_edge14_Node000001_Node000012"><a xlink:title=" ">
<path fill="none" stroke="#63b8ff" d="M495.7,-208.87C512.51,-199.32 539.82,-183.81 559.52,-172.62"/>
<polygon fill="#63b8ff" stroke="#63b8ff" points="561.27,-175.65 568.24,-167.67 557.82,-169.56 561.27,-175.65"/>
</a>
</g>
</g>
<!-- Node13 -->
<g id="Node000013" class="node">
<title>Node13</title>
<g id="a_Node000013"><a xlink:title=" ">
<polygon fill="#e0e0e0" stroke="#999999" points="697,-167.5 632,-167.5 632,-148.5 697,-148.5 697,-167.5"/>
<text text-anchor="middle" x="664.5" y="-155.5" font-family="Helvetica,sans-Serif" font-size="10.00">stdexcept</text>
</a>
</g>
</g>
<!-- Node1&#45;&gt;Node13 -->
<g id="edge15_Node000001_Node000013" class="edge">
<title>Node1&#45;&gt;Node13</title>
<g id="a_edge15_Node000001_Node000013"><a xlink:title=" ">
<path fill="none" stroke="#63b8ff" d="M508.3,-208.95C536.96,-200.1 582.92,-185.8 622.5,-173 624.78,-172.26 627.13,-171.5 629.5,-170.72"/>
<polygon fill="#63b8ff" stroke="#63b8ff" points="630.81,-173.97 639.21,-167.51 628.61,-167.33 630.81,-173.97"/>
</a>
</g>
</g>
<!-- Node14 -->
<g id="Node000014" class="node">
<title>Node14</title>
<g id="a_Node000014"><a xlink:title=" ">
<polygon fill="#e0e0e0" stroke="#999999" points="864.5,-173 714.5,-173 714.5,-143 864.5,-143 864.5,-173"/>
<text text-anchor="start" x="722.5" y="-161" font-family="Helvetica,sans-Serif" font-size="10.00">packages/utilities</text>
<text text-anchor="middle" x="789.5" y="-150" font-family="Helvetica,sans-Serif" font-size="10.00">/impl/linalghelper_impl.hpp</text>
</a>
</g>
</g>
<!-- Node1&#45;&gt;Node14 -->
<g id="edge16_Node000001_Node000014" class="edge">
<title>Node1&#45;&gt;Node14</title>
<g id="a_edge16_Node000001_Node000014"><a xlink:title=" ">
<path fill="none" stroke="#63b8ff" d="M525.43,-208.99C572.5,-200.08 647.54,-185.88 705.61,-174.88"/>
<polygon fill="#63b8ff" stroke="#63b8ff" points="706.34,-178.31 715.51,-173.01 705.03,-171.43 706.34,-178.31"/>
</a>
</g>
</g>
<!-- Node5 -->
<g id="Node000005" class="node">
<title>Node5</title>
<g id="a_Node000005"><a xlink:title=" ">
<polygon fill="#e0e0e0" stroke="#999999" points="503,-101.5 456,-101.5 456,-82.5 503,-82.5 503,-101.5"/>
<text text-anchor="middle" x="479.5" y="-89.5" font-family="Helvetica,sans-Serif" font-size="10.00">vector</text>
</a>
</g>
</g>
<!-- Node4&#45;&gt;Node5 -->
<g id="edge4_Node000004_Node000005" class="edge">
<title>Node4&#45;&gt;Node5</title>
<g id="a_edge4_Node000004_Node000005"><a xlink:title=" ">
<path fill="none" stroke="#63b8ff" d="M480.28,-142.8C480.14,-133.7 479.95,-121.79 479.8,-111.9"/>
<polygon fill="#63b8ff" stroke="#63b8ff" points="483.29,-111.79 479.64,-101.84 476.29,-111.9 483.29,-111.79"/>
</a>
</g>
</g>
<!-- Node6 -->
<g id="Node000006" class="node">
<title>Node6</title>
<g id="a_Node000006"><a xlink:title=" ">
<polygon fill="#e0e0e0" stroke="#999999" points="574,-101.5 521,-101.5 521,-82.5 574,-82.5 574,-101.5"/>
<text text-anchor="middle" x="547.5" y="-89.5" font-family="Helvetica,sans-Serif" font-size="10.00">stdint.h</text>
</a>
</g>
</g>
<!-- Node4&#45;&gt;Node6 -->
<g id="edge5_Node000004_Node000006" class="edge">
<title>Node4&#45;&gt;Node6</title>
<g id="a_edge5_Node000004_Node000006"><a xlink:title=" ">
<path fill="none" stroke="#63b8ff" d="M495.37,-142.8C505.92,-132.72 520.08,-119.19 530.98,-108.78"/>
<polygon fill="#63b8ff" stroke="#63b8ff" points="533.43,-111.28 538.24,-101.84 528.59,-106.22 533.43,-111.28"/>
</a>
</g>
</g>
<!-- Node8 -->
<g id="Node000008" class="node">
<title>Node8</title>
<g id="a_Node000008"><a xlink:title=" ">
<polygon fill="#e0e0e0" stroke="#999999" points="578,-30 501,-30 501,-11 578,-11 578,-30"/>
<text text-anchor="middle" x="539.5" y="-18" font-family="Helvetica,sans-Serif" font-size="10.00">Eigen/Dense</text>
</a>
</g>
</g>
<!-- Node7&#45;&gt;Node8 -->
<g id="edge7_Node000007_Node000008" class="edge">
<title>Node7&#45;&gt;Node8</title>
<g id="a_edge7_Node000007_Node000008"><a xlink:title=" ">
<path fill="none" stroke="#63b8ff" d="M354.01,-142.91C375.77,-126.52 413.15,-98.91 446.5,-77 469.35,-61.99 496.25,-46.12 515.23,-35.21"/>
<polygon fill="#63b8ff" stroke="#63b8ff" points="517.16,-38.14 524.11,-30.14 513.69,-32.06 517.16,-38.14"/>
</a>
</g>
</g>
<!-- Node9 -->
<g id="Node000009" class="node">
<title>Node9</title>
<g id="a_Node000009"><a xlink:href="EigenMatrix_8hpp.html" target="_top" xlink:title=" ">
<polygon fill="white" stroke="#666666" points="394,-107 279,-107 279,-77 394,-77 394,-107"/>
<text text-anchor="start" x="287" y="-95" font-family="Helvetica,sans-Serif" font-size="10.00">packages/matrix/inc</text>
<text text-anchor="middle" x="336.5" y="-84" font-family="Helvetica,sans-Serif" font-size="10.00">/EigenMatrix.hpp</text>
</a>
</g>
</g>
<!-- Node7&#45;&gt;Node9 -->
<g id="edge8_Node000007_Node000009" class="edge">
<title>Node7&#45;&gt;Node9</title>
<g id="a_edge8_Node000007_Node000009"><a xlink:title=" ">
<path fill="none" stroke="#63b8ff" d="M335.72,-142.8C335.84,-135.34 335.98,-125.99 336.12,-117.41"/>
<polygon fill="#63b8ff" stroke="#63b8ff" points="339.62,-117.22 336.28,-107.16 332.62,-117.11 339.62,-117.22"/>
</a>
</g>
</g>
<!-- Node9&#45;&gt;Node2 -->
<g id="edge11_Node000009_Node000002" class="edge">
<title>Node9&#45;&gt;Node2</title>
<g id="a_edge11_Node000009_Node000002"><a xlink:title=" ">
<path fill="none" stroke="#63b8ff" d="M282.06,-76.94C242.67,-66.76 188.87,-52.86 145,-41.52"/>
<polygon fill="#63b8ff" stroke="#63b8ff" points="145.79,-38.11 135.23,-39 144.03,-44.89 145.79,-38.11"/>
</a>
</g>
</g>
<!-- Node9&#45;&gt;Node3 -->
<g id="edge10_Node000009_Node000003" class="edge">
<title>Node9&#45;&gt;Node3</title>
<g id="a_edge10_Node000009_Node000003"><a xlink:title=" ">
<path fill="none" stroke="#63b8ff" d="M310.6,-76.94C291.25,-66.43 264.61,-51.96 243.39,-40.44"/>
<polygon fill="#63b8ff" stroke="#63b8ff" points="244.82,-37.24 234.36,-35.54 241.48,-43.39 244.82,-37.24"/>
</a>
</g>
</g>
<!-- Node9&#45;&gt;Node8 -->
<g id="edge9_Node000009_Node000008" class="edge">
<title>Node9&#45;&gt;Node8</title>
<g id="a_edge9_Node000009_Node000008"><a xlink:title=" ">
<path fill="none" stroke="#63b8ff" d="M383.95,-76.91C415.04,-67.41 456.46,-54.23 492.5,-41 498.34,-38.86 504.53,-36.41 510.43,-34"/>
<polygon fill="#63b8ff" stroke="#63b8ff" points="512.09,-37.1 519.98,-30.03 509.4,-30.64 512.09,-37.1"/>
</a>
</g>
</g>
<!-- Node10 -->
<g id="Node000010" class="node">
<title>Node10</title>
<g id="a_Node000010"><a xlink:title=" ">
<polygon fill="#e0e0e0" stroke="#999999" points="483,-30 426,-30 426,-11 483,-11 483,-30"/>
<text text-anchor="middle" x="454.5" y="-18" font-family="Helvetica,sans-Serif" font-size="10.00">ostream</text>
</a>
</g>
</g>
<!-- Node9&#45;&gt;Node10 -->
<g id="edge12_Node000009_Node000010" class="edge">
<title>Node9&#45;&gt;Node10</title>
<g id="a_edge12_Node000009_Node000010"><a xlink:title=" ">
<path fill="none" stroke="#63b8ff" d="M360.38,-76.94C381.05,-64.76 410.77,-47.26 431.26,-35.19"/>
<polygon fill="#63b8ff" stroke="#63b8ff" points="433.11,-38.16 439.95,-30.07 429.56,-32.13 433.11,-38.16"/>
</a>
</g>
</g>
<!-- Node11 -->
<g id="Node000011" class="node">
<title>Node11</title>
<g id="a_Node000011"><a xlink:title=" ">
<polygon fill="#e0e0e0" stroke="#999999" points="407.5,-35.5 281.5,-35.5 281.5,-5.5 407.5,-5.5 407.5,-35.5"/>
<text text-anchor="start" x="289.5" y="-23.5" font-family="Helvetica,sans-Serif" font-size="10.00">packages/matrix/impl</text>
<text text-anchor="middle" x="344.5" y="-12.5" font-family="Helvetica,sans-Serif" font-size="10.00">/EigenMatrix_impl.hpp</text>
</a>
</g>
</g>
<!-- Node9&#45;&gt;Node11 -->
<g id="edge13_Node000009_Node000011" class="edge">
<title>Node9&#45;&gt;Node11</title>
<g id="a_edge13_Node000009_Node000011"><a xlink:title=" ">
<path fill="none" stroke="#63b8ff" d="M338.12,-76.94C339.15,-67.99 340.51,-56.16 341.71,-45.73"/>
<polygon fill="#63b8ff" stroke="#63b8ff" points="345.22,-45.88 342.88,-35.54 338.26,-45.08 345.22,-45.88"/>
</a>
</g>
</g>
</g>
</svg>
