<?xml version="1.0" encoding="UTF-8" standalone="no"?>
<!DOCTYPE svg PUBLIC "-//W3C//DTD SVG 1.1//EN"
 "http://www.w3.org/Graphics/SVG/1.1/DTD/svg11.dtd">
<!-- Generated by graphviz version 2.43.0 (0)
 -->
<!-- Title: linalgutilities.hpp Pages: 1 -->
<!--zoomable 368 -->

<svg id="main" version="1.1" xmlns="http://www.w3.org/2000/svg" xmlns:xlink="http://www.w3.org/1999/xlink" xml:space="preserve" onload="init(evt)">
<style type="text/css"><![CDATA[
.node, .edge {opacity: 0.7;}
.node.selected, .edge.selected {opacity: 1;}
.edge:hover path { stroke: red; }
.edge:hover polygon { stroke: red; fill: red; }
]]></style>

<defs>
  <circle id="rim" cx="0" cy="0" r="7"/>
  <circle id="rim2" cx="0" cy="0" r="3.5"/>
  <g id="zoomPlus">
    <use xlink:href="#rim" fill="#404040"><set attributeName="fill" to="#808080" begin="zoomplus.mouseover" end="zoomplus.mouseout"/></use>
    <path d="M-4,0h8M0,-4v8" fill="none" stroke="white" stroke-width="1.5" pointer-events="none"/>
  </g>
  <g id="zoomMin">
    <use xlink:href="#rim" fill="#404040"><set attributeName="fill" to="#808080" begin="zoomminus.mouseover" end="zoomminus.mouseout"/></use>
    <path d="M-4,0h8" fill="none" stroke="white" stroke-width="1.5" pointer-events="none"/>
  </g>
  <g id="arrowUp" transform="translate(30 24)">
    <use xlink:href="#rim"/>
    <path pointer-events="none" fill="none" stroke="white" stroke-width="1.5" d="M0,-3.0v7 M-2.5,-0.5L0,-3.0L2.5,-0.5"/>
  </g>
  <g id="arrowRight" transform="rotate(90) translate(36 -43)">
    <use xlink:href="#rim"/>
    <path pointer-events="none" fill="none" stroke="white" stroke-width="1.5" d="M0,-3.0v7 M-2.5,-0.5L0,-3.0L2.5,-0.5"/>
  </g>
  <g id="arrowDown" transform="rotate(180) translate(-30 -48)">
    <use xlink:href="#rim"/>
    <path pointer-events="none" fill="none" stroke="white" stroke-width="1.5" d="M0,-3.0v7 M-2.5,-0.5L0,-3.0L2.5,-0.5"/>
  </g>
  <g id="arrowLeft" transform="rotate(270) translate(-36 17)">
    <use xlink:href="#rim"/>
    <path pointer-events="none" fill="none" stroke="white" stroke-width="1.5" d="M0,-3.0v7 M-2.5,-0.5L0,-3.0L2.5,-0.5"/>
  </g>
  <g id="resetDef">
    <use xlink:href="#rim2" fill="#404040"><set attributeName="fill" to="#808080" begin="reset.mouseover" end="reset.mouseout"/></use>
  </g>
</defs>
<script type="application/ecmascript">
var viewWidth = 877;
var viewHeight = 368;
var sectionId = 'dynsection-0';
</script>
<script type="application/ecmascript" xlink:href="svg.min.js"/>
<svg id="graph" class="graph">
<g id="viewport">
<title>linalgutilities.hpp</title>
<!-- Node1 -->
<g id="Node000001" class="node">
<title>Node1</title>
<g id="a_Node000001"><a xlink:title=" ">
<polygon fill="#999999" stroke="#666666" points="520,-360 419,-360 419,-341 520,-341 520,-360"/>
<text text-anchor="middle" x="469.5" y="-348" font-family="Helvetica,sans-Serif" font-size="10.00">linalgutilities.hpp</text>
</a>
</g>
</g>
<!-- Node2 -->
<g id="Node000002" class="node">
<title>Node2</title>
<g id="a_Node000002"><a target="_parent" xlink:href="../../../cieutils/docs/html/types_8hpp.html" xlink:title=" ">
<polygon fill="white" stroke="#666666" points="732.5,-35.5 622.5,-35.5 622.5,-5.5 732.5,-5.5 732.5,-35.5"/>
<text text-anchor="start" x="630.5" y="-23.5" font-family="Helvetica,sans-Serif" font-size="10.00">packages/types/inc</text>
<text text-anchor="middle" x="677.5" y="-12.5" font-family="Helvetica,sans-Serif" font-size="10.00">/types.hpp</text>
</a>
</g>
</g>
<!-- Node1&#45;&gt;Node2 -->
<g id="edge1_Node000001_Node000002" class="edge">
<title>Node1&#45;&gt;Node2</title>
<g id="a_edge1_Node000001_Node000002"><a xlink:title=" ">
<path fill="none" stroke="#63b8ff" d="M520.03,-344.47C627.4,-332.38 868.5,-297.2 868.5,-225 868.5,-225 868.5,-225 868.5,-157 868.5,-93.72 797.89,-57.3 742.53,-38.47"/>
<polygon fill="#63b8ff" stroke="#63b8ff" points="743.34,-35.05 732.75,-35.26 741.16,-41.7 743.34,-35.05"/>
</a>
</g>
</g>
<!-- Node3 -->
<g id="Node000003" class="node">
<title>Node3</title>
<g id="a_Node000003"><a xlink:href="DynamicEigenMatrix_8hpp.html" target="_top" xlink:title=" ">
<polygon fill="white" stroke="#666666" points="269,-173 126,-173 126,-143 269,-143 269,-173"/>
<text text-anchor="start" x="134" y="-161" font-family="Helvetica,sans-Serif" font-size="10.00">packages/matrix/inc</text>
<text text-anchor="middle" x="197.5" y="-150" font-family="Helvetica,sans-Serif" font-size="10.00">/DynamicEigenMatrix.hpp</text>
</a>
</g>
</g>
<!-- Node1&#45;&gt;Node3 -->
<g id="edge2_Node000001_Node000003" class="edge">
<title>Node1&#45;&gt;Node3</title>
<g id="a_edge2_Node000001_Node000003"><a xlink:title=" ">
<path fill="none" stroke="#63b8ff" d="M452.32,-340.88C418.57,-323.61 341.83,-282.67 283.5,-239 259.58,-221.09 234.86,-197.47 218.1,-180.54"/>
<polygon fill="#63b8ff" stroke="#63b8ff" points="220.49,-177.98 210.99,-173.28 215.48,-182.88 220.49,-177.98"/>
</a>
</g>
</g>
<!-- Node9 -->
<g id="Node000009" class="node">
<title>Node9</title>
<g id="a_Node000009"><a xlink:href="errortypes_8hpp.html" target="_top" xlink:title=" ">
<polygon fill="white" stroke="#666666" points="523.5,-305 415.5,-305 415.5,-275 523.5,-275 523.5,-305"/>
<text text-anchor="start" x="423.5" y="-293" font-family="Helvetica,sans-Serif" font-size="10.00">packages/utilities</text>
<text text-anchor="middle" x="469.5" y="-282" font-family="Helvetica,sans-Serif" font-size="10.00">/inc/errortypes.hpp</text>
</a>
</g>
</g>
<!-- Node1&#45;&gt;Node9 -->
<g id="edge10_Node000001_Node000009" class="edge">
<title>Node1&#45;&gt;Node9</title>
<g id="a_edge10_Node000001_Node000009"><a xlink:title=" ">
<path fill="none" stroke="#63b8ff" d="M469.5,-340.87C469.5,-334.11 469.5,-324.35 469.5,-315.26"/>
<polygon fill="#63b8ff" stroke="#63b8ff" points="473,-315.11 469.5,-305.11 466,-315.11 473,-315.11"/>
</a>
</g>
</g>
<!-- Node4 -->
<g id="Node000004" class="node">
<title>Node4</title>
<g id="a_Node000004"><a xlink:title=" ">
<polygon fill="#e0e0e0" stroke="#999999" points="77,-30 0,-30 0,-11 77,-11 77,-30"/>
<text text-anchor="middle" x="38.5" y="-18" font-family="Helvetica,sans-Serif" font-size="10.00">Eigen/Dense</text>
</a>
</g>
</g>
<!-- Node3&#45;&gt;Node4 -->
<g id="edge3_Node000003_Node000004" class="edge">
<title>Node3&#45;&gt;Node4</title>
<g id="a_edge3_Node000003_Node000004"><a xlink:title=" ">
<path fill="none" stroke="#63b8ff" d="M180.36,-142.86C168.33,-132.89 151.87,-119.19 137.5,-107 108.71,-82.57 75.56,-53.82 55.86,-36.65"/>
<polygon fill="#63b8ff" stroke="#63b8ff" points="58.12,-33.99 48.29,-30.05 53.52,-39.26 58.12,-33.99"/>
</a>
</g>
</g>
<!-- Node5 -->
<g id="Node000005" class="node">
<title>Node5</title>
<g id="a_Node000005"><a xlink:href="EigenMatrix_8hpp.html" target="_top" xlink:title=" ">
<polygon fill="white" stroke="#666666" points="262,-107 147,-107 147,-77 262,-77 262,-107"/>
<text text-anchor="start" x="155" y="-95" font-family="Helvetica,sans-Serif" font-size="10.00">packages/matrix/inc</text>
<text text-anchor="middle" x="204.5" y="-84" font-family="Helvetica,sans-Serif" font-size="10.00">/EigenMatrix.hpp</text>
</a>
</g>
</g>
<!-- Node3&#45;&gt;Node5 -->
<g id="edge4_Node000003_Node000005" class="edge">
<title>Node3&#45;&gt;Node5</title>
<g id="a_edge4_Node000003_Node000005"><a xlink:title=" ">
<path fill="none" stroke="#63b8ff" d="M199.05,-142.8C199.88,-135.26 200.91,-125.78 201.86,-117.13"/>
<polygon fill="#63b8ff" stroke="#63b8ff" points="205.34,-117.49 202.95,-107.16 198.38,-116.72 205.34,-117.49"/>
</a>
</g>
</g>
<!-- Node5&#45;&gt;Node2 -->
<g id="edge6_Node000005_Node000002" class="edge">
<title>Node5&#45;&gt;Node2</title>
<g id="a_edge6_Node000005_Node000002"><a xlink:title=" ">
<path fill="none" stroke="#63b8ff" d="M262.28,-80.52C269.42,-79.29 276.62,-78.09 283.5,-77 398.9,-58.65 533.82,-40.32 612.08,-29.99"/>
<polygon fill="#63b8ff" stroke="#63b8ff" points="612.81,-33.43 622.27,-28.65 611.9,-26.49 612.81,-33.43"/>
</a>
</g>
</g>
<!-- Node5&#45;&gt;Node4 -->
<g id="edge5_Node000005_Node000004" class="edge">
<title>Node5&#45;&gt;Node4</title>
<g id="a_edge5_Node000005_Node000004"><a xlink:title=" ">
<path fill="none" stroke="#63b8ff" d="M170.91,-76.94C140.91,-64.38 97.37,-46.15 68.51,-34.07"/>
<polygon fill="#63b8ff" stroke="#63b8ff" points="69.54,-30.7 58.96,-30.07 66.84,-37.16 69.54,-30.7"/>
</a>
</g>
</g>
<!-- Node6 -->
<g id="Node000006" class="node">
<title>Node6</title>
<g id="a_Node000006"><a target="_parent" xlink:href="../../../cieutils/docs/html/container__concepts_8hpp.html" xlink:title=" ">
<polygon fill="white" stroke="#666666" points="450,-41 315,-41 315,0 450,0 450,-41"/>
<text text-anchor="start" x="323" y="-29" font-family="Helvetica,sans-Serif" font-size="10.00">packages/compile_time</text>
<text text-anchor="start" x="323" y="-18" font-family="Helvetica,sans-Serif" font-size="10.00">/packages/concepts/inc</text>
<text text-anchor="middle" x="382.5" y="-7" font-family="Helvetica,sans-Serif" font-size="10.00">/container_concepts.hpp</text>
</a>
</g>
</g>
<!-- Node5&#45;&gt;Node6 -->
<g id="edge7_Node000005_Node000006" class="edge">
<title>Node5&#45;&gt;Node6</title>
<g id="a_edge7_Node000005_Node000006"><a xlink:title=" ">
<path fill="none" stroke="#63b8ff" d="M240.52,-76.94C264.15,-67.71 295.61,-55.43 322.91,-44.77"/>
<polygon fill="#63b8ff" stroke="#63b8ff" points="324.33,-47.97 332.37,-41.07 321.78,-41.45 324.33,-47.97"/>
</a>
</g>
</g>
<!-- Node7 -->
<g id="Node000007" class="node">
<title>Node7</title>
<g id="a_Node000007"><a xlink:title=" ">
<polygon fill="#e0e0e0" stroke="#999999" points="297,-30 240,-30 240,-11 297,-11 297,-30"/>
<text text-anchor="middle" x="268.5" y="-18" font-family="Helvetica,sans-Serif" font-size="10.00">ostream</text>
</a>
</g>
</g>
<!-- Node5&#45;&gt;Node7 -->
<g id="edge8_Node000005_Node000007" class="edge">
<title>Node5&#45;&gt;Node7</title>
<g id="a_edge8_Node000005_Node000007"><a xlink:title=" ">
<path fill="none" stroke="#63b8ff" d="M217.45,-76.94C227.9,-65.59 242.6,-49.62 253.55,-37.74"/>
<polygon fill="#63b8ff" stroke="#63b8ff" points="256.23,-39.99 260.43,-30.27 251.08,-35.25 256.23,-39.99"/>
</a>
</g>
</g>
<!-- Node8 -->
<g id="Node000008" class="node">
<title>Node8</title>
<g id="a_Node000008"><a xlink:title=" ">
<polygon fill="#e0e0e0" stroke="#999999" points="221.5,-35.5 95.5,-35.5 95.5,-5.5 221.5,-5.5 221.5,-35.5"/>
<text text-anchor="start" x="103.5" y="-23.5" font-family="Helvetica,sans-Serif" font-size="10.00">packages/matrix/impl</text>
<text text-anchor="middle" x="158.5" y="-12.5" font-family="Helvetica,sans-Serif" font-size="10.00">/EigenMatrix_impl.hpp</text>
</a>
</g>
</g>
<!-- Node5&#45;&gt;Node8 -->
<g id="edge9_Node000005_Node000008" class="edge">
<title>Node5&#45;&gt;Node8</title>
<g id="a_edge9_Node000005_Node000008"><a xlink:title=" ">
<path fill="none" stroke="#63b8ff" d="M195.19,-76.94C188.96,-67.52 180.61,-54.91 173.45,-44.09"/>
<polygon fill="#63b8ff" stroke="#63b8ff" points="176.23,-41.95 167.79,-35.54 170.4,-45.81 176.23,-41.95"/>
</a>
</g>
</g>
<!-- Node9&#45;&gt;Node2 -->
<g id="edge12_Node000009_Node000002" class="edge">
<title>Node9&#45;&gt;Node2</title>
<g id="a_edge12_Node000009_Node000002"><a xlink:title=" ">
<path fill="none" stroke="#63b8ff" d="M445.43,-274.69C416.46,-255.76 369.81,-219.31 354.5,-173 340.94,-132 338.28,-106.84 369.5,-77 403.43,-44.57 531.81,-30.64 611.72,-25"/>
<polygon fill="#63b8ff" stroke="#63b8ff" points="612.44,-28.46 622.18,-24.29 611.97,-21.48 612.44,-28.46"/>
</a>
</g>
</g>
<!-- Node10 -->
<g id="Node000010" class="node">
<title>Node10</title>
<g id="a_Node000010"><a target="_parent" xlink:href="../../../cieutils/docs/html/exception_8hpp.html" xlink:title=" ">
<polygon fill="white" stroke="#666666" points="664,-239 545,-239 545,-209 664,-209 664,-239"/>
<text text-anchor="start" x="553" y="-227" font-family="Helvetica,sans-Serif" font-size="10.00">packages/exceptions</text>
<text text-anchor="middle" x="604.5" y="-216" font-family="Helvetica,sans-Serif" font-size="10.00">/inc/exception.hpp</text>
</a>
</g>
</g>
<!-- Node9&#45;&gt;Node10 -->
<g id="edge11_Node000009_Node000010" class="edge">
<title>Node9&#45;&gt;Node10</title>
<g id="a_edge11_Node000009_Node000010"><a xlink:title=" ">
<path fill="none" stroke="#63b8ff" d="M499.13,-274.95C518.73,-265.66 544.64,-253.38 565.87,-243.32"/>
<polygon fill="#63b8ff" stroke="#63b8ff" points="567.41,-246.46 574.94,-239.01 564.41,-240.13 567.41,-246.46"/>
</a>
</g>
</g>
<!-- Node11 -->
<g id="Node000011" class="node">
<title>Node11</title>
<g id="a_Node000011"><a xlink:href="linalghelper_8hpp.html" target="_top" xlink:title=" ">
<polygon fill="white" stroke="#666666" points="527,-239 412,-239 412,-209 527,-209 527,-239"/>
<text text-anchor="start" x="420" y="-227" font-family="Helvetica,sans-Serif" font-size="10.00">packages/utilities</text>
<text text-anchor="middle" x="469.5" y="-216" font-family="Helvetica,sans-Serif" font-size="10.00">/inc/linalghelper.hpp</text>
</a>
</g>
</g>
<!-- Node9&#45;&gt;Node11 -->
<g id="edge13_Node000009_Node000011" class="edge">
<title>Node9&#45;&gt;Node11</title>
<g id="a_edge13_Node000009_Node000011"><a xlink:title=" ">
<path fill="none" stroke="#63b8ff" d="M469.5,-274.8C469.5,-267.34 469.5,-257.99 469.5,-249.41"/>
<polygon fill="#63b8ff" stroke="#63b8ff" points="473,-249.16 469.5,-239.16 466,-249.16 473,-249.16"/>
</a>
</g>
</g>
<!-- Node11&#45;&gt;Node2 -->
<g id="edge15_Node000011_Node000002" class="edge">
<title>Node11&#45;&gt;Node2</title>
<g id="a_edge15_Node000011_Node000002"><a xlink:title=" ">
<path fill="none" stroke="#63b8ff" d="M527.19,-210.66C530.34,-210.07 533.45,-209.52 536.5,-209 597.26,-198.69 770.85,-219.32 811.5,-173 853.54,-125.1 768.61,-68.97 715.62,-40.35"/>
<polygon fill="#63b8ff" stroke="#63b8ff" points="717.25,-37.26 706.78,-35.67 713.98,-43.44 717.25,-37.26"/>
</a>
</g>
</g>
<!-- Node11&#45;&gt;Node3 -->
<g id="edge19_Node000011_Node000003" class="edge">
<title>Node11&#45;&gt;Node3</title>
<g id="a_edge19_Node000011_Node000003"><a xlink:title=" ">
<path fill="none" stroke="#63b8ff" d="M411.82,-209.43C369.63,-199.5 312.19,-185.98 267.39,-175.44"/>
<polygon fill="#63b8ff" stroke="#63b8ff" points="267.99,-171.99 257.45,-173.11 266.39,-178.8 267.99,-171.99"/>
</a>
</g>
</g>
<!-- Node11&#45;&gt;Node6 -->
<g id="edge14_Node000011_Node000006" class="edge">
<title>Node11&#45;&gt;Node6</title>
<g id="a_edge14_Node000011_Node000006"><a xlink:title=" ">
<path fill="none" stroke="#63b8ff" d="M411.86,-212C390.08,-204.74 367.45,-192.75 354.5,-173 330.01,-135.64 349.39,-82.55 365.82,-50.15"/>
<polygon fill="#63b8ff" stroke="#63b8ff" points="368.98,-51.67 370.56,-41.19 362.79,-48.4 368.98,-51.67"/>
</a>
</g>
</g>
<!-- Node12 -->
<g id="Node000012" class="node">
<title>Node12</title>
<g id="a_Node000012"><a xlink:href="vectortypes_8hpp.html" target="_top" xlink:title=" ">
<polygon fill="white" stroke="#666666" points="473.5,-173 363.5,-173 363.5,-143 473.5,-143 473.5,-173"/>
<text text-anchor="start" x="371.5" y="-161" font-family="Helvetica,sans-Serif" font-size="10.00">packages/types/inc</text>
<text text-anchor="middle" x="418.5" y="-150" font-family="Helvetica,sans-Serif" font-size="10.00">/vectortypes.hpp</text>
</a>
</g>
</g>
<!-- Node11&#45;&gt;Node12 -->
<g id="edge16_Node000011_Node000012" class="edge">
<title>Node11&#45;&gt;Node12</title>
<g id="a_edge16_Node000011_Node000012"><a xlink:title=" ">
<path fill="none" stroke="#63b8ff" d="M458.18,-208.8C451.71,-200.68 443.45,-190.31 436.15,-181.15"/>
<polygon fill="#63b8ff" stroke="#63b8ff" points="438.76,-178.8 429.79,-173.16 433.28,-183.17 438.76,-178.8"/>
</a>
</g>
</g>
<!-- Node15 -->
<g id="Node000015" class="node">
<title>Node15</title>
<g id="a_Node000015"><a xlink:title=" ">
<polygon fill="#e0e0e0" stroke="#999999" points="551.5,-167.5 491.5,-167.5 491.5,-148.5 551.5,-148.5 551.5,-167.5"/>
<text text-anchor="middle" x="521.5" y="-155.5" font-family="Helvetica,sans-Serif" font-size="10.00">iostream</text>
</a>
</g>
</g>
<!-- Node11&#45;&gt;Node15 -->
<g id="edge20_Node000011_Node000015" class="edge">
<title>Node11&#45;&gt;Node15</title>
<g id="a_edge20_Node000011_Node000015"><a xlink:title=" ">
<path fill="none" stroke="#63b8ff" d="M481.04,-208.8C488.99,-199.01 499.58,-185.98 507.93,-175.7"/>
<polygon fill="#63b8ff" stroke="#63b8ff" points="510.72,-177.81 514.31,-167.84 505.29,-173.4 510.72,-177.81"/>
</a>
</g>
</g>
<!-- Node16 -->
<g id="Node000016" class="node">
<title>Node16</title>
<g id="a_Node000016"><a xlink:title=" ">
<polygon fill="#e0e0e0" stroke="#999999" points="635,-167.5 570,-167.5 570,-148.5 635,-148.5 635,-167.5"/>
<text text-anchor="middle" x="602.5" y="-155.5" font-family="Helvetica,sans-Serif" font-size="10.00">stdexcept</text>
</a>
</g>
</g>
<!-- Node11&#45;&gt;Node16 -->
<g id="edge21_Node000011_Node000016" class="edge">
<title>Node11&#45;&gt;Node16</title>
<g id="a_edge21_Node000011_Node000016"><a xlink:title=" ">
<path fill="none" stroke="#63b8ff" d="M498.69,-208.95C521.6,-197.93 553.25,-182.7 575.57,-171.96"/>
<polygon fill="#63b8ff" stroke="#63b8ff" points="577.31,-175.01 584.8,-167.52 574.27,-168.7 577.31,-175.01"/>
</a>
</g>
</g>
<!-- Node17 -->
<g id="Node000017" class="node">
<title>Node17</title>
<g id="a_Node000017"><a xlink:title=" ">
<polygon fill="#e0e0e0" stroke="#999999" points="802.5,-173 652.5,-173 652.5,-143 802.5,-143 802.5,-173"/>
<text text-anchor="start" x="660.5" y="-161" font-family="Helvetica,sans-Serif" font-size="10.00">packages/utilities</text>
<text text-anchor="middle" x="727.5" y="-150" font-family="Helvetica,sans-Serif" font-size="10.00">/impl/linalghelper_impl.hpp</text>
</a>
</g>
</g>
<!-- Node11&#45;&gt;Node17 -->
<g id="edge22_Node000011_Node000017" class="edge">
<title>Node11&#45;&gt;Node17</title>
<g id="a_edge22_Node000011_Node000017"><a xlink:title=" ">
<path fill="none" stroke="#63b8ff" d="M526.12,-208.95C565.94,-199.08 619.37,-185.82 661.19,-175.45"/>
<polygon fill="#63b8ff" stroke="#63b8ff" points="662.15,-178.82 671.01,-173.01 660.46,-172.02 662.15,-178.82"/>
</a>
</g>
</g>
<!-- Node13 -->
<g id="Node000013" class="node">
<title>Node13</title>
<g id="a_Node000013"><a xlink:title=" ">
<polygon fill="#e0e0e0" stroke="#999999" points="496,-101.5 449,-101.5 449,-82.5 496,-82.5 496,-101.5"/>
<text text-anchor="middle" x="472.5" y="-89.5" font-family="Helvetica,sans-Serif" font-size="10.00">vector</text>
</a>
</g>
</g>
<!-- Node12&#45;&gt;Node13 -->
<g id="edge17_Node000012_Node000013" class="edge">
<title>Node12&#45;&gt;Node13</title>
<g id="a_edge17_Node000012_Node000013"><a xlink:title=" ">
<path fill="none" stroke="#63b8ff" d="M430.48,-142.8C438.74,-133.01 449.74,-119.98 458.41,-109.7"/>
<polygon fill="#63b8ff" stroke="#63b8ff" points="461.26,-111.74 465.04,-101.84 455.91,-107.23 461.26,-111.74"/>
</a>
</g>
</g>
<!-- Node14 -->
<g id="Node000014" class="node">
<title>Node14</title>
<g id="a_Node000014"><a xlink:title=" ">
<polygon fill="#e0e0e0" stroke="#999999" points="431,-101.5 378,-101.5 378,-82.5 431,-82.5 431,-101.5"/>
<text text-anchor="middle" x="404.5" y="-89.5" font-family="Helvetica,sans-Serif" font-size="10.00">stdint.h</text>
</a>
</g>
</g>
<!-- Node12&#45;&gt;Node14 -->
<g id="edge18_Node000012_Node000014" class="edge">
<title>Node12&#45;&gt;Node14</title>
<g id="a_edge18_Node000012_Node000014"><a xlink:title=" ">
<path fill="none" stroke="#63b8ff" d="M415.39,-142.8C413.4,-133.7 410.8,-121.79 408.63,-111.9"/>
<polygon fill="#63b8ff" stroke="#63b8ff" points="411.99,-110.87 406.43,-101.84 405.15,-112.36 411.99,-110.87"/>
</a>
</g>
</g>
</g>
</svg>

<g id="navigator" transform="translate(0 0)" fill="#404254">
  <rect fill="#f2f5e9" fill-opacity="0.5" stroke="#606060" stroke-width=".5" x="0" y="0" width="60" height="60"/>
  <use id="zoomplus" xlink:href="#zoomPlus" x="17" y="9" onmousedown="handleZoom(evt,'in')"/>
  <use id="zoomminus" xlink:href="#zoomMin" x="42" y="9" onmousedown="handleZoom(evt,'out')"/>
  <use id="reset" xlink:href="#resetDef" x="30" y="36" onmousedown="handleReset()"/>
   <use id="arrowup" xlink:href="#arrowUp" x="0" y="0" onmousedown="handlePan(0,-1)"/>
  <use id="arrowright" xlink:href="#arrowRight" x="0" y="0" onmousedown="handlePan(1,0)"/>
  <use id="arrowdown" xlink:href="#arrowDown" x="0" y="0" onmousedown="handlePan(0,1)"/>
  <use id="arrowleft" xlink:href="#arrowLeft" x="0" y="0" onmousedown="handlePan(-1,0)"/>
</g>
<svg viewBox="0 0 15 15" width="100%" height="30px" preserveAspectRatio="xMaxYMin meet">
 <g id="arrow_out" transform="scale(0.3 0.3)">
  <a xlink:href="linalgutilities_8hpp__incl_org.svg" target="_base">
   <rect id="button" ry="5" rx="5" y="6" x="6" height="38" width="38"
        fill="#f2f5e9" fill-opacity="0.5" stroke="#606060" stroke-width="1.0"/>
   <path id="arrow"
     d="M 11.500037,31.436501 C 11.940474,20.09759 22.043105,11.32322 32.158766,21.979434 L 37.068811,17.246167 C 37.068811,17.246167 37.088388,32 37.088388,32 L 22.160133,31.978069 C 22.160133,31.978069 26.997745,27.140456 26.997745,27.140456 C 18.528582,18.264221 13.291696,25.230495 11.500037,31.436501 z"
     style="fill:#404040;"/>
  </a>
 </g>
</svg>

<style type='text/css'>
<![CDATA[
[data-mouse-over-selected='false'] { opacity: 0.7; }
[data-mouse-over-selected='true']  { opacity: 1.0; }
]]>
</style>
<script type="application/ecmascript"><![CDATA[
document.addEventListener('DOMContentLoaded', (event) => {
  highlightEdges();
  highlightAdjacentNodes();
});
]]></script>
</svg>
