<?xml version="1.0" encoding="UTF-8" standalone="no"?>
<!DOCTYPE svg PUBLIC "-//W3C//DTD SVG 1.1//EN"
 "http://www.w3.org/Graphics/SVG/1.1/DTD/svg11.dtd">
<!-- Generated by graphviz version 2.43.0 (0)
 -->
<!-- Title: linalgutilities.hpp Pages: 1 -->
<!--zoomable 374 -->
<svg id="main" version="1.1" xmlns="http://www.w3.org/2000/svg" xmlns:xlink="http://www.w3.org/1999/xlink" xml:space="preserve" onload="init(evt)">
<style type="text/css"><![CDATA[
.edge:hover path { stroke: red; }
.edge:hover polygon { stroke: red; fill: red; }
]]></style>
<script type="text/javascript"><![CDATA[
var edges = document.getElementsByTagName('g');
if (edges && edges.length) {
  for (var i=0;i<edges.length;i++) {
    if (edges[i].id.substr(0,4)=='edge') {
      edges[i].setAttribute('class','edge');
    }
  }
}
]]></script>
        <defs>
                <circle id="rim" cx="0" cy="0" r="7"/>
                <circle id="rim2" cx="0" cy="0" r="3.5"/>
                <g id="zoomPlus">
                        <use xlink:href="#rim" fill="#404040">
                                <set attributeName="fill" to="#808080" begin="zoomplus.mouseover" end="zoomplus.mouseout"/>
                        </use>
                        <path d="M-4,0h8M0,-4v8" fill="none" stroke="white" stroke-width="1.5" pointer-events="none"/>
                </g>
                <g id="zoomMin">
                        <use xlink:href="#rim" fill="#404040">
                                <set attributeName="fill" to="#808080" begin="zoomminus.mouseover" end="zoomminus.mouseout"/>
                        </use>
                        <path d="M-4,0h8" fill="none" stroke="white" stroke-width="1.5" pointer-events="none"/>
                </g>
                <g id="dirArrow">
                        <path fill="none" stroke="white" stroke-width="1.5" d="M0,-3.0v7 M-2.5,-0.5L0,-3.0L2.5,-0.5"/>
                </g>
               <g id="resetDef">
                       <use xlink:href="#rim2" fill="#404040">
                               <set attributeName="fill" to="#808080" begin="reset.mouseover" end="reset.mouseout"/>
                       </use>
               </g>
        </defs>

<script type="text/javascript">
var viewWidth = 877;
var viewHeight = 374;
var sectionId = 'dynsection-0';
</script>
<script xlink:href="svgpan.js"/>
<svg id="graph" class="graph">
<g id="viewport">
<title>linalgutilities.hpp</title>
<polygon fill="white" stroke="transparent" points="-4,4 -4,-370 872.5,-370 872.5,4 -4,4"/>
<!-- Node1 -->
<g id="node1" class="node">
<title>Node1</title>
<g id="a_node1"><a xlink:title=" ">
<polygon fill="#bfbfbf" stroke="black" points="419,-346.5 419,-365.5 520,-365.5 520,-346.5 419,-346.5"/>
<text text-anchor="middle" x="469.5" y="-353.5" font-family="Helvetica,sans-Serif" font-size="10.00">linalgutilities.hpp</text>
</a>
</g>
</g>
<!-- Node2 -->
<g id="node2" class="node">
<title>Node2</title>
<g id="a_node2"><a target="_parent" xlink:href="../../../cieutils/docs/html/types_8hpp.html.html" xlink:title=" ">
<polygon fill="white" stroke="black" points="622.5,-6 622.5,-36 732.5,-36 732.5,-6 622.5,-6"/>
<text text-anchor="start" x="630.5" y="-24" font-family="Helvetica,sans-Serif" font-size="10.00">packages/types/inc</text>
<text text-anchor="middle" x="677.5" y="-13" font-family="Helvetica,sans-Serif" font-size="10.00">/types.hpp</text>
</a>
</g>
</g>
<!-- Node1&#45;&gt;Node2 -->
<g id="edge1" class="edge">
<title>Node1&#45;&gt;Node2</title>
<path fill="none" stroke="midnightblue" d="M520.03,-349.73C627.4,-337.14 868.5,-300.81 868.5,-228.5 868.5,-228.5 868.5,-228.5 868.5,-159.5 868.5,-95.71 797.46,-58.58 742.03,-39.33"/>
<polygon fill="midnightblue" stroke="midnightblue" points="742.83,-35.9 732.23,-36.05 740.61,-42.54 742.83,-35.9"/>
</g>
<!-- Node3 -->
<g id="node3" class="node">
<title>Node3</title>
<g id="a_node3"><a xlink:href="DynamicEigenMatrix_8hpp.html" target="_top" xlink:title=" ">
<polygon fill="white" stroke="black" points="126,-145.5 126,-175.5 269,-175.5 269,-145.5 126,-145.5"/>
<text text-anchor="start" x="134" y="-163.5" font-family="Helvetica,sans-Serif" font-size="10.00">packages/matrix/inc</text>
<text text-anchor="middle" x="197.5" y="-152.5" font-family="Helvetica,sans-Serif" font-size="10.00">/DynamicEigenMatrix.hpp</text>
</a>
</g>
</g>
<!-- Node1&#45;&gt;Node3 -->
<g id="edge2" class="edge">
<title>Node1&#45;&gt;Node3</title>
<path fill="none" stroke="midnightblue" d="M452.56,-346.4C418.9,-328.98 341.85,-287.38 283.5,-243 259.36,-224.64 234.51,-200.4 217.76,-183.14"/>
<polygon fill="midnightblue" stroke="midnightblue" points="220.12,-180.54 210.67,-175.75 215.07,-185.39 220.12,-180.54"/>
</g>
<!-- Node9 -->
<g id="node9" class="node">
<title>Node9</title>
<g id="a_node9"><a xlink:href="errortypes_8hpp.html" target="_top" xlink:title=" ">
<polygon fill="white" stroke="black" points="415.5,-279.5 415.5,-309.5 523.5,-309.5 523.5,-279.5 415.5,-279.5"/>
<text text-anchor="start" x="423.5" y="-297.5" font-family="Helvetica,sans-Serif" font-size="10.00">packages/utilities</text>
<text text-anchor="middle" x="469.5" y="-286.5" font-family="Helvetica,sans-Serif" font-size="10.00">/inc/errortypes.hpp</text>
</a>
</g>
</g>
<!-- Node1&#45;&gt;Node9 -->
<g id="edge10" class="edge">
<title>Node1&#45;&gt;Node9</title>
<path fill="none" stroke="midnightblue" d="M469.5,-346.48C469.5,-339.47 469.5,-329.19 469.5,-319.7"/>
<polygon fill="midnightblue" stroke="midnightblue" points="473,-319.52 469.5,-309.52 466,-319.52 473,-319.52"/>
</g>
<!-- Node4 -->
<g id="node4" class="node">
<title>Node4</title>
<g id="a_node4"><a xlink:title=" ">
<polygon fill="white" stroke="#bfbfbf" points="0,-11.5 0,-30.5 77,-30.5 77,-11.5 0,-11.5"/>
<text text-anchor="middle" x="38.5" y="-18.5" font-family="Helvetica,sans-Serif" font-size="10.00">Eigen/Dense</text>
</a>
</g>
</g>
<!-- Node3&#45;&gt;Node4 -->
<g id="edge3" class="edge">
<title>Node3&#45;&gt;Node4</title>
<path fill="none" stroke="midnightblue" d="M180.61,-145.45C168.54,-135.37 151.95,-121.43 137.5,-109 108.66,-84.2 75.53,-54.92 55.84,-37.44"/>
<polygon fill="midnightblue" stroke="midnightblue" points="58.07,-34.74 48.28,-30.71 53.42,-39.97 58.07,-34.74"/>
</g>
<!-- Node5 -->
<g id="node5" class="node">
<title>Node5</title>
<g id="a_node5"><a xlink:href="EigenMatrix_8hpp.html" target="_top" xlink:title=" ">
<polygon fill="white" stroke="black" points="147,-78.5 147,-108.5 262,-108.5 262,-78.5 147,-78.5"/>
<text text-anchor="start" x="155" y="-96.5" font-family="Helvetica,sans-Serif" font-size="10.00">packages/matrix/inc</text>
<text text-anchor="middle" x="204.5" y="-85.5" font-family="Helvetica,sans-Serif" font-size="10.00">/EigenMatrix.hpp</text>
</a>
</g>
</g>
<!-- Node3&#45;&gt;Node5 -->
<g id="edge4" class="edge">
<title>Node3&#45;&gt;Node5</title>
<path fill="none" stroke="midnightblue" d="M199.02,-145.4C199.86,-137.56 200.94,-127.6 201.91,-118.57"/>
<polygon fill="midnightblue" stroke="midnightblue" points="205.39,-118.89 202.98,-108.58 198.43,-118.14 205.39,-118.89"/>
</g>
<!-- Node5&#45;&gt;Node2 -->
<g id="edge6" class="edge">
<title>Node5&#45;&gt;Node2</title>
<path fill="none" stroke="midnightblue" d="M262.27,-81.62C269.41,-80.36 276.62,-79.12 283.5,-78 398.85,-59.22 533.79,-40.81 612.06,-30.48"/>
<polygon fill="midnightblue" stroke="midnightblue" points="612.8,-33.91 622.26,-29.14 611.88,-26.97 612.8,-33.91"/>
</g>
<!-- Node5&#45;&gt;Node4 -->
<g id="edge5" class="edge">
<title>Node5&#45;&gt;Node4</title>
<path fill="none" stroke="midnightblue" d="M171.31,-78.4C141.18,-65.61 97.15,-46.91 68.17,-34.6"/>
<polygon fill="midnightblue" stroke="midnightblue" points="69.17,-31.22 58.59,-30.53 66.43,-37.66 69.17,-31.22"/>
</g>
<!-- Node6 -->
<g id="node6" class="node">
<title>Node6</title>
<g id="a_node6"><a target="_parent" xlink:href="../../../cieutils/docs/html/container__concepts_8hpp.html.html" xlink:title=" ">
<polygon fill="white" stroke="black" points="315,-0.5 315,-41.5 450,-41.5 450,-0.5 315,-0.5"/>
<text text-anchor="start" x="323" y="-29.5" font-family="Helvetica,sans-Serif" font-size="10.00">packages/compile_time</text>
<text text-anchor="start" x="323" y="-18.5" font-family="Helvetica,sans-Serif" font-size="10.00">/packages/concepts/inc</text>
<text text-anchor="middle" x="382.5" y="-7.5" font-family="Helvetica,sans-Serif" font-size="10.00">/container_concepts.hpp</text>
</a>
</g>
</g>
<!-- Node5&#45;&gt;Node6 -->
<g id="edge7" class="edge">
<title>Node5&#45;&gt;Node6</title>
<path fill="none" stroke="midnightblue" d="M240.09,-78.4C263.96,-68.95 295.96,-56.27 323.58,-45.34"/>
<polygon fill="midnightblue" stroke="midnightblue" points="325.14,-48.48 333.15,-41.55 322.56,-41.97 325.14,-48.48"/>
</g>
<!-- Node7 -->
<g id="node7" class="node">
<title>Node7</title>
<g id="a_node7"><a xlink:title=" ">
<polygon fill="white" stroke="#bfbfbf" points="240,-11.5 240,-30.5 297,-30.5 297,-11.5 240,-11.5"/>
<text text-anchor="middle" x="268.5" y="-18.5" font-family="Helvetica,sans-Serif" font-size="10.00">ostream</text>
</a>
</g>
</g>
<!-- Node5&#45;&gt;Node7 -->
<g id="edge8" class="edge">
<title>Node5&#45;&gt;Node7</title>
<path fill="none" stroke="midnightblue" d="M217.45,-78.23C227.9,-66.73 242.6,-50.53 253.55,-38.47"/>
<polygon fill="midnightblue" stroke="midnightblue" points="256.3,-40.65 260.43,-30.89 251.11,-35.94 256.3,-40.65"/>
</g>
<!-- Node8 -->
<g id="node8" class="node">
<title>Node8</title>
<g id="a_node8"><a xlink:title=" ">
<polygon fill="white" stroke="#bfbfbf" points="95.5,-6 95.5,-36 221.5,-36 221.5,-6 95.5,-6"/>
<text text-anchor="start" x="103.5" y="-24" font-family="Helvetica,sans-Serif" font-size="10.00">packages/matrix/impl</text>
<text text-anchor="middle" x="158.5" y="-13" font-family="Helvetica,sans-Serif" font-size="10.00">/EigenMatrix_impl.hpp</text>
</a>
</g>
</g>
<!-- Node5&#45;&gt;Node8 -->
<g id="edge9" class="edge">
<title>Node5&#45;&gt;Node8</title>
<path fill="none" stroke="midnightblue" d="M195.19,-78.23C188.96,-68.68 180.61,-55.89 173.45,-44.92"/>
<polygon fill="midnightblue" stroke="midnightblue" points="176.19,-42.71 167.79,-36.25 170.33,-46.53 176.19,-42.71"/>
</g>
<!-- Node9&#45;&gt;Node2 -->
<g id="edge12" class="edge">
<title>Node9&#45;&gt;Node2</title>
<path fill="none" stroke="midnightblue" d="M446.16,-279.42C417.23,-260.31 369.88,-223.08 354.5,-176 340.82,-134.12 337.72,-108.52 369.5,-78 403.4,-45.44 532.12,-31.31 612.03,-25.58"/>
<polygon fill="midnightblue" stroke="midnightblue" points="612.76,-29.03 622.49,-24.85 612.27,-22.05 612.76,-29.03"/>
</g>
<!-- Node10 -->
<g id="node10" class="node">
<title>Node10</title>
<g id="a_node10"><a target="_parent" xlink:href="../../../cieutils/docs/html/exception_8hpp.html.html" xlink:title=" ">
<polygon fill="white" stroke="black" points="545,-212.5 545,-242.5 664,-242.5 664,-212.5 545,-212.5"/>
<text text-anchor="start" x="553" y="-230.5" font-family="Helvetica,sans-Serif" font-size="10.00">packages/exceptions</text>
<text text-anchor="middle" x="604.5" y="-219.5" font-family="Helvetica,sans-Serif" font-size="10.00">/inc/exception.hpp</text>
</a>
</g>
</g>
<!-- Node9&#45;&gt;Node10 -->
<g id="edge11" class="edge">
<title>Node9&#45;&gt;Node10</title>
<path fill="none" stroke="midnightblue" d="M498.79,-279.4C518.52,-269.9 544.73,-257.28 566.12,-246.98"/>
<polygon fill="midnightblue" stroke="midnightblue" points="567.77,-250.07 575.26,-242.58 564.74,-243.76 567.77,-250.07"/>
</g>
<!-- Node11 -->
<g id="node11" class="node">
<title>Node11</title>
<g id="a_node11"><a xlink:href="linalghelper_8hpp.html" target="_top" xlink:title=" ">
<polygon fill="white" stroke="black" points="412,-212.5 412,-242.5 527,-242.5 527,-212.5 412,-212.5"/>
<text text-anchor="start" x="420" y="-230.5" font-family="Helvetica,sans-Serif" font-size="10.00">packages/utilities</text>
<text text-anchor="middle" x="469.5" y="-219.5" font-family="Helvetica,sans-Serif" font-size="10.00">/inc/linalghelper.hpp</text>
</a>
</g>
</g>
<!-- Node9&#45;&gt;Node11 -->
<g id="edge13" class="edge">
<title>Node9&#45;&gt;Node11</title>
<path fill="none" stroke="midnightblue" d="M469.5,-279.4C469.5,-271.64 469.5,-261.81 469.5,-252.86"/>
<polygon fill="midnightblue" stroke="midnightblue" points="473,-252.58 469.5,-242.58 466,-252.58 473,-252.58"/>
</g>
<!-- Node11&#45;&gt;Node2 -->
<g id="edge15" class="edge">
<title>Node11&#45;&gt;Node2</title>
<path fill="none" stroke="midnightblue" d="M527.18,-213.7C530.33,-213.1 533.45,-212.53 536.5,-212 597.23,-201.47 770.85,-222.32 811.5,-176 854.15,-127.4 767.95,-69.86 714.89,-40.8"/>
<polygon fill="midnightblue" stroke="midnightblue" points="716.51,-37.7 706.05,-36.05 713.2,-43.86 716.51,-37.7"/>
</g>
<!-- Node11&#45;&gt;Node3 -->
<g id="edge19" class="edge">
<title>Node11&#45;&gt;Node3</title>
<path fill="none" stroke="midnightblue" d="M411.82,-212.72C369.34,-202.56 311.4,-188.72 266.47,-177.98"/>
<polygon fill="midnightblue" stroke="midnightblue" points="267.05,-174.52 256.51,-175.6 265.42,-181.33 267.05,-174.52"/>
</g>
<!-- Node11&#45;&gt;Node6 -->
<g id="edge14" class="edge">
<title>Node11&#45;&gt;Node6</title>
<path fill="none" stroke="midnightblue" d="M411.85,-215.25C390.06,-207.9 367.44,-195.81 354.5,-176 329.62,-137.9 349.27,-83.74 365.84,-50.84"/>
<polygon fill="midnightblue" stroke="midnightblue" points="369.06,-52.24 370.61,-41.76 362.87,-48.98 369.06,-52.24"/>
</g>
<!-- Node12 -->
<g id="node12" class="node">
<title>Node12</title>
<g id="a_node12"><a xlink:href="vectortypes_8hpp.html" target="_top" xlink:title=" ">
<polygon fill="white" stroke="black" points="363.5,-145.5 363.5,-175.5 473.5,-175.5 473.5,-145.5 363.5,-145.5"/>
<text text-anchor="start" x="371.5" y="-163.5" font-family="Helvetica,sans-Serif" font-size="10.00">packages/types/inc</text>
<text text-anchor="middle" x="418.5" y="-152.5" font-family="Helvetica,sans-Serif" font-size="10.00">/vectortypes.hpp</text>
</a>
</g>
</g>
<!-- Node11&#45;&gt;Node12 -->
<g id="edge16" class="edge">
<title>Node11&#45;&gt;Node12</title>
<path fill="none" stroke="midnightblue" d="M458.43,-212.4C451.82,-203.96 443.27,-193.07 435.78,-183.52"/>
<polygon fill="midnightblue" stroke="midnightblue" points="438.47,-181.28 429.54,-175.58 432.96,-185.6 438.47,-181.28"/>
</g>
<!-- Node15 -->
<g id="node15" class="node">
<title>Node15</title>
<g id="a_node15"><a xlink:title=" ">
<polygon fill="white" stroke="#bfbfbf" points="491.5,-151 491.5,-170 551.5,-170 551.5,-151 491.5,-151"/>
<text text-anchor="middle" x="521.5" y="-158" font-family="Helvetica,sans-Serif" font-size="10.00">iostream</text>
</a>
</g>
</g>
<!-- Node11&#45;&gt;Node15 -->
<g id="edge20" class="edge">
<title>Node11&#45;&gt;Node15</title>
<path fill="none" stroke="midnightblue" d="M480.78,-212.4C488.81,-202.36 499.63,-188.84 508.1,-178.25"/>
<polygon fill="midnightblue" stroke="midnightblue" points="511.03,-180.19 514.54,-170.19 505.56,-175.82 511.03,-180.19"/>
</g>
<!-- Node16 -->
<g id="node16" class="node">
<title>Node16</title>
<g id="a_node16"><a xlink:title=" ">
<polygon fill="white" stroke="#bfbfbf" points="570,-151 570,-170 635,-170 635,-151 570,-151"/>
<text text-anchor="middle" x="602.5" y="-158" font-family="Helvetica,sans-Serif" font-size="10.00">stdexcept</text>
</a>
</g>
</g>
<!-- Node11&#45;&gt;Node16 -->
<g id="edge21" class="edge">
<title>Node11&#45;&gt;Node16</title>
<path fill="none" stroke="midnightblue" d="M498.36,-212.4C521.39,-201.14 553.39,-185.5 575.82,-174.54"/>
<polygon fill="midnightblue" stroke="midnightblue" points="577.65,-177.54 585.09,-170.01 574.57,-171.25 577.65,-177.54"/>
</g>
<!-- Node17 -->
<g id="node17" class="node">
<title>Node17</title>
<g id="a_node17"><a xlink:title=" ">
<polygon fill="white" stroke="#bfbfbf" points="652.5,-145.5 652.5,-175.5 802.5,-175.5 802.5,-145.5 652.5,-145.5"/>
<text text-anchor="start" x="660.5" y="-163.5" font-family="Helvetica,sans-Serif" font-size="10.00">packages/utilities</text>
<text text-anchor="middle" x="727.5" y="-152.5" font-family="Helvetica,sans-Serif" font-size="10.00">/impl/linalghelper_impl.hpp</text>
</a>
</g>
</g>
<!-- Node11&#45;&gt;Node17 -->
<g id="edge22" class="edge">
<title>Node11&#45;&gt;Node17</title>
<path fill="none" stroke="midnightblue" d="M525.16,-212.48C565.21,-202.39 619.37,-188.74 661.58,-178.11"/>
<polygon fill="midnightblue" stroke="midnightblue" points="662.65,-181.45 671.49,-175.61 660.94,-174.66 662.65,-181.45"/>
</g>
<!-- Node13 -->
<g id="node13" class="node">
<title>Node13</title>
<g id="a_node13"><a xlink:title=" ">
<polygon fill="white" stroke="#bfbfbf" points="449,-84 449,-103 496,-103 496,-84 449,-84"/>
<text text-anchor="middle" x="472.5" y="-91" font-family="Helvetica,sans-Serif" font-size="10.00">vector</text>
</a>
</g>
</g>
<!-- Node12&#45;&gt;Node13 -->
<g id="edge17" class="edge">
<title>Node12&#45;&gt;Node13</title>
<path fill="none" stroke="midnightblue" d="M430.22,-145.4C438.64,-135.26 450.01,-121.57 458.84,-110.94"/>
<polygon fill="midnightblue" stroke="midnightblue" points="461.58,-113.12 465.28,-103.19 456.19,-108.65 461.58,-113.12"/>
</g>
<!-- Node14 -->
<g id="node14" class="node">
<title>Node14</title>
<g id="a_node14"><a xlink:title=" ">
<polygon fill="white" stroke="#bfbfbf" points="378,-84 378,-103 431,-103 431,-84 378,-84"/>
<text text-anchor="middle" x="404.5" y="-91" font-family="Helvetica,sans-Serif" font-size="10.00">stdint.h</text>
</a>
</g>
</g>
<!-- Node12&#45;&gt;Node14 -->
<g id="edge18" class="edge">
<title>Node12&#45;&gt;Node14</title>
<path fill="none" stroke="midnightblue" d="M415.46,-145.4C413.43,-135.96 410.74,-123.45 408.53,-113.19"/>
<polygon fill="midnightblue" stroke="midnightblue" points="411.9,-112.23 406.37,-103.19 405.06,-113.71 411.9,-112.23"/>
</g>
</g>
</svg>
        <g id="navigator" transform="translate(0 0)" fill="#404254">
                <rect fill="#f2f5e9" fill-opacity="0.5" stroke="#606060" stroke-width=".5" x="0" y="0" width="60" height="60"/>
                <use id="zoomplus" xlink:href="#zoomPlus" x="17" y="9" onmousedown="handleZoom(evt,'in')"/>
                <use id="zoomminus" xlink:href="#zoomMin" x="42" y="9" onmousedown="handleZoom(evt,'out')"/>
                <use id="reset" xlink:href="#resetDef" x="30" y="36" onmousedown="handleReset()"/>
                <g id="arrowUp" xlink:href="#dirArrow" transform="translate(30 24)" onmousedown="handlePan(0,-1)">
                  <use xlink:href="#rim" fill="#404040">
                        <set attributeName="fill" to="#808080" begin="arrowUp.mouseover" end="arrowUp.mouseout"/>
                  </use>
                  <path fill="none" stroke="white" stroke-width="1.5" d="M0,-3.0v7 M-2.5,-0.5L0,-3.0L2.5,-0.5"/>
                </g>
                <g id="arrowRight" xlink:href="#dirArrow" transform="rotate(90) translate(36 -43)" onmousedown="handlePan(1,0)">
                  <use xlink:href="#rim" fill="#404040">
                        <set attributeName="fill" to="#808080" begin="arrowRight.mouseover" end="arrowRight.mouseout"/>
                  </use>
                  <path fill="none" stroke="white" stroke-width="1.5" d="M0,-3.0v7 M-2.5,-0.5L0,-3.0L2.5,-0.5"/>
                </g>
                <g id="arrowDown" xlink:href="#dirArrow" transform="rotate(180) translate(-30 -48)" onmousedown="handlePan(0,1)">
                  <use xlink:href="#rim" fill="#404040">
                        <set attributeName="fill" to="#808080" begin="arrowDown.mouseover" end="arrowDown.mouseout"/>
                  </use>
                  <path fill="none" stroke="white" stroke-width="1.5" d="M0,-3.0v7 M-2.5,-0.5L0,-3.0L2.5,-0.5"/>
                </g>
                <g id="arrowLeft" xlink:href="#dirArrow" transform="rotate(270) translate(-36 17)" onmousedown="handlePan(-1,0)">
                  <use xlink:href="#rim" fill="#404040">
                        <set attributeName="fill" to="#808080" begin="arrowLeft.mouseover" end="arrowLeft.mouseout"/>
                  </use>
                  <path fill="none" stroke="white" stroke-width="1.5" d="M0,-3.0v7 M-2.5,-0.5L0,-3.0L2.5,-0.5"/>
                </g>
        </g>
        <svg viewBox="0 0 15 15" width="100%" height="30px" preserveAspectRatio="xMaxYMin meet">
         <g id="arrow_out" transform="scale(0.3 0.3)">
          <a xlink:href="linalgutilities_8hpp__incl_org.svg" target="_base">
           <rect id="button" ry="5" rx="5" y="6" x="6" height="38" width="38"
                fill="#f2f5e9" fill-opacity="0.5" stroke="#606060" stroke-width="1.0"/>
           <path id="arrow"
             d="M 11.500037,31.436501 C 11.940474,20.09759 22.043105,11.32322 32.158766,21.979434 L 37.068811,17.246167 C 37.068811,17.246167 37.088388,32 37.088388,32 L 22.160133,31.978069 C 22.160133,31.978069 26.997745,27.140456 26.997745,27.140456 C 18.528582,18.264221 13.291696,25.230495 11.500037,31.436501 z"
             style="fill:#404040;"/>
          </a>
         </g>
        </svg>
</svg>
