<?xml version="1.0" encoding="UTF-8" standalone="no"?>
<!DOCTYPE svg PUBLIC "-//W3C//DTD SVG 1.1//EN"
 "http://www.w3.org/Graphics/SVG/1.1/DTD/svg11.dtd">
<!-- Generated by graphviz version 2.43.0 (0)
 -->
<!-- Title: linalghelper.hpp Pages: 1 -->
<svg width="873pt" height="240pt"
 viewBox="0.00 0.00 872.50 240.00" xmlns="http://www.w3.org/2000/svg" xmlns:xlink="http://www.w3.org/1999/xlink">
<g id="graph0" class="graph" transform="scale(1 1) rotate(0) translate(4 236)">
<title>linalghelper.hpp</title>
<polygon fill="white" stroke="transparent" points="-4,4 -4,-236 868.5,-236 868.5,4 -4,4"/>
<!-- Node1 -->
<g id="node1" class="node">
<title>Node1</title>
<g id="a_node1"><a xlink:title=" ">
<polygon fill="#bfbfbf" stroke="black" points="433,-212.5 433,-231.5 528,-231.5 528,-212.5 433,-212.5"/>
<text text-anchor="middle" x="480.5" y="-219.5" font-family="Helvetica,sans-Serif" font-size="10.00">linalghelper.hpp</text>
</a>
</g>
</g>
<!-- Node2 -->
<g id="node2" class="node">
<title>Node2</title>
<g id="a_node2"><a target="_parent" xlink:href="../../../cieutils/docs/html/container__concepts_8hpp.html.html" xlink:title=" ">
<polygon fill="white" stroke="black" points="0,-0.5 0,-41.5 135,-41.5 135,-0.5 0,-0.5"/>
<text text-anchor="start" x="8" y="-29.5" font-family="Helvetica,sans-Serif" font-size="10.00">packages/compile_time</text>
<text text-anchor="start" x="8" y="-18.5" font-family="Helvetica,sans-Serif" font-size="10.00">/packages/concepts/inc</text>
<text text-anchor="middle" x="67.5" y="-7.5" font-family="Helvetica,sans-Serif" font-size="10.00">/container_concepts.hpp</text>
</a>
</g>
</g>
<!-- Node1&#45;&gt;Node2 -->
<g id="edge1" class="edge">
<title>Node1&#45;&gt;Node2</title>
<path fill="none" stroke="midnightblue" d="M432.87,-220.59C380.19,-218.36 294.08,-209.31 228.5,-176 168.32,-145.43 115.37,-84.98 87.76,-49.59"/>
<polygon fill="midnightblue" stroke="midnightblue" points="90.48,-47.39 81.62,-41.59 84.93,-51.65 90.48,-47.39"/>
</g>
<!-- Node3 -->
<g id="node3" class="node">
<title>Node3</title>
<g id="a_node3"><a target="_parent" xlink:href="../../../cieutils/docs/html/types_8hpp.html.html" xlink:title=" ">
<polygon fill="white" stroke="black" points="153.5,-6 153.5,-36 263.5,-36 263.5,-6 153.5,-6"/>
<text text-anchor="start" x="161.5" y="-24" font-family="Helvetica,sans-Serif" font-size="10.00">packages/types/inc</text>
<text text-anchor="middle" x="208.5" y="-13" font-family="Helvetica,sans-Serif" font-size="10.00">/types.hpp</text>
</a>
</g>
</g>
<!-- Node1&#45;&gt;Node3 -->
<g id="edge2" class="edge">
<title>Node1&#45;&gt;Node3</title>
<path fill="none" stroke="midnightblue" d="M432.96,-217.25C374.58,-211.69 280.13,-199.33 254.5,-176 217.64,-142.44 209.82,-80.71 208.46,-46.48"/>
<polygon fill="midnightblue" stroke="midnightblue" points="211.96,-46.32 208.22,-36.41 204.96,-46.49 211.96,-46.32"/>
</g>
<!-- Node4 -->
<g id="node4" class="node">
<title>Node4</title>
<g id="a_node4"><a xlink:href="vectortypes_8hpp.html" target="_top" xlink:title=" ">
<polygon fill="white" stroke="black" points="425.5,-145.5 425.5,-175.5 535.5,-175.5 535.5,-145.5 425.5,-145.5"/>
<text text-anchor="start" x="433.5" y="-163.5" font-family="Helvetica,sans-Serif" font-size="10.00">packages/types/inc</text>
<text text-anchor="middle" x="480.5" y="-152.5" font-family="Helvetica,sans-Serif" font-size="10.00">/vectortypes.hpp</text>
</a>
</g>
</g>
<!-- Node1&#45;&gt;Node4 -->
<g id="edge3" class="edge">
<title>Node1&#45;&gt;Node4</title>
<path fill="none" stroke="midnightblue" d="M480.5,-212.48C480.5,-205.47 480.5,-195.19 480.5,-185.7"/>
<polygon fill="midnightblue" stroke="midnightblue" points="484,-185.52 480.5,-175.52 477,-185.52 484,-185.52"/>
</g>
<!-- Node7 -->
<g id="node7" class="node">
<title>Node7</title>
<g id="a_node7"><a xlink:href="DynamicEigenMatrix_8hpp.html" target="_top" xlink:title=" ">
<polygon fill="white" stroke="black" points="264,-145.5 264,-175.5 407,-175.5 407,-145.5 264,-145.5"/>
<text text-anchor="start" x="272" y="-163.5" font-family="Helvetica,sans-Serif" font-size="10.00">packages/matrix/inc</text>
<text text-anchor="middle" x="335.5" y="-152.5" font-family="Helvetica,sans-Serif" font-size="10.00">/DynamicEigenMatrix.hpp</text>
</a>
</g>
</g>
<!-- Node1&#45;&gt;Node7 -->
<g id="edge6" class="edge">
<title>Node1&#45;&gt;Node7</title>
<path fill="none" stroke="midnightblue" d="M459.73,-212.48C438.8,-203.89 405.89,-190.38 379.19,-179.43"/>
<polygon fill="midnightblue" stroke="midnightblue" points="380.25,-176.08 369.67,-175.52 377.6,-182.56 380.25,-176.08"/>
</g>
<!-- Node12 -->
<g id="node12" class="node">
<title>Node12</title>
<g id="a_node12"><a xlink:title=" ">
<polygon fill="white" stroke="#bfbfbf" points="553.5,-151 553.5,-170 613.5,-170 613.5,-151 553.5,-151"/>
<text text-anchor="middle" x="583.5" y="-158" font-family="Helvetica,sans-Serif" font-size="10.00">iostream</text>
</a>
</g>
</g>
<!-- Node1&#45;&gt;Node12 -->
<g id="edge14" class="edge">
<title>Node1&#45;&gt;Node12</title>
<path fill="none" stroke="midnightblue" d="M495.26,-212.48C512.16,-202.71 540.08,-186.58 559.99,-175.08"/>
<polygon fill="midnightblue" stroke="midnightblue" points="561.86,-178.04 568.77,-170.01 558.36,-171.98 561.86,-178.04"/>
</g>
<!-- Node13 -->
<g id="node13" class="node">
<title>Node13</title>
<g id="a_node13"><a xlink:title=" ">
<polygon fill="white" stroke="#bfbfbf" points="632,-151 632,-170 697,-170 697,-151 632,-151"/>
<text text-anchor="middle" x="664.5" y="-158" font-family="Helvetica,sans-Serif" font-size="10.00">stdexcept</text>
</a>
</g>
</g>
<!-- Node1&#45;&gt;Node13 -->
<g id="edge15" class="edge">
<title>Node1&#45;&gt;Node13</title>
<path fill="none" stroke="midnightblue" d="M508.05,-212.5C536.71,-203.6 582.85,-189.12 622.5,-176 625.09,-175.14 627.76,-174.25 630.45,-173.34"/>
<polygon fill="midnightblue" stroke="midnightblue" points="631.77,-176.58 640.11,-170.04 629.51,-169.96 631.77,-176.58"/>
</g>
<!-- Node14 -->
<g id="node14" class="node">
<title>Node14</title>
<g id="a_node14"><a xlink:title=" ">
<polygon fill="white" stroke="#bfbfbf" points="714.5,-145.5 714.5,-175.5 864.5,-175.5 864.5,-145.5 714.5,-145.5"/>
<text text-anchor="start" x="722.5" y="-163.5" font-family="Helvetica,sans-Serif" font-size="10.00">packages/utilities</text>
<text text-anchor="middle" x="789.5" y="-152.5" font-family="Helvetica,sans-Serif" font-size="10.00">/impl/linalghelper_impl.hpp</text>
</a>
</g>
</g>
<!-- Node1&#45;&gt;Node14 -->
<g id="edge16" class="edge">
<title>Node1&#45;&gt;Node14</title>
<path fill="none" stroke="midnightblue" d="M524.77,-212.48C572.1,-203.36 648.21,-188.71 706.71,-177.44"/>
<polygon fill="midnightblue" stroke="midnightblue" points="707.52,-180.85 716.67,-175.52 706.19,-173.98 707.52,-180.85"/>
</g>
<!-- Node5 -->
<g id="node5" class="node">
<title>Node5</title>
<g id="a_node5"><a xlink:title=" ">
<polygon fill="white" stroke="#bfbfbf" points="456,-84 456,-103 503,-103 503,-84 456,-84"/>
<text text-anchor="middle" x="479.5" y="-91" font-family="Helvetica,sans-Serif" font-size="10.00">vector</text>
</a>
</g>
</g>
<!-- Node4&#45;&gt;Node5 -->
<g id="edge4" class="edge">
<title>Node4&#45;&gt;Node5</title>
<path fill="none" stroke="midnightblue" d="M480.28,-145.4C480.14,-136.06 479.95,-123.71 479.79,-113.52"/>
<polygon fill="midnightblue" stroke="midnightblue" points="483.29,-113.14 479.63,-103.19 476.29,-113.25 483.29,-113.14"/>
</g>
<!-- Node6 -->
<g id="node6" class="node">
<title>Node6</title>
<g id="a_node6"><a xlink:title=" ">
<polygon fill="white" stroke="#bfbfbf" points="521,-84 521,-103 574,-103 574,-84 521,-84"/>
<text text-anchor="middle" x="547.5" y="-91" font-family="Helvetica,sans-Serif" font-size="10.00">stdint.h</text>
</a>
</g>
</g>
<!-- Node4&#45;&gt;Node6 -->
<g id="edge5" class="edge">
<title>Node4&#45;&gt;Node6</title>
<path fill="none" stroke="midnightblue" d="M495.04,-145.4C505.69,-135.06 520.16,-121.02 531.2,-110.31"/>
<polygon fill="midnightblue" stroke="midnightblue" points="533.8,-112.67 538.54,-103.19 528.92,-107.65 533.8,-112.67"/>
</g>
<!-- Node8 -->
<g id="node8" class="node">
<title>Node8</title>
<g id="a_node8"><a xlink:title=" ">
<polygon fill="white" stroke="#bfbfbf" points="501,-11.5 501,-30.5 578,-30.5 578,-11.5 501,-11.5"/>
<text text-anchor="middle" x="539.5" y="-18.5" font-family="Helvetica,sans-Serif" font-size="10.00">Eigen/Dense</text>
</a>
</g>
</g>
<!-- Node7&#45;&gt;Node8 -->
<g id="edge7" class="edge">
<title>Node7&#45;&gt;Node8</title>
<path fill="none" stroke="midnightblue" d="M354.31,-145.37C380.99,-125.38 428.59,-89.93 446.5,-78 469.45,-62.71 496.53,-46.61 515.54,-35.62"/>
<polygon fill="midnightblue" stroke="midnightblue" points="517.5,-38.53 524.42,-30.51 514.01,-32.46 517.5,-38.53"/>
</g>
<!-- Node9 -->
<g id="node9" class="node">
<title>Node9</title>
<g id="a_node9"><a xlink:href="EigenMatrix_8hpp.html" target="_top" xlink:title=" ">
<polygon fill="white" stroke="black" points="279,-78.5 279,-108.5 394,-108.5 394,-78.5 279,-78.5"/>
<text text-anchor="start" x="287" y="-96.5" font-family="Helvetica,sans-Serif" font-size="10.00">packages/matrix/inc</text>
<text text-anchor="middle" x="336.5" y="-85.5" font-family="Helvetica,sans-Serif" font-size="10.00">/EigenMatrix.hpp</text>
</a>
</g>
</g>
<!-- Node7&#45;&gt;Node9 -->
<g id="edge8" class="edge">
<title>Node7&#45;&gt;Node9</title>
<path fill="none" stroke="midnightblue" d="M335.72,-145.4C335.84,-137.64 335.99,-127.81 336.13,-118.86"/>
<polygon fill="midnightblue" stroke="midnightblue" points="339.63,-118.63 336.28,-108.58 332.63,-118.52 339.63,-118.63"/>
</g>
<!-- Node9&#45;&gt;Node2 -->
<g id="edge11" class="edge">
<title>Node9&#45;&gt;Node2</title>
<path fill="none" stroke="midnightblue" d="M283.03,-78.49C243.57,-68.15 189.28,-53.92 145.06,-42.33"/>
<polygon fill="midnightblue" stroke="midnightblue" points="145.77,-38.9 135.21,-39.75 144,-45.67 145.77,-38.9"/>
</g>
<!-- Node9&#45;&gt;Node3 -->
<g id="edge10" class="edge">
<title>Node9&#45;&gt;Node3</title>
<path fill="none" stroke="midnightblue" d="M310.9,-78.4C291.37,-67.64 264.26,-52.71 242.84,-40.92"/>
<polygon fill="midnightblue" stroke="midnightblue" points="244.5,-37.83 234.05,-36.07 241.12,-43.96 244.5,-37.83"/>
</g>
<!-- Node9&#45;&gt;Node8 -->
<g id="edge9" class="edge">
<title>Node9&#45;&gt;Node8</title>
<path fill="none" stroke="midnightblue" d="M383.64,-78.44C414.78,-68.86 456.37,-55.51 492.5,-42 498.61,-39.72 505.08,-37.1 511.21,-34.52"/>
<polygon fill="midnightblue" stroke="midnightblue" points="512.63,-37.72 520.45,-30.56 509.88,-31.28 512.63,-37.72"/>
</g>
<!-- Node10 -->
<g id="node10" class="node">
<title>Node10</title>
<g id="a_node10"><a xlink:title=" ">
<polygon fill="white" stroke="#bfbfbf" points="426,-11.5 426,-30.5 483,-30.5 483,-11.5 426,-11.5"/>
<text text-anchor="middle" x="454.5" y="-18.5" font-family="Helvetica,sans-Serif" font-size="10.00">ostream</text>
</a>
</g>
</g>
<!-- Node9&#45;&gt;Node10 -->
<g id="edge12" class="edge">
<title>Node9&#45;&gt;Node10</title>
<path fill="none" stroke="midnightblue" d="M360.1,-78.4C380.86,-66 410.91,-48.05 431.49,-35.75"/>
<polygon fill="midnightblue" stroke="midnightblue" points="433.43,-38.67 440.22,-30.53 429.84,-32.66 433.43,-38.67"/>
</g>
<!-- Node11 -->
<g id="node11" class="node">
<title>Node11</title>
<g id="a_node11"><a xlink:title=" ">
<polygon fill="white" stroke="#bfbfbf" points="281.5,-6 281.5,-36 407.5,-36 407.5,-6 281.5,-6"/>
<text text-anchor="start" x="289.5" y="-24" font-family="Helvetica,sans-Serif" font-size="10.00">packages/matrix/impl</text>
<text text-anchor="middle" x="344.5" y="-13" font-family="Helvetica,sans-Serif" font-size="10.00">/EigenMatrix_impl.hpp</text>
</a>
</g>
</g>
<!-- Node9&#45;&gt;Node11 -->
<g id="edge13" class="edge">
<title>Node9&#45;&gt;Node11</title>
<path fill="none" stroke="midnightblue" d="M338.12,-78.23C339.16,-69.06 340.54,-56.91 341.75,-46.24"/>
<polygon fill="midnightblue" stroke="midnightblue" points="345.23,-46.58 342.88,-36.25 338.28,-45.79 345.23,-46.58"/>
</g>
</g>
</svg>
