<?xml version="1.0" encoding="UTF-8" standalone="no"?>
<!DOCTYPE svg PUBLIC "-//W3C//DTD SVG 1.1//EN"
 "http://www.w3.org/Graphics/SVG/1.1/DTD/svg11.dtd">
<!-- Generated by graphviz version 2.43.0 (0)
 -->
<!-- Title: matrix_operators.hpp Pages: 1 -->
<!--zoomable 262 -->
<svg id="main" version="1.1" xmlns="http://www.w3.org/2000/svg" xmlns:xlink="http://www.w3.org/1999/xlink" xml:space="preserve" onload="init(evt)">
<style type="text/css"><![CDATA[
.edge:hover path { stroke: red; }
.edge:hover polygon { stroke: red; fill: red; }
]]></style>
<script type="text/javascript"><![CDATA[
var edges = document.getElementsByTagName('g');
if (edges && edges.length) {
  for (var i=0;i<edges.length;i++) {
    if (edges[i].id.substr(0,4)=='edge') {
      edges[i].setAttribute('class','edge');
    }
  }
}
]]></script>
        <defs>
                <circle id="rim" cx="0" cy="0" r="7"/>
                <circle id="rim2" cx="0" cy="0" r="3.5"/>
                <g id="zoomPlus">
                        <use xlink:href="#rim" fill="#404040">
                                <set attributeName="fill" to="#808080" begin="zoomplus.mouseover" end="zoomplus.mouseout"/>
                        </use>
                        <path d="M-4,0h8M0,-4v8" fill="none" stroke="white" stroke-width="1.5" pointer-events="none"/>
                </g>
                <g id="zoomMin">
                        <use xlink:href="#rim" fill="#404040">
                                <set attributeName="fill" to="#808080" begin="zoomminus.mouseover" end="zoomminus.mouseout"/>
                        </use>
                        <path d="M-4,0h8" fill="none" stroke="white" stroke-width="1.5" pointer-events="none"/>
                </g>
                <g id="dirArrow">
                        <path fill="none" stroke="white" stroke-width="1.5" d="M0,-3.0v7 M-2.5,-0.5L0,-3.0L2.5,-0.5"/>
                </g>
               <g id="resetDef">
                       <use xlink:href="#rim2" fill="#404040">
                               <set attributeName="fill" to="#808080" begin="reset.mouseover" end="reset.mouseout"/>
                       </use>
               </g>
        </defs>

<script type="text/javascript">
var viewWidth = 820;
var viewHeight = 262;
var sectionId = 'dynsection-0';
</script>
<script xlink:href="svgpan.js"/>
<svg id="graph" class="graph">
<g id="viewport">
<title>matrix_operators.hpp</title>
<polygon fill="white" stroke="transparent" points="-4,4 -4,-258 815.5,-258 815.5,4 -4,4"/>
<!-- Node1 -->
<g id="node1" class="node">
<title>Node1</title>
<g id="a_node1"><a xlink:title=" ">
<polygon fill="#bfbfbf" stroke="black" points="322.5,-234.5 322.5,-253.5 444.5,-253.5 444.5,-234.5 322.5,-234.5"/>
<text text-anchor="middle" x="383.5" y="-241.5" font-family="Helvetica,sans-Serif" font-size="10.00">matrix_operators.hpp</text>
</a>
</g>
</g>
<!-- Node2 -->
<g id="node2" class="node">
<title>Node2</title>
<g id="a_node2"><a target="_parent" xlink:href="../../../cieutils/docs/html/basic__concepts_8hpp.html.html" xlink:title=" ">
<polygon fill="white" stroke="black" points="16.5,-78.5 16.5,-119.5 148.5,-119.5 148.5,-78.5 16.5,-78.5"/>
<text text-anchor="start" x="24.5" y="-107.5" font-family="Helvetica,sans-Serif" font-size="10.00">packages/compile_time</text>
<text text-anchor="start" x="24.5" y="-96.5" font-family="Helvetica,sans-Serif" font-size="10.00">/packages/concepts/inc</text>
<text text-anchor="middle" x="82.5" y="-85.5" font-family="Helvetica,sans-Serif" font-size="10.00">/basic_concepts.hpp</text>
</a>
</g>
</g>
<!-- Node1&#45;&gt;Node2 -->
<g id="edge1" class="edge">
<title>Node1&#45;&gt;Node2</title>
<path fill="none" stroke="midnightblue" d="M322.24,-241.22C248.91,-237.77 132.15,-227.64 101.5,-198 83.52,-180.6 79.77,-151.66 79.93,-129.73"/>
<polygon fill="midnightblue" stroke="midnightblue" points="83.43,-129.72 80.27,-119.6 76.44,-129.48 83.43,-129.72"/>
</g>
<!-- Node3 -->
<g id="node3" class="node">
<title>Node3</title>
<g id="a_node3"><a xlink:href="StaticEigenMatrix_8hpp.html" target="_top" xlink:title=" ">
<polygon fill="white" stroke="black" points="244,-162 244,-192 371,-192 371,-162 244,-162"/>
<text text-anchor="start" x="252" y="-180" font-family="Helvetica,sans-Serif" font-size="10.00">packages/matrix/inc</text>
<text text-anchor="middle" x="307.5" y="-169" font-family="Helvetica,sans-Serif" font-size="10.00">/StaticEigenMatrix.hpp</text>
</a>
</g>
</g>
<!-- Node1&#45;&gt;Node3 -->
<g id="edge2" class="edge">
<title>Node1&#45;&gt;Node3</title>
<path fill="none" stroke="midnightblue" d="M373.25,-234.23C362.68,-225.2 345.82,-210.77 331.82,-198.8"/>
<polygon fill="midnightblue" stroke="midnightblue" points="333.85,-195.93 323.97,-192.09 329.3,-201.25 333.85,-195.93"/>
</g>
<!-- Node10 -->
<g id="node10" class="node">
<title>Node10</title>
<g id="a_node10"><a xlink:href="DynamicEigenMatrix_8hpp.html" target="_top" xlink:title=" ">
<polygon fill="white" stroke="black" points="389,-162 389,-192 532,-192 532,-162 389,-162"/>
<text text-anchor="start" x="397" y="-180" font-family="Helvetica,sans-Serif" font-size="10.00">packages/matrix/inc</text>
<text text-anchor="middle" x="460.5" y="-169" font-family="Helvetica,sans-Serif" font-size="10.00">/DynamicEigenMatrix.hpp</text>
</a>
</g>
</g>
<!-- Node1&#45;&gt;Node10 -->
<g id="edge10" class="edge">
<title>Node1&#45;&gt;Node10</title>
<path fill="none" stroke="midnightblue" d="M393.88,-234.23C404.59,-225.2 421.68,-210.77 435.86,-198.8"/>
<polygon fill="midnightblue" stroke="midnightblue" points="438.43,-201.21 443.81,-192.09 433.91,-195.87 438.43,-201.21"/>
</g>
<!-- Node11 -->
<g id="node11" class="node">
<title>Node11</title>
<g id="a_node11"><a xlink:href="concepts_8hpp.html" target="_top" xlink:title=" ">
<polygon fill="white" stroke="black" points="111,-162 111,-192 226,-192 226,-162 111,-162"/>
<text text-anchor="start" x="119" y="-180" font-family="Helvetica,sans-Serif" font-size="10.00">packages/matrix/inc</text>
<text text-anchor="middle" x="168.5" y="-169" font-family="Helvetica,sans-Serif" font-size="10.00">/concepts.hpp</text>
</a>
</g>
</g>
<!-- Node1&#45;&gt;Node11 -->
<g id="edge13" class="edge">
<title>Node1&#45;&gt;Node11</title>
<path fill="none" stroke="midnightblue" d="M355.21,-234.46C325.24,-225.42 276.53,-210.71 234.5,-198 231.35,-197.05 228.11,-196.07 224.85,-195.08"/>
<polygon fill="midnightblue" stroke="midnightblue" points="225.6,-191.65 215.01,-192.1 223.57,-198.35 225.6,-191.65"/>
</g>
<!-- Node13 -->
<g id="node13" class="node">
<title>Node13</title>
<g id="a_node13"><a xlink:href="EigenArray_8hpp.html" target="_top" xlink:title=" ">
<polygon fill="white" stroke="black" points="550,-162 550,-192 665,-192 665,-162 550,-162"/>
<text text-anchor="start" x="558" y="-180" font-family="Helvetica,sans-Serif" font-size="10.00">packages/matrix/inc</text>
<text text-anchor="middle" x="607.5" y="-169" font-family="Helvetica,sans-Serif" font-size="10.00">/EigenArray.hpp</text>
</a>
</g>
</g>
<!-- Node1&#45;&gt;Node13 -->
<g id="edge16" class="edge">
<title>Node1&#45;&gt;Node13</title>
<path fill="none" stroke="midnightblue" d="M414.13,-234.44C445.99,-225.5 497.31,-210.99 541.5,-198 544.82,-197.03 548.23,-196.02 551.66,-194.99"/>
<polygon fill="midnightblue" stroke="midnightblue" points="552.8,-198.31 561.37,-192.09 550.79,-191.6 552.8,-198.31"/>
</g>
<!-- Node14 -->
<g id="node14" class="node">
<title>Node14</title>
<g id="a_node14"><a xlink:title=" ">
<polygon fill="white" stroke="#bfbfbf" points="683.5,-156.5 683.5,-197.5 811.5,-197.5 811.5,-156.5 683.5,-156.5"/>
<text text-anchor="start" x="691.5" y="-185.5" font-family="Helvetica,sans-Serif" font-size="10.00">packages/overloads</text>
<text text-anchor="start" x="691.5" y="-174.5" font-family="Helvetica,sans-Serif" font-size="10.00">/impl/matrix_operators</text>
<text text-anchor="middle" x="747.5" y="-163.5" font-family="Helvetica,sans-Serif" font-size="10.00">_impl.hpp</text>
</a>
</g>
</g>
<!-- Node1&#45;&gt;Node14 -->
<g id="edge19" class="edge">
<title>Node1&#45;&gt;Node14</title>
<path fill="none" stroke="midnightblue" d="M444.62,-235.61C501.51,-228.27 588.8,-215.81 673.11,-198.19"/>
<polygon fill="midnightblue" stroke="midnightblue" points="674.05,-201.57 683.11,-196.07 672.6,-194.72 674.05,-201.57"/>
</g>
<!-- Node4 -->
<g id="node4" class="node">
<title>Node4</title>
<g id="a_node4"><a xlink:title=" ">
<polygon fill="white" stroke="#bfbfbf" points="501,-11.5 501,-30.5 578,-30.5 578,-11.5 501,-11.5"/>
<text text-anchor="middle" x="539.5" y="-18.5" font-family="Helvetica,sans-Serif" font-size="10.00">Eigen/Dense</text>
</a>
</g>
</g>
<!-- Node3&#45;&gt;Node4 -->
<g id="edge3" class="edge">
<title>Node3&#45;&gt;Node4</title>
<path fill="none" stroke="midnightblue" d="M328.91,-161.79C373.1,-132.45 473.98,-65.49 518.13,-36.18"/>
<polygon fill="midnightblue" stroke="midnightblue" points="520.26,-38.97 526.65,-30.53 516.39,-33.14 520.26,-38.97"/>
</g>
<!-- Node5 -->
<g id="node5" class="node">
<title>Node5</title>
<g id="a_node5"><a xlink:href="EigenMatrix_8hpp.html" target="_top" xlink:title=" ">
<polygon fill="white" stroke="black" points="266,-84 266,-114 381,-114 381,-84 266,-84"/>
<text text-anchor="start" x="274" y="-102" font-family="Helvetica,sans-Serif" font-size="10.00">packages/matrix/inc</text>
<text text-anchor="middle" x="323.5" y="-91" font-family="Helvetica,sans-Serif" font-size="10.00">/EigenMatrix.hpp</text>
</a>
</g>
</g>
<!-- Node3&#45;&gt;Node5 -->
<g id="edge4" class="edge">
<title>Node3&#45;&gt;Node5</title>
<path fill="none" stroke="midnightblue" d="M310.51,-161.7C312.72,-151.2 315.78,-136.66 318.38,-124.33"/>
<polygon fill="midnightblue" stroke="midnightblue" points="321.87,-124.74 320.5,-114.23 315.02,-123.3 321.87,-124.74"/>
</g>
<!-- Node5&#45;&gt;Node4 -->
<g id="edge5" class="edge">
<title>Node5&#45;&gt;Node4</title>
<path fill="none" stroke="midnightblue" d="M369.4,-83.92C403.6,-73.15 451.3,-57.56 492.5,-42 498.6,-39.7 505.07,-37.07 511.19,-34.49"/>
<polygon fill="midnightblue" stroke="midnightblue" points="512.62,-37.69 520.44,-30.53 509.87,-31.25 512.62,-37.69"/>
</g>
<!-- Node6 -->
<g id="node6" class="node">
<title>Node6</title>
<g id="a_node6"><a target="_parent" xlink:href="../../../cieutils/docs/html/types_8hpp.html.html" xlink:title=" ">
<polygon fill="white" stroke="black" points="219.5,-6 219.5,-36 329.5,-36 329.5,-6 219.5,-6"/>
<text text-anchor="start" x="227.5" y="-24" font-family="Helvetica,sans-Serif" font-size="10.00">packages/types/inc</text>
<text text-anchor="middle" x="274.5" y="-13" font-family="Helvetica,sans-Serif" font-size="10.00">/types.hpp</text>
</a>
</g>
</g>
<!-- Node5&#45;&gt;Node6 -->
<g id="edge6" class="edge">
<title>Node5&#45;&gt;Node6</title>
<path fill="none" stroke="midnightblue" d="M314.28,-83.7C307.23,-72.77 297.37,-57.48 289.23,-44.85"/>
<polygon fill="midnightblue" stroke="midnightblue" points="292.04,-42.74 283.68,-36.23 286.15,-46.53 292.04,-42.74"/>
</g>
<!-- Node7 -->
<g id="node7" class="node">
<title>Node7</title>
<g id="a_node7"><a target="_parent" xlink:href="../../../cieutils/docs/html/container__concepts_8hpp.html.html" xlink:title=" ">
<polygon fill="white" stroke="black" points="348,-0.5 348,-41.5 483,-41.5 483,-0.5 348,-0.5"/>
<text text-anchor="start" x="356" y="-29.5" font-family="Helvetica,sans-Serif" font-size="10.00">packages/compile_time</text>
<text text-anchor="start" x="356" y="-18.5" font-family="Helvetica,sans-Serif" font-size="10.00">/packages/concepts/inc</text>
<text text-anchor="middle" x="415.5" y="-7.5" font-family="Helvetica,sans-Serif" font-size="10.00">/container_concepts.hpp</text>
</a>
</g>
</g>
<!-- Node5&#45;&gt;Node7 -->
<g id="edge7" class="edge">
<title>Node5&#45;&gt;Node7</title>
<path fill="none" stroke="midnightblue" d="M340.8,-83.7C352.93,-73.69 369.47,-60.02 383.91,-48.09"/>
<polygon fill="midnightblue" stroke="midnightblue" points="386.2,-50.75 391.68,-41.68 381.74,-45.35 386.2,-50.75"/>
</g>
<!-- Node8 -->
<g id="node8" class="node">
<title>Node8</title>
<g id="a_node8"><a xlink:title=" ">
<polygon fill="white" stroke="#bfbfbf" points="0,-11.5 0,-30.5 57,-30.5 57,-11.5 0,-11.5"/>
<text text-anchor="middle" x="28.5" y="-18.5" font-family="Helvetica,sans-Serif" font-size="10.00">ostream</text>
</a>
</g>
</g>
<!-- Node5&#45;&gt;Node8 -->
<g id="edge8" class="edge">
<title>Node5&#45;&gt;Node8</title>
<path fill="none" stroke="midnightblue" d="M269.61,-83.99C261.22,-81.91 252.64,-79.85 244.5,-78 165.8,-60.09 142.54,-69.07 66.5,-42 61.45,-40.2 56.24,-37.84 51.36,-35.36"/>
<polygon fill="midnightblue" stroke="midnightblue" points="52.96,-32.25 42.5,-30.6 49.65,-38.42 52.96,-32.25"/>
</g>
<!-- Node9 -->
<g id="node9" class="node">
<title>Node9</title>
<g id="a_node9"><a xlink:title=" ">
<polygon fill="white" stroke="#bfbfbf" points="75.5,-6 75.5,-36 201.5,-36 201.5,-6 75.5,-6"/>
<text text-anchor="start" x="83.5" y="-24" font-family="Helvetica,sans-Serif" font-size="10.00">packages/matrix/impl</text>
<text text-anchor="middle" x="138.5" y="-13" font-family="Helvetica,sans-Serif" font-size="10.00">/EigenMatrix_impl.hpp</text>
</a>
</g>
</g>
<!-- Node5&#45;&gt;Node9 -->
<g id="edge9" class="edge">
<title>Node5&#45;&gt;Node9</title>
<path fill="none" stroke="midnightblue" d="M289.14,-83.88C258.89,-71.46 214.71,-53.31 182,-39.87"/>
<polygon fill="midnightblue" stroke="midnightblue" points="183.26,-36.6 172.68,-36.04 180.6,-43.08 183.26,-36.6"/>
</g>
<!-- Node10&#45;&gt;Node4 -->
<g id="edge11" class="edge">
<title>Node10&#45;&gt;Node4</title>
<path fill="none" stroke="midnightblue" d="M467.79,-161.79C482.27,-133.56 514.63,-70.48 530.45,-39.65"/>
<polygon fill="midnightblue" stroke="midnightblue" points="533.68,-41.02 535.13,-30.53 527.45,-37.83 533.68,-41.02"/>
</g>
<!-- Node10&#45;&gt;Node5 -->
<g id="edge12" class="edge">
<title>Node10&#45;&gt;Node5</title>
<path fill="none" stroke="midnightblue" d="M435.05,-161.88C413.23,-149.78 381.61,-132.24 357.6,-118.92"/>
<polygon fill="midnightblue" stroke="midnightblue" points="359.25,-115.83 348.81,-114.04 355.86,-121.95 359.25,-115.83"/>
</g>
<!-- Node11&#45;&gt;Node2 -->
<g id="edge15" class="edge">
<title>Node11&#45;&gt;Node2</title>
<path fill="none" stroke="midnightblue" d="M152.32,-161.7C141.1,-151.78 125.81,-138.27 112.4,-126.43"/>
<polygon fill="midnightblue" stroke="midnightblue" points="114.58,-123.68 104.77,-119.68 109.95,-128.92 114.58,-123.68"/>
</g>
<!-- Node12 -->
<g id="node12" class="node">
<title>Node12</title>
<g id="a_node12"><a xlink:title=" ">
<polygon fill="white" stroke="#bfbfbf" points="167,-89.5 167,-108.5 236,-108.5 236,-89.5 167,-89.5"/>
<text text-anchor="middle" x="201.5" y="-96.5" font-family="Helvetica,sans-Serif" font-size="10.00">Eigen/Core</text>
</a>
</g>
</g>
<!-- Node11&#45;&gt;Node12 -->
<g id="edge14" class="edge">
<title>Node11&#45;&gt;Node12</title>
<path fill="none" stroke="midnightblue" d="M174.71,-161.7C180.07,-149.35 187.85,-131.44 193.64,-118.1"/>
<polygon fill="midnightblue" stroke="midnightblue" points="197.01,-119.13 197.78,-108.56 190.59,-116.34 197.01,-119.13"/>
</g>
<!-- Node13&#45;&gt;Node4 -->
<g id="edge17" class="edge">
<title>Node13&#45;&gt;Node4</title>
<path fill="none" stroke="midnightblue" d="M601.22,-161.79C588.81,-133.68 561.15,-71.03 547.47,-40.05"/>
<polygon fill="midnightblue" stroke="midnightblue" points="550.51,-38.26 543.27,-30.53 544.1,-41.09 550.51,-38.26"/>
</g>
<!-- Node13&#45;&gt;Node5 -->
<g id="edge18" class="edge">
<title>Node13&#45;&gt;Node5</title>
<path fill="none" stroke="midnightblue" d="M562.13,-161.97C555.23,-159.92 548.19,-157.87 541.5,-156 491.23,-141.93 434.06,-127.3 390.88,-116.52"/>
<polygon fill="midnightblue" stroke="midnightblue" points="391.6,-113.09 381.05,-114.07 389.91,-119.88 391.6,-113.09"/>
</g>
</g>
</svg>
        <g id="navigator" transform="translate(0 0)" fill="#404254">
                <rect fill="#f2f5e9" fill-opacity="0.5" stroke="#606060" stroke-width=".5" x="0" y="0" width="60" height="60"/>
                <use id="zoomplus" xlink:href="#zoomPlus" x="17" y="9" onmousedown="handleZoom(evt,'in')"/>
                <use id="zoomminus" xlink:href="#zoomMin" x="42" y="9" onmousedown="handleZoom(evt,'out')"/>
                <use id="reset" xlink:href="#resetDef" x="30" y="36" onmousedown="handleReset()"/>
                <g id="arrowUp" xlink:href="#dirArrow" transform="translate(30 24)" onmousedown="handlePan(0,-1)">
                  <use xlink:href="#rim" fill="#404040">
                        <set attributeName="fill" to="#808080" begin="arrowUp.mouseover" end="arrowUp.mouseout"/>
                  </use>
                  <path fill="none" stroke="white" stroke-width="1.5" d="M0,-3.0v7 M-2.5,-0.5L0,-3.0L2.5,-0.5"/>
                </g>
                <g id="arrowRight" xlink:href="#dirArrow" transform="rotate(90) translate(36 -43)" onmousedown="handlePan(1,0)">
                  <use xlink:href="#rim" fill="#404040">
                        <set attributeName="fill" to="#808080" begin="arrowRight.mouseover" end="arrowRight.mouseout"/>
                  </use>
                  <path fill="none" stroke="white" stroke-width="1.5" d="M0,-3.0v7 M-2.5,-0.5L0,-3.0L2.5,-0.5"/>
                </g>
                <g id="arrowDown" xlink:href="#dirArrow" transform="rotate(180) translate(-30 -48)" onmousedown="handlePan(0,1)">
                  <use xlink:href="#rim" fill="#404040">
                        <set attributeName="fill" to="#808080" begin="arrowDown.mouseover" end="arrowDown.mouseout"/>
                  </use>
                  <path fill="none" stroke="white" stroke-width="1.5" d="M0,-3.0v7 M-2.5,-0.5L0,-3.0L2.5,-0.5"/>
                </g>
                <g id="arrowLeft" xlink:href="#dirArrow" transform="rotate(270) translate(-36 17)" onmousedown="handlePan(-1,0)">
                  <use xlink:href="#rim" fill="#404040">
                        <set attributeName="fill" to="#808080" begin="arrowLeft.mouseover" end="arrowLeft.mouseout"/>
                  </use>
                  <path fill="none" stroke="white" stroke-width="1.5" d="M0,-3.0v7 M-2.5,-0.5L0,-3.0L2.5,-0.5"/>
                </g>
        </g>
        <svg viewBox="0 0 15 15" width="100%" height="30px" preserveAspectRatio="xMaxYMin meet">
         <g id="arrow_out" transform="scale(0.3 0.3)">
          <a xlink:href="matrix__operators_8hpp__incl_org.svg" target="_base">
           <rect id="button" ry="5" rx="5" y="6" x="6" height="38" width="38"
                fill="#f2f5e9" fill-opacity="0.5" stroke="#606060" stroke-width="1.0"/>
           <path id="arrow"
             d="M 11.500037,31.436501 C 11.940474,20.09759 22.043105,11.32322 32.158766,21.979434 L 37.068811,17.246167 C 37.068811,17.246167 37.088388,32 37.088388,32 L 22.160133,31.978069 C 22.160133,31.978069 26.997745,27.140456 26.997745,27.140456 C 18.528582,18.264221 13.291696,25.230495 11.500037,31.436501 z"
             style="fill:#404040;"/>
          </a>
         </g>
        </svg>
</svg>
