<?xml version="1.0" encoding="UTF-8" standalone="no"?>
<!DOCTYPE svg PUBLIC "-//W3C//DTD SVG 1.1//EN"
 "http://www.w3.org/Graphics/SVG/1.1/DTD/svg11.dtd">
<!-- Generated by graphviz version 2.43.0 (0)
 -->
<!-- Title: matrix_operators.hpp Pages: 1 -->
<svg width="820pt" height="258pt"
 viewBox="0.00 0.00 819.50 258.00" xmlns="http://www.w3.org/2000/svg" xmlns:xlink="http://www.w3.org/1999/xlink">
<g id="graph0" class="graph" transform="scale(1 1) rotate(0) translate(4 254)">
<title>matrix_operators.hpp</title>
<!-- Node1 -->
<g id="Node000001" class="node">
<title>Node1</title>
<g id="a_Node000001"><a xlink:title=" ">
<polygon fill="#999999" stroke="#666666" points="444.5,-250 322.5,-250 322.5,-231 444.5,-231 444.5,-250"/>
<text text-anchor="middle" x="383.5" y="-238" font-family="Helvetica,sans-Serif" font-size="10.00">matrix_operators.hpp</text>
</a>
</g>
</g>
<!-- Node2 -->
<g id="Node000002" class="node">
<title>Node2</title>
<g id="a_Node000002"><a target="_parent" xlink:href="../../../cieutils/docs/html/basic__concepts_8hpp.html" xlink:title=" ">
<polygon fill="white" stroke="#666666" points="148.5,-118 16.5,-118 16.5,-77 148.5,-77 148.5,-118"/>
<text text-anchor="start" x="24.5" y="-106" font-family="Helvetica,sans-Serif" font-size="10.00">packages/compile_time</text>
<text text-anchor="start" x="24.5" y="-95" font-family="Helvetica,sans-Serif" font-size="10.00">/packages/concepts/inc</text>
<text text-anchor="middle" x="82.5" y="-84" font-family="Helvetica,sans-Serif" font-size="10.00">/basic_concepts.hpp</text>
</a>
</g>
</g>
<!-- Node1&#45;&gt;Node2 -->
<g id="edge1_Node000001_Node000002" class="edge">
<title>Node1&#45;&gt;Node2</title>
<g id="a_edge1_Node000001_Node000002"><a xlink:title=" ">
<path fill="none" stroke="#63b8ff" d="M322.26,-237.82C248.95,-234.49 132.21,-224.56 101.5,-195 83.93,-178.08 80.05,-149.99 80.06,-128.47"/>
<polygon fill="#63b8ff" stroke="#63b8ff" points="83.56,-128.3 80.34,-118.21 76.56,-128.11 83.56,-128.3"/>
</a>
</g>
</g>
<!-- Node3 -->
<g id="Node000003" class="node">
<title>Node3</title>
<g id="a_Node000003"><a xlink:href="StaticEigenMatrix_8hpp.html" target="_top" xlink:title=" ">
<polygon fill="white" stroke="#666666" points="371,-189.5 244,-189.5 244,-159.5 371,-159.5 371,-189.5"/>
<text text-anchor="start" x="252" y="-177.5" font-family="Helvetica,sans-Serif" font-size="10.00">packages/matrix/inc</text>
<text text-anchor="middle" x="307.5" y="-166.5" font-family="Helvetica,sans-Serif" font-size="10.00">/StaticEigenMatrix.hpp</text>
</a>
</g>
</g>
<!-- Node1&#45;&gt;Node3 -->
<g id="edge2_Node000001_Node000003" class="edge">
<title>Node1&#45;&gt;Node3</title>
<g id="a_edge2_Node000001_Node000003"><a xlink:title=" ">
<path fill="none" stroke="#63b8ff" d="M373.25,-230.87C362.75,-222.03 346.04,-207.95 332.09,-196.21"/>
<polygon fill="#63b8ff" stroke="#63b8ff" points="334.17,-193.38 324.26,-189.62 329.66,-198.73 334.17,-193.38"/>
</a>
</g>
</g>
<!-- Node10 -->
<g id="Node000010" class="node">
<title>Node10</title>
<g id="a_Node000010"><a xlink:href="DynamicEigenMatrix_8hpp.html" target="_top" xlink:title=" ">
<polygon fill="white" stroke="#666666" points="532,-189.5 389,-189.5 389,-159.5 532,-159.5 532,-189.5"/>
<text text-anchor="start" x="397" y="-177.5" font-family="Helvetica,sans-Serif" font-size="10.00">packages/matrix/inc</text>
<text text-anchor="middle" x="460.5" y="-166.5" font-family="Helvetica,sans-Serif" font-size="10.00">/DynamicEigenMatrix.hpp</text>
</a>
</g>
</g>
<!-- Node1&#45;&gt;Node10 -->
<g id="edge10_Node000001_Node000010" class="edge">
<title>Node1&#45;&gt;Node10</title>
<g id="a_edge10_Node000001_Node000010"><a xlink:title=" ">
<path fill="none" stroke="#63b8ff" d="M393.88,-230.87C404.52,-222.03 421.46,-207.95 435.59,-196.21"/>
<polygon fill="#63b8ff" stroke="#63b8ff" points="438.06,-198.7 443.52,-189.62 433.59,-193.32 438.06,-198.7"/>
</a>
</g>
</g>
<!-- Node11 -->
<g id="Node000011" class="node">
<title>Node11</title>
<g id="a_Node000011"><a xlink:href="concepts_8hpp.html" target="_top" xlink:title=" ">
<polygon fill="white" stroke="#666666" points="226,-189.5 111,-189.5 111,-159.5 226,-159.5 226,-189.5"/>
<text text-anchor="start" x="119" y="-177.5" font-family="Helvetica,sans-Serif" font-size="10.00">packages/matrix/inc</text>
<text text-anchor="middle" x="168.5" y="-166.5" font-family="Helvetica,sans-Serif" font-size="10.00">/concepts.hpp</text>
</a>
</g>
</g>
<!-- Node1&#45;&gt;Node11 -->
<g id="edge13_Node000001_Node000011" class="edge">
<title>Node1&#45;&gt;Node11</title>
<g id="a_edge13_Node000001_Node000011"><a xlink:title=" ">
<path fill="none" stroke="#63b8ff" d="M354.5,-230.87C321.61,-221.08 267.15,-204.87 225.64,-192.51"/>
<polygon fill="#63b8ff" stroke="#63b8ff" points="226.5,-189.11 215.92,-189.62 224.51,-195.82 226.5,-189.11"/>
</a>
</g>
</g>
<!-- Node13 -->
<g id="Node000013" class="node">
<title>Node13</title>
<g id="a_Node000013"><a xlink:href="EigenArray_8hpp.html" target="_top" xlink:title=" ">
<polygon fill="white" stroke="#666666" points="665,-189.5 550,-189.5 550,-159.5 665,-159.5 665,-189.5"/>
<text text-anchor="start" x="558" y="-177.5" font-family="Helvetica,sans-Serif" font-size="10.00">packages/matrix/inc</text>
<text text-anchor="middle" x="607.5" y="-166.5" font-family="Helvetica,sans-Serif" font-size="10.00">/EigenArray.hpp</text>
</a>
</g>
</g>
<!-- Node1&#45;&gt;Node13 -->
<g id="edge16_Node000001_Node000013" class="edge">
<title>Node1&#45;&gt;Node13</title>
<g id="a_edge16_Node000001_Node000013"><a xlink:title=" ">
<path fill="none" stroke="#63b8ff" d="M414.41,-230.92C446.29,-222.04 497.42,-207.72 541.5,-195 544.45,-194.15 547.47,-193.27 550.51,-192.39"/>
<polygon fill="#63b8ff" stroke="#63b8ff" points="551.68,-195.69 560.29,-189.53 549.71,-188.97 551.68,-195.69"/>
</a>
</g>
</g>
<!-- Node14 -->
<g id="Node000014" class="node">
<title>Node14</title>
<g id="a_Node000014"><a xlink:title=" ">
<polygon fill="#e0e0e0" stroke="#999999" points="811.5,-195 683.5,-195 683.5,-154 811.5,-154 811.5,-195"/>
<text text-anchor="start" x="691.5" y="-183" font-family="Helvetica,sans-Serif" font-size="10.00">packages/overloads</text>
<text text-anchor="start" x="691.5" y="-172" font-family="Helvetica,sans-Serif" font-size="10.00">/impl/matrix_operators</text>
<text text-anchor="middle" x="747.5" y="-161" font-family="Helvetica,sans-Serif" font-size="10.00">_impl.hpp</text>
</a>
</g>
</g>
<!-- Node1&#45;&gt;Node14 -->
<g id="edge19_Node000001_Node000014" class="edge">
<title>Node1&#45;&gt;Node14</title>
<g id="a_edge19_Node000001_Node000014"><a xlink:title=" ">
<path fill="none" stroke="#63b8ff" d="M444.6,-232.13C501.47,-224.83 588.75,-212.48 673.1,-195.19"/>
<polygon fill="#63b8ff" stroke="#63b8ff" points="674.03,-198.57 683.1,-193.11 672.6,-191.72 674.03,-198.57"/>
</a>
</g>
</g>
<!-- Node4 -->
<g id="Node000004" class="node">
<title>Node4</title>
<g id="a_Node000004"><a xlink:title=" ">
<polygon fill="#e0e0e0" stroke="#999999" points="578,-30 501,-30 501,-11 578,-11 578,-30"/>
<text text-anchor="middle" x="539.5" y="-18" font-family="Helvetica,sans-Serif" font-size="10.00">Eigen/Dense</text>
</a>
</g>
</g>
<!-- Node3&#45;&gt;Node4 -->
<g id="edge3_Node000003_Node000004" class="edge">
<title>Node3&#45;&gt;Node4</title>
<g id="a_edge3_Node000003_Node000004"><a xlink:title=" ">
<path fill="none" stroke="#63b8ff" d="M328.91,-159.47C373,-130.59 473.5,-64.74 517.82,-35.7"/>
<polygon fill="#63b8ff" stroke="#63b8ff" points="519.94,-38.5 526.38,-30.09 516.1,-32.65 519.94,-38.5"/>
</a>
</g>
</g>
<!-- Node5 -->
<g id="Node000005" class="node">
<title>Node5</title>
<g id="a_Node000005"><a xlink:href="EigenMatrix_8hpp.html" target="_top" xlink:title=" ">
<polygon fill="white" stroke="#666666" points="381,-112.5 266,-112.5 266,-82.5 381,-82.5 381,-112.5"/>
<text text-anchor="start" x="274" y="-100.5" font-family="Helvetica,sans-Serif" font-size="10.00">packages/matrix/inc</text>
<text text-anchor="middle" x="323.5" y="-89.5" font-family="Helvetica,sans-Serif" font-size="10.00">/EigenMatrix.hpp</text>
</a>
</g>
</g>
<!-- Node3&#45;&gt;Node5 -->
<g id="edge4_Node000003_Node000005" class="edge">
<title>Node3&#45;&gt;Node5</title>
<g id="a_edge4_Node000003_Node000005"><a xlink:title=" ">
<path fill="none" stroke="#63b8ff" d="M310.51,-159.39C312.72,-149.02 315.78,-134.68 318.38,-122.51"/>
<polygon fill="#63b8ff" stroke="#63b8ff" points="321.84,-123.05 320.5,-112.54 314.99,-121.59 321.84,-123.05"/>
</a>
</g>
</g>
<!-- Node5&#45;&gt;Node4 -->
<g id="edge5_Node000005_Node000004" class="edge">
<title>Node5&#45;&gt;Node4</title>
<g id="a_edge5_Node000005_Node000004"><a xlink:title=" ">
<path fill="none" stroke="#63b8ff" d="M369.37,-82.47C403.55,-71.77 451.24,-56.31 492.5,-41 498.23,-38.87 504.3,-36.47 510.1,-34.1"/>
<polygon fill="#63b8ff" stroke="#63b8ff" points="511.62,-37.26 519.51,-30.19 508.93,-30.8 511.62,-37.26"/>
</a>
</g>
</g>
<!-- Node6 -->
<g id="Node000006" class="node">
<title>Node6</title>
<g id="a_Node000006"><a target="_parent" xlink:href="../../../cieutils/docs/html/types_8hpp.html" xlink:title=" ">
<polygon fill="white" stroke="#666666" points="329.5,-35.5 219.5,-35.5 219.5,-5.5 329.5,-5.5 329.5,-35.5"/>
<text text-anchor="start" x="227.5" y="-23.5" font-family="Helvetica,sans-Serif" font-size="10.00">packages/types/inc</text>
<text text-anchor="middle" x="274.5" y="-12.5" font-family="Helvetica,sans-Serif" font-size="10.00">/types.hpp</text>
</a>
</g>
</g>
<!-- Node5&#45;&gt;Node6 -->
<g id="edge6_Node000005_Node000006" class="edge">
<title>Node5&#45;&gt;Node6</title>
<g id="a_edge6_Node000005_Node000006"><a xlink:title=" ">
<path fill="none" stroke="#63b8ff" d="M314.28,-82.39C307.23,-71.6 297.37,-56.51 289.23,-44.05"/>
<polygon fill="#63b8ff" stroke="#63b8ff" points="292.07,-42 283.68,-35.54 286.21,-45.83 292.07,-42"/>
</a>
</g>
</g>
<!-- Node7 -->
<g id="Node000007" class="node">
<title>Node7</title>
<g id="a_Node000007"><a target="_parent" xlink:href="../../../cieutils/docs/html/container__concepts_8hpp.html" xlink:title=" ">
<polygon fill="white" stroke="#666666" points="483,-41 348,-41 348,0 483,0 483,-41"/>
<text text-anchor="start" x="356" y="-29" font-family="Helvetica,sans-Serif" font-size="10.00">packages/compile_time</text>
<text text-anchor="start" x="356" y="-18" font-family="Helvetica,sans-Serif" font-size="10.00">/packages/concepts/inc</text>
<text text-anchor="middle" x="415.5" y="-7" font-family="Helvetica,sans-Serif" font-size="10.00">/container_concepts.hpp</text>
</a>
</g>
</g>
<!-- Node5&#45;&gt;Node7 -->
<g id="edge7_Node000005_Node000007" class="edge">
<title>Node5&#45;&gt;Node7</title>
<g id="a_edge7_Node000005_Node000007"><a xlink:title=" ">
<path fill="none" stroke="#63b8ff" d="M340.8,-82.39C352.73,-72.67 368.93,-59.46 383.2,-47.83"/>
<polygon fill="#63b8ff" stroke="#63b8ff" points="385.79,-50.24 391.33,-41.2 381.37,-44.81 385.79,-50.24"/>
</a>
</g>
</g>
<!-- Node8 -->
<g id="Node000008" class="node">
<title>Node8</title>
<g id="a_Node000008"><a xlink:title=" ">
<polygon fill="#e0e0e0" stroke="#999999" points="57,-30 0,-30 0,-11 57,-11 57,-30"/>
<text text-anchor="middle" x="28.5" y="-18" font-family="Helvetica,sans-Serif" font-size="10.00">ostream</text>
</a>
</g>
</g>
<!-- Node5&#45;&gt;Node8 -->
<g id="edge8_Node000005_Node000008" class="edge">
<title>Node5&#45;&gt;Node8</title>
<g id="a_edge8_Node000005_Node000008"><a xlink:title=" ">
<path fill="none" stroke="#63b8ff" d="M267.89,-82.46C260.05,-80.57 252.08,-78.7 244.5,-77 165.75,-59.32 142.68,-67.68 66.5,-41 61.68,-39.31 56.7,-37.12 52,-34.82"/>
<polygon fill="#63b8ff" stroke="#63b8ff" points="53.37,-31.58 42.88,-30.07 50.13,-37.79 53.37,-31.58"/>
</a>
</g>
</g>
<!-- Node9 -->
<g id="Node000009" class="node">
<title>Node9</title>
<g id="a_Node000009"><a xlink:title=" ">
<polygon fill="#e0e0e0" stroke="#999999" points="201.5,-35.5 75.5,-35.5 75.5,-5.5 201.5,-5.5 201.5,-35.5"/>
<text text-anchor="start" x="83.5" y="-23.5" font-family="Helvetica,sans-Serif" font-size="10.00">packages/matrix/impl</text>
<text text-anchor="middle" x="138.5" y="-12.5" font-family="Helvetica,sans-Serif" font-size="10.00">/EigenMatrix_impl.hpp</text>
</a>
</g>
</g>
<!-- Node5&#45;&gt;Node9 -->
<g id="edge9_Node000005_Node000009" class="edge">
<title>Node5&#45;&gt;Node9</title>
<g id="a_edge9_Node000005_Node000009"><a xlink:title=" ">
<path fill="none" stroke="#63b8ff" d="M288.7,-82.39C258.6,-70.19 214.92,-52.48 182.42,-39.3"/>
<polygon fill="#63b8ff" stroke="#63b8ff" points="183.72,-36.06 173.14,-35.54 181.09,-42.54 183.72,-36.06"/>
</a>
</g>
</g>
<!-- Node10&#45;&gt;Node4 -->
<g id="edge11_Node000010_Node000004" class="edge">
<title>Node10&#45;&gt;Node4</title>
<g id="a_edge11_Node000010_Node000004"><a xlink:title=" ">
<path fill="none" stroke="#63b8ff" d="M467.79,-159.47C482.2,-131.74 514.32,-69.94 530.22,-39.36"/>
<polygon fill="#63b8ff" stroke="#63b8ff" points="533.43,-40.76 534.94,-30.27 527.22,-37.53 533.43,-40.76"/>
</a>
</g>
</g>
<!-- Node10&#45;&gt;Node5 -->
<g id="edge12_Node000010_Node000005" class="edge">
<title>Node10&#45;&gt;Node5</title>
<g id="a_edge12_Node000010_Node000005"><a xlink:title=" ">
<path fill="none" stroke="#63b8ff" d="M434.73,-159.39C413.11,-147.56 382.03,-130.54 358.21,-117.5"/>
<polygon fill="#63b8ff" stroke="#63b8ff" points="359.61,-114.28 349.15,-112.54 356.24,-120.42 359.61,-114.28"/>
</a>
</g>
</g>
<!-- Node11&#45;&gt;Node2 -->
<g id="edge15_Node000011_Node000002" class="edge">
<title>Node11&#45;&gt;Node2</title>
<g id="a_edge15_Node000011_Node000002"><a xlink:title=" ">
<path fill="none" stroke="#63b8ff" d="M152.32,-159.39C141.18,-149.67 126.03,-136.46 112.69,-124.83"/>
<polygon fill="#63b8ff" stroke="#63b8ff" points="114.93,-122.14 105.09,-118.2 110.33,-127.41 114.93,-122.14"/>
</a>
</g>
</g>
<!-- Node12 -->
<g id="Node000012" class="node">
<title>Node12</title>
<g id="a_Node000012"><a xlink:title=" ">
<polygon fill="#e0e0e0" stroke="#999999" points="236,-107 167,-107 167,-88 236,-88 236,-107"/>
<text text-anchor="middle" x="201.5" y="-95" font-family="Helvetica,sans-Serif" font-size="10.00">Eigen/Core</text>
</a>
</g>
</g>
<!-- Node11&#45;&gt;Node12 -->
<g id="edge14_Node000011_Node000012" class="edge">
<title>Node11&#45;&gt;Node12</title>
<g id="a_edge14_Node000011_Node000012"><a xlink:title=" ">
<path fill="none" stroke="#63b8ff" d="M174.71,-159.39C180.01,-147.34 187.68,-129.92 193.45,-116.79"/>
<polygon fill="#63b8ff" stroke="#63b8ff" points="196.77,-117.94 197.6,-107.37 190.36,-115.12 196.77,-117.94"/>
</a>
</g>
</g>
<!-- Node13&#45;&gt;Node4 -->
<g id="edge17_Node000013_Node000004" class="edge">
<title>Node13&#45;&gt;Node4</title>
<g id="a_edge17_Node000013_Node000004"><a xlink:title=" ">
<path fill="none" stroke="#63b8ff" d="M601.22,-159.47C588.87,-131.86 561.41,-70.48 547.67,-39.76"/>
<polygon fill="#63b8ff" stroke="#63b8ff" points="550.7,-37.97 543.43,-30.27 544.31,-40.83 550.7,-37.97"/>
</a>
</g>
</g>
<!-- Node13&#45;&gt;Node5 -->
<g id="edge18_Node000013_Node000005" class="edge">
<title>Node13&#45;&gt;Node5</title>
<g id="a_edge18_Node000013_Node000005"><a xlink:title=" ">
<path fill="none" stroke="#63b8ff" d="M560.69,-159.43C554.25,-157.57 547.72,-155.71 541.5,-154 491.19,-140.17 434.02,-125.66 390.85,-114.95"/>
<polygon fill="#63b8ff" stroke="#63b8ff" points="391.58,-111.52 381.03,-112.51 389.9,-118.31 391.58,-111.52"/>
</a>
</g>
</g>
</g>
</svg>
