<?xml version="1.0" encoding="UTF-8" standalone="no"?>
<!DOCTYPE svg PUBLIC "-//W3C//DTD SVG 1.1//EN"
 "http://www.w3.org/Graphics/SVG/1.1/DTD/svg11.dtd">
<!-- Generated by graphviz version 2.43.0 (0)
 -->
<!-- Title: Quaternion.hpp Pages: 1 -->
<svg width="494pt" height="104pt"
 viewBox="0.00 0.00 494.00 104.00" xmlns="http://www.w3.org/2000/svg" xmlns:xlink="http://www.w3.org/1999/xlink">

<svg id="main" version="1.1" xmlns="http://www.w3.org/2000/svg" xmlns:xlink="http://www.w3.org/1999/xlink" xml:space="preserve" onload="init(evt)">
<style type="text/css"><![CDATA[
.node, .edge {opacity: 0.7;}
.node.selected, .edge.selected {opacity: 1;}
.edge:hover path { stroke: red; }
.edge:hover polygon { stroke: red; fill: red; }
]]></style>
<script type="application/ecmascript" xlink:href="svg.min.js"/>
<svg id="graph" class="graph">
<g id="graph0" class="graph" transform="scale(1 1) rotate(0) translate(4 100)">
<title>Quaternion.hpp</title>
<!-- Node1 -->
<g id="Node000001" class="node">
<title>Node1</title>
<g id="a_Node000001"><a xlink:title=" ">
<polygon fill="#999999" stroke="#666666" points="316.5,-96 224.5,-96 224.5,-77 316.5,-77 316.5,-96"/>
<text text-anchor="middle" x="270.5" y="-84" font-family="Helvetica,sans-Serif" font-size="10.00">Quaternion.hpp</text>
</a>
</g>
</g>
<!-- Node2 -->
<g id="Node000002" class="node">
<title>Node2</title>
<g id="a_Node000002"><a target="_parent" xlink:href="../../../cieutils/docs/html/container__concepts_8hpp.html" xlink:title=" ">
<polygon fill="white" stroke="#666666" points="135,-41 0,-41 0,0 135,0 135,-41"/>
<text text-anchor="start" x="8" y="-29" font-family="Helvetica,sans-Serif" font-size="10.00">packages/compile_time</text>
<text text-anchor="start" x="8" y="-18" font-family="Helvetica,sans-Serif" font-size="10.00">/packages/concepts/inc</text>
<text text-anchor="middle" x="67.5" y="-7" font-family="Helvetica,sans-Serif" font-size="10.00">/container_concepts.hpp</text>
</a>
</g>
</g>
<!-- Node1&#45;&gt;Node2 -->
<g id="edge1_Node000001_Node000002" class="edge">
<title>Node1&#45;&gt;Node2</title>
<g id="a_edge1_Node000001_Node000002"><a xlink:title=" ">
<path fill="none" stroke="#63b8ff" d="M243.12,-76.87C216.61,-68.51 175.27,-55.48 139.35,-44.15"/>
<polygon fill="#63b8ff" stroke="#63b8ff" points="139.97,-40.68 129.38,-41.01 137.87,-47.35 139.97,-40.68"/>
</a>
</g>
</g>
<!-- Node3 -->
<g id="Node000003" class="node">
<title>Node3</title>
<g id="a_Node000003"><a target="_parent" xlink:href="../../../cieutils/docs/html/StaticArray_8hpp.html" xlink:title=" ">
<polygon fill="white" stroke="#666666" points="284,-35.5 153,-35.5 153,-5.5 284,-5.5 284,-35.5"/>
<text text-anchor="start" x="161" y="-23.5" font-family="Helvetica,sans-Serif" font-size="10.00">packages/stl_extension</text>
<text text-anchor="middle" x="218.5" y="-12.5" font-family="Helvetica,sans-Serif" font-size="10.00">/inc/StaticArray.hpp</text>
</a>
</g>
</g>
<!-- Node1&#45;&gt;Node3 -->
<g id="edge2_Node000001_Node000003" class="edge">
<title>Node1&#45;&gt;Node3</title>
<g id="a_edge2_Node000001_Node000003"><a xlink:title=" ">
<path fill="none" stroke="#63b8ff" d="M263.49,-76.87C256.62,-68.41 245.86,-55.17 236.58,-43.75"/>
<polygon fill="#63b8ff" stroke="#63b8ff" points="239.19,-41.41 230.17,-35.86 233.76,-45.83 239.19,-41.41"/>
</a>
</g>
</g>
<!-- Node4 -->
<g id="Node000004" class="node">
<title>Node4</title>
<g id="a_Node000004"><a xlink:title=" ">
<polygon fill="#e0e0e0" stroke="#999999" points="344.5,-30 302.5,-30 302.5,-11 344.5,-11 344.5,-30"/>
<text text-anchor="middle" x="323.5" y="-18" font-family="Helvetica,sans-Serif" font-size="10.00">array</text>
</a>
</g>
</g>
<!-- Node1&#45;&gt;Node4 -->
<g id="edge3_Node000001_Node000004" class="edge">
<title>Node1&#45;&gt;Node4</title>
<g id="a_edge3_Node000001_Node000004"><a xlink:title=" ">
<path fill="none" stroke="#63b8ff" d="M277.65,-76.87C285.82,-67 299.39,-50.61 309.66,-38.22"/>
<polygon fill="#63b8ff" stroke="#63b8ff" points="312.44,-40.34 316.13,-30.41 307.05,-35.87 312.44,-40.34"/>
</a>
</g>
</g>
<!-- Node5 -->
<g id="Node000005" class="node">
<title>Node5</title>
<g id="a_Node000005"><a xlink:title=" ">
<polygon fill="#e0e0e0" stroke="#999999" points="486,-35.5 363,-35.5 363,-5.5 486,-5.5 486,-35.5"/>
<text text-anchor="start" x="371" y="-23.5" font-family="Helvetica,sans-Serif" font-size="10.00">packages/spatial/impl</text>
<text text-anchor="middle" x="424.5" y="-12.5" font-family="Helvetica,sans-Serif" font-size="10.00">/Quaternion_impl.hpp</text>
</a>
</g>
</g>
<!-- Node1&#45;&gt;Node5 -->
<g id="edge4_Node000001_Node000005" class="edge">
<title>Node1&#45;&gt;Node5</title>
<g id="a_edge4_Node000001_Node000005"><a xlink:title=" ">
<path fill="none" stroke="#63b8ff" d="M291.27,-76.87C314.23,-67.32 351.87,-51.68 381.3,-39.45"/>
<polygon fill="#63b8ff" stroke="#63b8ff" points="382.64,-42.69 390.53,-35.62 379.96,-36.22 382.64,-42.69"/>
</a>
</g>
</g>
</g>
</svg>
</svg>

<style type='text/css'>
<![CDATA[
[data-mouse-over-selected='false'] { opacity: 0.7; }
[data-mouse-over-selected='true']  { opacity: 1.0; }
]]>
</style>
<script type="application/ecmascript"><![CDATA[
document.addEventListener('DOMContentLoaded', (event) => {
  highlightEdges();
  highlightAdjacentNodes();
});
]]></script>
</svg>
