<?xml version="1.0" encoding="UTF-8" standalone="no"?>
<!DOCTYPE svg PUBLIC "-//W3C//DTD SVG 1.1//EN"
 "http://www.w3.org/Graphics/SVG/1.1/DTD/svg11.dtd">
<!-- Generated by graphviz version 2.43.0 (0)
 -->
<!-- Title: sparse.hpp Pages: 1 -->
<svg width="927pt" height="247pt"
 viewBox="0.00 0.00 927.00 247.00" xmlns="http://www.w3.org/2000/svg" xmlns:xlink="http://www.w3.org/1999/xlink">
<g id="graph0" class="graph" transform="scale(1 1) rotate(0) translate(4 243)">
<title>sparse.hpp</title>
<!-- Node1 -->
<g id="Node000001" class="node">
<title>Node1</title>
<g id="a_Node000001"><a xlink:title=" ">
<polygon fill="#999999" stroke="#666666" points="665.5,-239 595.5,-239 595.5,-220 665.5,-220 665.5,-239"/>
<text text-anchor="middle" x="630.5" y="-227" font-family="Helvetica,sans-Serif" font-size="10.00">sparse.hpp</text>
</a>
</g>
</g>
<!-- Node2 -->
<g id="Node000002" class="node">
<title>Node2</title>
<g id="a_Node000002"><a xlink:href="DynamicEigenMatrix_8hpp.html" target="_top" xlink:title=" ">
<polygon fill="white" stroke="#666666" points="305,-178.5 162,-178.5 162,-148.5 305,-148.5 305,-178.5"/>
<text text-anchor="start" x="170" y="-166.5" font-family="Helvetica,sans-Serif" font-size="10.00">packages/matrix/inc</text>
<text text-anchor="middle" x="233.5" y="-155.5" font-family="Helvetica,sans-Serif" font-size="10.00">/DynamicEigenMatrix.hpp</text>
</a>
</g>
</g>
<!-- Node1&#45;&gt;Node2 -->
<g id="edge1_Node000001_Node000002" class="edge">
<title>Node1&#45;&gt;Node2</title>
<g id="a_edge1_Node000001_Node000002"><a xlink:title=" ">
<path fill="none" stroke="#63b8ff" d="M595.27,-222.82C532.84,-212.76 401.28,-191.55 315.2,-177.67"/>
<polygon fill="#63b8ff" stroke="#63b8ff" points="315.63,-174.19 305.2,-176.06 314.52,-181.11 315.63,-174.19"/>
</a>
</g>
</g>
<!-- Node5 -->
<g id="Node000005" class="node">
<title>Node5</title>
<g id="a_Node000005"><a target="_parent" xlink:href="../../../cieutils/docs/html/types_8hpp.html" xlink:title=" ">
<polygon fill="white" stroke="#666666" points="578.5,-35.5 468.5,-35.5 468.5,-5.5 578.5,-5.5 578.5,-35.5"/>
<text text-anchor="start" x="476.5" y="-23.5" font-family="Helvetica,sans-Serif" font-size="10.00">packages/types/inc</text>
<text text-anchor="middle" x="523.5" y="-12.5" font-family="Helvetica,sans-Serif" font-size="10.00">/types.hpp</text>
</a>
</g>
</g>
<!-- Node1&#45;&gt;Node5 -->
<g id="edge10_Node000001_Node000005" class="edge">
<title>Node1&#45;&gt;Node5</title>
<g id="a_edge10_Node000001_Node000005"><a xlink:title=" ">
<path fill="none" stroke="#63b8ff" d="M595.3,-225.04C547.39,-219.53 465.53,-206.94 447.5,-184 412.4,-139.34 465.88,-75.84 499.55,-43.01"/>
<polygon fill="#63b8ff" stroke="#63b8ff" points="502.37,-45.15 507.21,-35.73 497.55,-40.08 502.37,-45.15"/>
</a>
</g>
</g>
<!-- Node9 -->
<g id="Node000009" class="node">
<title>Node9</title>
<g id="a_Node000009"><a target="_parent" xlink:href="../../../cieutils/docs/html/basic__concepts_8hpp.html" xlink:title=" ">
<polygon fill="white" stroke="#666666" points="588.5,-184 456.5,-184 456.5,-143 588.5,-143 588.5,-184"/>
<text text-anchor="start" x="464.5" y="-172" font-family="Helvetica,sans-Serif" font-size="10.00">packages/compile_time</text>
<text text-anchor="start" x="464.5" y="-161" font-family="Helvetica,sans-Serif" font-size="10.00">/packages/concepts/inc</text>
<text text-anchor="middle" x="522.5" y="-150" font-family="Helvetica,sans-Serif" font-size="10.00">/basic_concepts.hpp</text>
</a>
</g>
</g>
<!-- Node1&#45;&gt;Node9 -->
<g id="edge9_Node000001_Node000009" class="edge">
<title>Node1&#45;&gt;Node9</title>
<g id="a_edge9_Node000001_Node000009"><a xlink:title=" ">
<path fill="none" stroke="#63b8ff" d="M615.93,-219.87C602.67,-212.01 582.44,-200.02 564.18,-189.2"/>
<polygon fill="#63b8ff" stroke="#63b8ff" points="565.81,-186.1 555.42,-184.01 562.24,-192.12 565.81,-186.1"/>
</a>
</g>
</g>
<!-- Node10 -->
<g id="Node000010" class="node">
<title>Node10</title>
<g id="a_Node000010"><a xlink:title=" ">
<polygon fill="#e0e0e0" stroke="#999999" points="654,-173 607,-173 607,-154 654,-154 654,-173"/>
<text text-anchor="middle" x="630.5" y="-161" font-family="Helvetica,sans-Serif" font-size="10.00">vector</text>
</a>
</g>
</g>
<!-- Node1&#45;&gt;Node10 -->
<g id="edge11_Node000001_Node000010" class="edge">
<title>Node1&#45;&gt;Node10</title>
<g id="a_edge11_Node000001_Node000010"><a xlink:title=" ">
<path fill="none" stroke="#63b8ff" d="M630.5,-219.87C630.5,-210.66 630.5,-195.79 630.5,-183.77"/>
<polygon fill="#63b8ff" stroke="#63b8ff" points="634,-183.41 630.5,-173.41 627,-183.41 634,-183.41"/>
</a>
</g>
</g>
<!-- Node11 -->
<g id="Node000011" class="node">
<title>Node11</title>
<g id="a_Node000011"><a xlink:title=" ">
<polygon fill="#e0e0e0" stroke="#999999" points="713,-173 672,-173 672,-154 713,-154 713,-173"/>
<text text-anchor="middle" x="692.5" y="-161" font-family="Helvetica,sans-Serif" font-size="10.00">tuple</text>
</a>
</g>
</g>
<!-- Node1&#45;&gt;Node11 -->
<g id="edge12_Node000001_Node000011" class="edge">
<title>Node1&#45;&gt;Node11</title>
<g id="a_edge12_Node000001_Node000011"><a xlink:title=" ">
<path fill="none" stroke="#63b8ff" d="M638.86,-219.87C648.51,-209.9 664.61,-193.29 676.65,-180.86"/>
<polygon fill="#63b8ff" stroke="#63b8ff" points="679.43,-183.02 683.87,-173.41 674.4,-178.15 679.43,-183.02"/>
</a>
</g>
</g>
<!-- Node12 -->
<g id="Node000012" class="node">
<title>Node12</title>
<g id="a_Node000012"><a xlink:title=" ">
<polygon fill="#e0e0e0" stroke="#999999" points="784,-173 731,-173 731,-154 784,-154 784,-173"/>
<text text-anchor="middle" x="757.5" y="-161" font-family="Helvetica,sans-Serif" font-size="10.00">cstddef</text>
</a>
</g>
</g>
<!-- Node1&#45;&gt;Node12 -->
<g id="edge13_Node000001_Node000012" class="edge">
<title>Node1&#45;&gt;Node12</title>
<g id="a_edge13_Node000001_Node000012"><a xlink:title=" ">
<path fill="none" stroke="#63b8ff" d="M648.98,-219.94C667.67,-211.2 697.31,-197.09 722.5,-184 726.15,-182.11 729.97,-180.05 733.7,-178"/>
<polygon fill="#63b8ff" stroke="#63b8ff" points="735.58,-180.96 742.62,-173.04 732.17,-174.84 735.58,-180.96"/>
</a>
</g>
</g>
<!-- Node13 -->
<g id="Node000013" class="node">
<title>Node13</title>
<g id="a_Node000013"><a xlink:title=" ">
<polygon fill="#e0e0e0" stroke="#999999" points="919,-178.5 802,-178.5 802,-148.5 919,-148.5 919,-178.5"/>
<text text-anchor="start" x="810" y="-166.5" font-family="Helvetica,sans-Serif" font-size="10.00">packages/types/impl</text>
<text text-anchor="middle" x="860.5" y="-155.5" font-family="Helvetica,sans-Serif" font-size="10.00">/sparse_impl.hpp</text>
</a>
</g>
</g>
<!-- Node1&#45;&gt;Node13 -->
<g id="edge14_Node000001_Node000013" class="edge">
<title>Node1&#45;&gt;Node13</title>
<g id="a_edge14_Node000001_Node000013"><a xlink:title=" ">
<path fill="none" stroke="#63b8ff" d="M662.4,-219.96C695.29,-211.11 748.04,-196.82 793.5,-184 796.59,-183.13 799.76,-182.23 802.95,-181.32"/>
<polygon fill="#63b8ff" stroke="#63b8ff" points="803.94,-184.67 812.58,-178.55 802.01,-177.95 803.94,-184.67"/>
</a>
</g>
</g>
<!-- Node3 -->
<g id="Node000003" class="node">
<title>Node3</title>
<g id="a_Node000003"><a xlink:title=" ">
<polygon fill="#e0e0e0" stroke="#999999" points="77,-30 0,-30 0,-11 77,-11 77,-30"/>
<text text-anchor="middle" x="38.5" y="-18" font-family="Helvetica,sans-Serif" font-size="10.00">Eigen/Dense</text>
</a>
</g>
</g>
<!-- Node2&#45;&gt;Node3 -->
<g id="edge2_Node000002_Node000003" class="edge">
<title>Node2&#45;&gt;Node3</title>
<g id="a_edge2_Node000002_Node000003"><a xlink:title=" ">
<path fill="none" stroke="#63b8ff" d="M214.09,-148.46C176.99,-121.64 96.35,-63.33 58.67,-36.08"/>
<polygon fill="#63b8ff" stroke="#63b8ff" points="60.63,-33.18 50.48,-30.16 56.53,-38.86 60.63,-33.18"/>
</a>
</g>
</g>
<!-- Node4 -->
<g id="Node000004" class="node">
<title>Node4</title>
<g id="a_Node000004"><a xlink:href="EigenMatrix_8hpp.html" target="_top" xlink:title=" ">
<polygon fill="white" stroke="#666666" points="291,-107 176,-107 176,-77 291,-77 291,-107"/>
<text text-anchor="start" x="184" y="-95" font-family="Helvetica,sans-Serif" font-size="10.00">packages/matrix/inc</text>
<text text-anchor="middle" x="233.5" y="-84" font-family="Helvetica,sans-Serif" font-size="10.00">/EigenMatrix.hpp</text>
</a>
</g>
</g>
<!-- Node2&#45;&gt;Node4 -->
<g id="edge3_Node000002_Node000004" class="edge">
<title>Node2&#45;&gt;Node4</title>
<g id="a_edge3_Node000002_Node000004"><a xlink:title=" ">
<path fill="none" stroke="#63b8ff" d="M233.5,-148.44C233.5,-139.49 233.5,-127.66 233.5,-117.23"/>
<polygon fill="#63b8ff" stroke="#63b8ff" points="237,-117.04 233.5,-107.04 230,-117.04 237,-117.04"/>
</a>
</g>
</g>
<!-- Node4&#45;&gt;Node3 -->
<g id="edge4_Node000004_Node000003" class="edge">
<title>Node4&#45;&gt;Node3</title>
<g id="a_edge4_Node000004_Node000003"><a xlink:title=" ">
<path fill="none" stroke="#63b8ff" d="M189.19,-76.9C159.64,-67.28 120.03,-53.98 85.5,-41 79.78,-38.85 73.72,-36.44 67.92,-34.06"/>
<polygon fill="#63b8ff" stroke="#63b8ff" points="69.09,-30.76 58.51,-30.15 66.4,-37.22 69.09,-30.76"/>
</a>
</g>
</g>
<!-- Node4&#45;&gt;Node5 -->
<g id="edge5_Node000004_Node000005" class="edge">
<title>Node4&#45;&gt;Node5</title>
<g id="a_edge5_Node000004_Node000005"><a xlink:title=" ">
<path fill="none" stroke="#63b8ff" d="M291.11,-79.4C336.73,-69.93 401.97,-55.74 458.5,-41 461.69,-40.17 464.96,-39.28 468.26,-38.37"/>
<polygon fill="#63b8ff" stroke="#63b8ff" points="469.5,-41.66 478.16,-35.56 467.58,-34.92 469.5,-41.66"/>
</a>
</g>
</g>
<!-- Node6 -->
<g id="Node000006" class="node">
<title>Node6</title>
<g id="a_Node000006"><a target="_parent" xlink:href="../../../cieutils/docs/html/container__concepts_8hpp.html" xlink:title=" ">
<polygon fill="white" stroke="#666666" points="450,-41 315,-41 315,0 450,0 450,-41"/>
<text text-anchor="start" x="323" y="-29" font-family="Helvetica,sans-Serif" font-size="10.00">packages/compile_time</text>
<text text-anchor="start" x="323" y="-18" font-family="Helvetica,sans-Serif" font-size="10.00">/packages/concepts/inc</text>
<text text-anchor="middle" x="382.5" y="-7" font-family="Helvetica,sans-Serif" font-size="10.00">/container_concepts.hpp</text>
</a>
</g>
</g>
<!-- Node4&#45;&gt;Node6 -->
<g id="edge6_Node000004_Node000006" class="edge">
<title>Node4&#45;&gt;Node6</title>
<g id="a_edge6_Node000004_Node000006"><a xlink:title=" ">
<path fill="none" stroke="#63b8ff" d="M263.65,-76.94C283.08,-67.87 308.85,-55.86 331.41,-45.33"/>
<polygon fill="#63b8ff" stroke="#63b8ff" points="332.95,-48.47 340.54,-41.07 329.99,-42.13 332.95,-48.47"/>
</a>
</g>
</g>
<!-- Node7 -->
<g id="Node000007" class="node">
<title>Node7</title>
<g id="a_Node000007"><a xlink:title=" ">
<polygon fill="#e0e0e0" stroke="#999999" points="152,-30 95,-30 95,-11 152,-11 152,-30"/>
<text text-anchor="middle" x="123.5" y="-18" font-family="Helvetica,sans-Serif" font-size="10.00">ostream</text>
</a>
</g>
</g>
<!-- Node4&#45;&gt;Node7 -->
<g id="edge7_Node000004_Node000007" class="edge">
<title>Node4&#45;&gt;Node7</title>
<g id="a_edge7_Node000004_Node000007"><a xlink:title=" ">
<path fill="none" stroke="#63b8ff" d="M211.24,-76.94C192.14,-64.87 164.76,-47.57 145.69,-35.52"/>
<polygon fill="#63b8ff" stroke="#63b8ff" points="147.38,-32.45 137.06,-30.07 143.65,-38.37 147.38,-32.45"/>
</a>
</g>
</g>
<!-- Node8 -->
<g id="Node000008" class="node">
<title>Node8</title>
<g id="a_Node000008"><a xlink:title=" ">
<polygon fill="#e0e0e0" stroke="#999999" points="296.5,-35.5 170.5,-35.5 170.5,-5.5 296.5,-5.5 296.5,-35.5"/>
<text text-anchor="start" x="178.5" y="-23.5" font-family="Helvetica,sans-Serif" font-size="10.00">packages/matrix/impl</text>
<text text-anchor="middle" x="233.5" y="-12.5" font-family="Helvetica,sans-Serif" font-size="10.00">/EigenMatrix_impl.hpp</text>
</a>
</g>
</g>
<!-- Node4&#45;&gt;Node8 -->
<g id="edge8_Node000004_Node000008" class="edge">
<title>Node4&#45;&gt;Node8</title>
<g id="a_edge8_Node000004_Node000008"><a xlink:title=" ">
<path fill="none" stroke="#63b8ff" d="M233.5,-76.94C233.5,-67.99 233.5,-56.16 233.5,-45.73"/>
<polygon fill="#63b8ff" stroke="#63b8ff" points="237,-45.54 233.5,-35.54 230,-45.54 237,-45.54"/>
</a>
</g>
</g>
</g>
</svg>
