<?xml version="1.0" encoding="UTF-8" standalone="no"?>
<!DOCTYPE svg PUBLIC "-//W3C//DTD SVG 1.1//EN"
 "http://www.w3.org/Graphics/SVG/1.1/DTD/svg11.dtd">
<!-- Generated by graphviz version 2.43.0 (0)
 -->
<!-- Title: sparse.hpp Pages: 1 -->
<!--zoomable 251 -->
<svg id="main" version="1.1" xmlns="http://www.w3.org/2000/svg" xmlns:xlink="http://www.w3.org/1999/xlink" xml:space="preserve" onload="init(evt)">
<style type="text/css"><![CDATA[
.edge:hover path { stroke: red; }
.edge:hover polygon { stroke: red; fill: red; }
]]></style>
<script type="text/javascript"><![CDATA[
var edges = document.getElementsByTagName('g');
if (edges && edges.length) {
  for (var i=0;i<edges.length;i++) {
    if (edges[i].id.substr(0,4)=='edge') {
      edges[i].setAttribute('class','edge');
    }
  }
}
]]></script>
        <defs>
                <circle id="rim" cx="0" cy="0" r="7"/>
                <circle id="rim2" cx="0" cy="0" r="3.5"/>
                <g id="zoomPlus">
                        <use xlink:href="#rim" fill="#404040">
                                <set attributeName="fill" to="#808080" begin="zoomplus.mouseover" end="zoomplus.mouseout"/>
                        </use>
                        <path d="M-4,0h8M0,-4v8" fill="none" stroke="white" stroke-width="1.5" pointer-events="none"/>
                </g>
                <g id="zoomMin">
                        <use xlink:href="#rim" fill="#404040">
                                <set attributeName="fill" to="#808080" begin="zoomminus.mouseover" end="zoomminus.mouseout"/>
                        </use>
                        <path d="M-4,0h8" fill="none" stroke="white" stroke-width="1.5" pointer-events="none"/>
                </g>
                <g id="dirArrow">
                        <path fill="none" stroke="white" stroke-width="1.5" d="M0,-3.0v7 M-2.5,-0.5L0,-3.0L2.5,-0.5"/>
                </g>
               <g id="resetDef">
                       <use xlink:href="#rim2" fill="#404040">
                               <set attributeName="fill" to="#808080" begin="reset.mouseover" end="reset.mouseout"/>
                       </use>
               </g>
        </defs>

<script type="text/javascript">
var viewWidth = 927;
var viewHeight = 251;
var sectionId = 'dynsection-0';
</script>
<script xlink:href="svgpan.js"/>
<svg id="graph" class="graph">
<g id="viewport">
<title>sparse.hpp</title>
<polygon fill="white" stroke="transparent" points="-4,4 -4,-247 923,-247 923,4 -4,4"/>
<!-- Node1 -->
<g id="node1" class="node">
<title>Node1</title>
<g id="a_node1"><a xlink:title=" ">
<polygon fill="#bfbfbf" stroke="black" points="595.5,-223.5 595.5,-242.5 665.5,-242.5 665.5,-223.5 595.5,-223.5"/>
<text text-anchor="middle" x="630.5" y="-230.5" font-family="Helvetica,sans-Serif" font-size="10.00">sparse.hpp</text>
</a>
</g>
</g>
<!-- Node2 -->
<g id="node2" class="node">
<title>Node2</title>
<g id="a_node2"><a xlink:href="DynamicEigenMatrix_8hpp.html" target="_top" xlink:title=" ">
<polygon fill="white" stroke="black" points="162,-151 162,-181 305,-181 305,-151 162,-151"/>
<text text-anchor="start" x="170" y="-169" font-family="Helvetica,sans-Serif" font-size="10.00">packages/matrix/inc</text>
<text text-anchor="middle" x="233.5" y="-158" font-family="Helvetica,sans-Serif" font-size="10.00">/DynamicEigenMatrix.hpp</text>
</a>
</g>
</g>
<!-- Node1&#45;&gt;Node2 -->
<g id="edge1" class="edge">
<title>Node1&#45;&gt;Node2</title>
<path fill="none" stroke="midnightblue" d="M595.27,-226.23C532.84,-216.01 401.28,-194.47 315.2,-180.38"/>
<polygon fill="midnightblue" stroke="midnightblue" points="315.63,-176.9 305.2,-178.74 314.5,-183.81 315.63,-176.9"/>
</g>
<!-- Node5 -->
<g id="node5" class="node">
<title>Node5</title>
<g id="a_node5"><a target="_parent" xlink:href="../../../cieutils/docs/html/types_8hpp.html.html" xlink:title=" ">
<polygon fill="white" stroke="black" points="468.5,-6 468.5,-36 578.5,-36 578.5,-6 468.5,-6"/>
<text text-anchor="start" x="476.5" y="-24" font-family="Helvetica,sans-Serif" font-size="10.00">packages/types/inc</text>
<text text-anchor="middle" x="523.5" y="-13" font-family="Helvetica,sans-Serif" font-size="10.00">/types.hpp</text>
</a>
</g>
</g>
<!-- Node1&#45;&gt;Node5 -->
<g id="edge10" class="edge">
<title>Node1&#45;&gt;Node5</title>
<path fill="none" stroke="midnightblue" d="M595.29,-228.44C547.38,-222.79 465.51,-209.98 447.5,-187 411.68,-141.31 466.67,-76.02 500.39,-42.93"/>
<polygon fill="midnightblue" stroke="midnightblue" points="502.83,-45.45 507.63,-36 497.99,-40.39 502.83,-45.45"/>
</g>
<!-- Node9 -->
<g id="node9" class="node">
<title>Node9</title>
<g id="a_node9"><a target="_parent" xlink:href="../../../cieutils/docs/html/basic__concepts_8hpp.html.html" xlink:title=" ">
<polygon fill="white" stroke="black" points="456.5,-145.5 456.5,-186.5 588.5,-186.5 588.5,-145.5 456.5,-145.5"/>
<text text-anchor="start" x="464.5" y="-174.5" font-family="Helvetica,sans-Serif" font-size="10.00">packages/compile_time</text>
<text text-anchor="start" x="464.5" y="-163.5" font-family="Helvetica,sans-Serif" font-size="10.00">/packages/concepts/inc</text>
<text text-anchor="middle" x="522.5" y="-152.5" font-family="Helvetica,sans-Serif" font-size="10.00">/basic_concepts.hpp</text>
</a>
</g>
</g>
<!-- Node1&#45;&gt;Node9 -->
<g id="edge9" class="edge">
<title>Node1&#45;&gt;Node9</title>
<path fill="none" stroke="midnightblue" d="M615.93,-223.23C602.57,-215.19 582.13,-202.89 563.78,-191.84"/>
<polygon fill="midnightblue" stroke="midnightblue" points="565.34,-188.7 554.97,-186.54 561.73,-194.7 565.34,-188.7"/>
</g>
<!-- Node10 -->
<g id="node10" class="node">
<title>Node10</title>
<g id="a_node10"><a xlink:title=" ">
<polygon fill="white" stroke="#bfbfbf" points="607,-156.5 607,-175.5 654,-175.5 654,-156.5 607,-156.5"/>
<text text-anchor="middle" x="630.5" y="-163.5" font-family="Helvetica,sans-Serif" font-size="10.00">vector</text>
</a>
</g>
</g>
<!-- Node1&#45;&gt;Node10 -->
<g id="edge11" class="edge">
<title>Node1&#45;&gt;Node10</title>
<path fill="none" stroke="midnightblue" d="M630.5,-223.23C630.5,-213.68 630.5,-198.12 630.5,-185.78"/>
<polygon fill="midnightblue" stroke="midnightblue" points="634,-185.63 630.5,-175.63 627,-185.63 634,-185.63"/>
</g>
<!-- Node11 -->
<g id="node11" class="node">
<title>Node11</title>
<g id="a_node11"><a xlink:title=" ">
<polygon fill="white" stroke="#bfbfbf" points="672,-156.5 672,-175.5 713,-175.5 713,-156.5 672,-156.5"/>
<text text-anchor="middle" x="692.5" y="-163.5" font-family="Helvetica,sans-Serif" font-size="10.00">tuple</text>
</a>
</g>
</g>
<!-- Node1&#45;&gt;Node11 -->
<g id="edge12" class="edge">
<title>Node1&#45;&gt;Node11</title>
<path fill="none" stroke="midnightblue" d="M638.86,-223.23C648.62,-213 664.97,-195.86 677.05,-183.19"/>
<polygon fill="midnightblue" stroke="midnightblue" points="679.9,-185.28 684.27,-175.63 674.84,-180.45 679.9,-185.28"/>
</g>
<!-- Node12 -->
<g id="node12" class="node">
<title>Node12</title>
<g id="a_node12"><a xlink:title=" ">
<polygon fill="white" stroke="#bfbfbf" points="731,-156.5 731,-175.5 784,-175.5 784,-156.5 731,-156.5"/>
<text text-anchor="middle" x="757.5" y="-163.5" font-family="Helvetica,sans-Serif" font-size="10.00">cstddef</text>
</a>
</g>
</g>
<!-- Node1&#45;&gt;Node12 -->
<g id="edge13" class="edge">
<title>Node1&#45;&gt;Node12</title>
<path fill="none" stroke="midnightblue" d="M649,-223.38C667.71,-214.56 697.36,-200.31 722.5,-187 726.33,-184.97 730.35,-182.76 734.25,-180.56"/>
<polygon fill="midnightblue" stroke="midnightblue" points="736.02,-183.58 742.97,-175.58 732.55,-177.5 736.02,-183.58"/>
</g>
<!-- Node13 -->
<g id="node13" class="node">
<title>Node13</title>
<g id="a_node13"><a xlink:title=" ">
<polygon fill="white" stroke="#bfbfbf" points="802,-151 802,-181 919,-181 919,-151 802,-151"/>
<text text-anchor="start" x="810" y="-169" font-family="Helvetica,sans-Serif" font-size="10.00">packages/types/impl</text>
<text text-anchor="middle" x="860.5" y="-158" font-family="Helvetica,sans-Serif" font-size="10.00">/sparse_impl.hpp</text>
</a>
</g>
</g>
<!-- Node1&#45;&gt;Node13 -->
<g id="edge14" class="edge">
<title>Node1&#45;&gt;Node13</title>
<path fill="none" stroke="midnightblue" d="M662.11,-223.48C694.99,-214.57 747.93,-200.09 793.5,-187 797.03,-185.99 800.67,-184.93 804.33,-183.86"/>
<polygon fill="midnightblue" stroke="midnightblue" points="805.44,-187.18 814.04,-181 803.46,-180.47 805.44,-187.18"/>
</g>
<!-- Node3 -->
<g id="node3" class="node">
<title>Node3</title>
<g id="a_node3"><a xlink:title=" ">
<polygon fill="white" stroke="#bfbfbf" points="0,-11.5 0,-30.5 77,-30.5 77,-11.5 0,-11.5"/>
<text text-anchor="middle" x="38.5" y="-18.5" font-family="Helvetica,sans-Serif" font-size="10.00">Eigen/Dense</text>
</a>
</g>
</g>
<!-- Node2&#45;&gt;Node3 -->
<g id="edge2" class="edge">
<title>Node2&#45;&gt;Node3</title>
<path fill="none" stroke="midnightblue" d="M214.09,-150.77C176.99,-123.56 96.35,-64.43 58.67,-36.79"/>
<polygon fill="midnightblue" stroke="midnightblue" points="60.61,-33.87 50.48,-30.78 56.47,-39.52 60.61,-33.87"/>
</g>
<!-- Node4 -->
<g id="node4" class="node">
<title>Node4</title>
<g id="a_node4"><a xlink:href="EigenMatrix_8hpp.html" target="_top" xlink:title=" ">
<polygon fill="white" stroke="black" points="176,-78.5 176,-108.5 291,-108.5 291,-78.5 176,-78.5"/>
<text text-anchor="start" x="184" y="-96.5" font-family="Helvetica,sans-Serif" font-size="10.00">packages/matrix/inc</text>
<text text-anchor="middle" x="233.5" y="-85.5" font-family="Helvetica,sans-Serif" font-size="10.00">/EigenMatrix.hpp</text>
</a>
</g>
</g>
<!-- Node2&#45;&gt;Node4 -->
<g id="edge3" class="edge">
<title>Node2&#45;&gt;Node4</title>
<path fill="none" stroke="midnightblue" d="M233.5,-150.73C233.5,-141.66 233.5,-129.66 233.5,-119.08"/>
<polygon fill="midnightblue" stroke="midnightblue" points="237,-118.75 233.5,-108.75 230,-118.75 237,-118.75"/>
</g>
<!-- Node4&#45;&gt;Node3 -->
<g id="edge4" class="edge">
<title>Node4&#45;&gt;Node3</title>
<path fill="none" stroke="midnightblue" d="M189.48,-78.42C159.89,-68.73 120.11,-55.25 85.5,-42 79.66,-39.77 73.48,-37.25 67.58,-34.77"/>
<polygon fill="midnightblue" stroke="midnightblue" points="68.61,-31.4 58.04,-30.69 65.86,-37.84 68.61,-31.4"/>
</g>
<!-- Node4&#45;&gt;Node5 -->
<g id="edge5" class="edge">
<title>Node4&#45;&gt;Node5</title>
<path fill="none" stroke="midnightblue" d="M291.14,-80.85C336.77,-71.32 402.01,-57.01 458.5,-42 462.24,-41.01 466.1,-39.94 469.97,-38.83"/>
<polygon fill="midnightblue" stroke="midnightblue" points="470.96,-42.19 479.58,-36.02 469,-35.47 470.96,-42.19"/>
</g>
<!-- Node6 -->
<g id="node6" class="node">
<title>Node6</title>
<g id="a_node6"><a target="_parent" xlink:href="../../../cieutils/docs/html/container__concepts_8hpp.html.html" xlink:title=" ">
<polygon fill="white" stroke="black" points="315,-0.5 315,-41.5 450,-41.5 450,-0.5 315,-0.5"/>
<text text-anchor="start" x="323" y="-29.5" font-family="Helvetica,sans-Serif" font-size="10.00">packages/compile_time</text>
<text text-anchor="start" x="323" y="-18.5" font-family="Helvetica,sans-Serif" font-size="10.00">/packages/concepts/inc</text>
<text text-anchor="middle" x="382.5" y="-7.5" font-family="Helvetica,sans-Serif" font-size="10.00">/container_concepts.hpp</text>
</a>
</g>
</g>
<!-- Node4&#45;&gt;Node6 -->
<g id="edge6" class="edge">
<title>Node4&#45;&gt;Node6</title>
<path fill="none" stroke="midnightblue" d="M263.29,-78.4C282.93,-69.11 309.13,-56.72 331.97,-45.91"/>
<polygon fill="midnightblue" stroke="midnightblue" points="333.65,-48.99 341.19,-41.55 330.65,-42.66 333.65,-48.99"/>
</g>
<!-- Node7 -->
<g id="node7" class="node">
<title>Node7</title>
<g id="a_node7"><a xlink:title=" ">
<polygon fill="white" stroke="#bfbfbf" points="95,-11.5 95,-30.5 152,-30.5 152,-11.5 95,-11.5"/>
<text text-anchor="middle" x="123.5" y="-18.5" font-family="Helvetica,sans-Serif" font-size="10.00">ostream</text>
</a>
</g>
</g>
<!-- Node4&#45;&gt;Node7 -->
<g id="edge7" class="edge">
<title>Node4&#45;&gt;Node7</title>
<path fill="none" stroke="midnightblue" d="M211.5,-78.4C192.32,-66.11 164.64,-48.37 145.47,-36.08"/>
<polygon fill="midnightblue" stroke="midnightblue" points="147.12,-32.98 136.81,-30.53 143.35,-38.88 147.12,-32.98"/>
</g>
<!-- Node8 -->
<g id="node8" class="node">
<title>Node8</title>
<g id="a_node8"><a xlink:title=" ">
<polygon fill="white" stroke="#bfbfbf" points="170.5,-6 170.5,-36 296.5,-36 296.5,-6 170.5,-6"/>
<text text-anchor="start" x="178.5" y="-24" font-family="Helvetica,sans-Serif" font-size="10.00">packages/matrix/impl</text>
<text text-anchor="middle" x="233.5" y="-13" font-family="Helvetica,sans-Serif" font-size="10.00">/EigenMatrix_impl.hpp</text>
</a>
</g>
</g>
<!-- Node4&#45;&gt;Node8 -->
<g id="edge8" class="edge">
<title>Node4&#45;&gt;Node8</title>
<path fill="none" stroke="midnightblue" d="M233.5,-78.23C233.5,-69.16 233.5,-57.16 233.5,-46.58"/>
<polygon fill="midnightblue" stroke="midnightblue" points="237,-46.25 233.5,-36.25 230,-46.25 237,-46.25"/>
</g>
</g>
</svg>
        <g id="navigator" transform="translate(0 0)" fill="#404254">
                <rect fill="#f2f5e9" fill-opacity="0.5" stroke="#606060" stroke-width=".5" x="0" y="0" width="60" height="60"/>
                <use id="zoomplus" xlink:href="#zoomPlus" x="17" y="9" onmousedown="handleZoom(evt,'in')"/>
                <use id="zoomminus" xlink:href="#zoomMin" x="42" y="9" onmousedown="handleZoom(evt,'out')"/>
                <use id="reset" xlink:href="#resetDef" x="30" y="36" onmousedown="handleReset()"/>
                <g id="arrowUp" xlink:href="#dirArrow" transform="translate(30 24)" onmousedown="handlePan(0,-1)">
                  <use xlink:href="#rim" fill="#404040">
                        <set attributeName="fill" to="#808080" begin="arrowUp.mouseover" end="arrowUp.mouseout"/>
                  </use>
                  <path fill="none" stroke="white" stroke-width="1.5" d="M0,-3.0v7 M-2.5,-0.5L0,-3.0L2.5,-0.5"/>
                </g>
                <g id="arrowRight" xlink:href="#dirArrow" transform="rotate(90) translate(36 -43)" onmousedown="handlePan(1,0)">
                  <use xlink:href="#rim" fill="#404040">
                        <set attributeName="fill" to="#808080" begin="arrowRight.mouseover" end="arrowRight.mouseout"/>
                  </use>
                  <path fill="none" stroke="white" stroke-width="1.5" d="M0,-3.0v7 M-2.5,-0.5L0,-3.0L2.5,-0.5"/>
                </g>
                <g id="arrowDown" xlink:href="#dirArrow" transform="rotate(180) translate(-30 -48)" onmousedown="handlePan(0,1)">
                  <use xlink:href="#rim" fill="#404040">
                        <set attributeName="fill" to="#808080" begin="arrowDown.mouseover" end="arrowDown.mouseout"/>
                  </use>
                  <path fill="none" stroke="white" stroke-width="1.5" d="M0,-3.0v7 M-2.5,-0.5L0,-3.0L2.5,-0.5"/>
                </g>
                <g id="arrowLeft" xlink:href="#dirArrow" transform="rotate(270) translate(-36 17)" onmousedown="handlePan(-1,0)">
                  <use xlink:href="#rim" fill="#404040">
                        <set attributeName="fill" to="#808080" begin="arrowLeft.mouseover" end="arrowLeft.mouseout"/>
                  </use>
                  <path fill="none" stroke="white" stroke-width="1.5" d="M0,-3.0v7 M-2.5,-0.5L0,-3.0L2.5,-0.5"/>
                </g>
        </g>
        <svg viewBox="0 0 15 15" width="100%" height="30px" preserveAspectRatio="xMaxYMin meet">
         <g id="arrow_out" transform="scale(0.3 0.3)">
          <a xlink:href="sparse_8hpp__incl_org.svg" target="_base">
           <rect id="button" ry="5" rx="5" y="6" x="6" height="38" width="38"
                fill="#f2f5e9" fill-opacity="0.5" stroke="#606060" stroke-width="1.0"/>
           <path id="arrow"
             d="M 11.500037,31.436501 C 11.940474,20.09759 22.043105,11.32322 32.158766,21.979434 L 37.068811,17.246167 C 37.068811,17.246167 37.088388,32 37.088388,32 L 22.160133,31.978069 C 22.160133,31.978069 26.997745,27.140456 26.997745,27.140456 C 18.528582,18.264221 13.291696,25.230495 11.500037,31.436501 z"
             style="fill:#404040;"/>
          </a>
         </g>
        </svg>
</svg>
