<?xml version="1.0" encoding="UTF-8" standalone="no"?>
<!DOCTYPE svg PUBLIC "-//W3C//DTD SVG 1.1//EN"
 "http://www.w3.org/Graphics/SVG/1.1/DTD/svg11.dtd">
<!-- Generated by graphviz version 2.43.0 (0)
 -->
<!-- Title: typeoperations.hpp Pages: 1 -->
<svg width="431pt" height="159pt"
 viewBox="0.00 0.00 431.00 159.00" xmlns="http://www.w3.org/2000/svg" xmlns:xlink="http://www.w3.org/1999/xlink">
<g id="graph0" class="graph" transform="scale(1 1) rotate(0) translate(4 155)">
<title>typeoperations.hpp</title>
<!-- Node1 -->
<g id="Node000001" class="node">
<title>Node1</title>
<g id="a_Node000001"><a xlink:title=" ">
<polygon fill="#999999" stroke="#666666" points="264,-151 153,-151 153,-132 264,-132 264,-151"/>
<text text-anchor="middle" x="208.5" y="-139" font-family="Helvetica,sans-Serif" font-size="10.00">typeoperations.hpp</text>
</a>
</g>
</g>
<!-- Node2 -->
<g id="Node000002" class="node">
<title>Node2</title>
<g id="a_Node000002"><a target="_parent" xlink:href="../../../cieutils/docs/html/container__concepts_8hpp.html" xlink:title=" ">
<polygon fill="white" stroke="#666666" points="135,-96 0,-96 0,-55 135,-55 135,-96"/>
<text text-anchor="start" x="8" y="-84" font-family="Helvetica,sans-Serif" font-size="10.00">packages/compile_time</text>
<text text-anchor="start" x="8" y="-73" font-family="Helvetica,sans-Serif" font-size="10.00">/packages/concepts/inc</text>
<text text-anchor="middle" x="67.5" y="-62" font-family="Helvetica,sans-Serif" font-size="10.00">/container_concepts.hpp</text>
</a>
</g>
</g>
<!-- Node1&#45;&gt;Node2 -->
<g id="edge1_Node000001_Node000002" class="edge">
<title>Node1&#45;&gt;Node2</title>
<g id="a_edge1_Node000001_Node000002"><a xlink:title=" ">
<path fill="none" stroke="#63b8ff" d="M189.48,-131.87C171.62,-123.76 144.06,-111.25 119.65,-100.17"/>
<polygon fill="#63b8ff" stroke="#63b8ff" points="121.03,-96.96 110.48,-96.01 118.14,-103.33 121.03,-96.96"/>
</a>
</g>
</g>
<!-- Node3 -->
<g id="Node000003" class="node">
<title>Node3</title>
<g id="a_Node000003"><a xlink:href="functiontypes_8hpp.html" target="_top" xlink:title=" ">
<polygon fill="white" stroke="#666666" points="263.5,-90.5 153.5,-90.5 153.5,-60.5 263.5,-60.5 263.5,-90.5"/>
<text text-anchor="start" x="161.5" y="-78.5" font-family="Helvetica,sans-Serif" font-size="10.00">packages/types/inc</text>
<text text-anchor="middle" x="208.5" y="-67.5" font-family="Helvetica,sans-Serif" font-size="10.00">/functiontypes.hpp</text>
</a>
</g>
</g>
<!-- Node1&#45;&gt;Node3 -->
<g id="edge2_Node000001_Node000003" class="edge">
<title>Node1&#45;&gt;Node3</title>
<g id="a_edge2_Node000001_Node000003"><a xlink:title=" ">
<path fill="none" stroke="#63b8ff" d="M208.5,-131.87C208.5,-123.99 208.5,-111.95 208.5,-101.1"/>
<polygon fill="#63b8ff" stroke="#63b8ff" points="212,-100.86 208.5,-90.86 205,-100.86 212,-100.86"/>
</a>
</g>
</g>
<!-- Node5 -->
<g id="Node000005" class="node">
<title>Node5</title>
<g id="a_Node000005"><a xlink:title=" ">
<polygon fill="#e0e0e0" stroke="#999999" points="423,-90.5 282,-90.5 282,-60.5 423,-60.5 423,-90.5"/>
<text text-anchor="start" x="290" y="-78.5" font-family="Helvetica,sans-Serif" font-size="10.00">packages/types/impl</text>
<text text-anchor="middle" x="352.5" y="-67.5" font-family="Helvetica,sans-Serif" font-size="10.00">/typeoperations_impl.hpp</text>
</a>
</g>
</g>
<!-- Node1&#45;&gt;Node5 -->
<g id="edge4_Node000001_Node000005" class="edge">
<title>Node1&#45;&gt;Node5</title>
<g id="a_edge4_Node000001_Node000005"><a xlink:title=" ">
<path fill="none" stroke="#63b8ff" d="M227.92,-131.87C249.21,-122.41 283.98,-106.95 311.39,-94.77"/>
<polygon fill="#63b8ff" stroke="#63b8ff" points="313.02,-97.88 320.74,-90.62 310.18,-91.48 313.02,-97.88"/>
</a>
</g>
</g>
<!-- Node4 -->
<g id="Node000004" class="node">
<title>Node4</title>
<g id="a_Node000004"><a xlink:title=" ">
<polygon fill="#e0e0e0" stroke="#999999" points="241,-19 176,-19 176,0 241,0 241,-19"/>
<text text-anchor="middle" x="208.5" y="-7" font-family="Helvetica,sans-Serif" font-size="10.00">functional</text>
</a>
</g>
</g>
<!-- Node3&#45;&gt;Node4 -->
<g id="edge3_Node000003_Node000004" class="edge">
<title>Node3&#45;&gt;Node4</title>
<g id="a_edge3_Node000003_Node000004"><a xlink:title=" ">
<path fill="none" stroke="#63b8ff" d="M208.5,-60.3C208.5,-51.2 208.5,-39.29 208.5,-29.4"/>
<polygon fill="#63b8ff" stroke="#63b8ff" points="212,-29.34 208.5,-19.34 205,-29.34 212,-29.34"/>
</a>
</g>
</g>
</g>
</svg>
