<?xml version="1.0" encoding="UTF-8" standalone="no"?>
<!DOCTYPE svg PUBLIC "-//W3C//DTD SVG 1.1//EN"
 "http://www.w3.org/Graphics/SVG/1.1/DTD/svg11.dtd">
<!-- Generated by graphviz version 2.43.0 (0)
 -->
<!-- Title: vectoroperators.hpp Pages: 1 -->
<svg width="583pt" height="173pt"
 viewBox="0.00 0.00 582.50 173.00" xmlns="http://www.w3.org/2000/svg" xmlns:xlink="http://www.w3.org/1999/xlink">
<g id="graph0" class="graph" transform="scale(1 1) rotate(0) translate(4 169)">
<title>vectoroperators.hpp</title>
<polygon fill="white" stroke="transparent" points="-4,4 -4,-169 578.5,-169 578.5,4 -4,4"/>
<!-- Node1 -->
<g id="node1" class="node">
<title>Node1</title>
<g id="a_node1"><a xlink:title=" ">
<polygon fill="#bfbfbf" stroke="black" points="236,-145.5 236,-164.5 351,-164.5 351,-145.5 236,-145.5"/>
<text text-anchor="middle" x="293.5" y="-152.5" font-family="Helvetica,sans-Serif" font-size="10.00">vectoroperators.hpp</text>
</a>
</g>
</g>
<!-- Node2 -->
<g id="node2" class="node">
<title>Node2</title>
<g id="a_node2"><a target="_parent" xlink:href="../../../cieutils/docs/html/container__concepts_8hpp.html.html" xlink:title=" ">
<polygon fill="white" stroke="black" points="0,-67.5 0,-108.5 135,-108.5 135,-67.5 0,-67.5"/>
<text text-anchor="start" x="8" y="-96.5" font-family="Helvetica,sans-Serif" font-size="10.00">packages/compile_time</text>
<text text-anchor="start" x="8" y="-85.5" font-family="Helvetica,sans-Serif" font-size="10.00">/packages/concepts/inc</text>
<text text-anchor="middle" x="67.5" y="-74.5" font-family="Helvetica,sans-Serif" font-size="10.00">/container_concepts.hpp</text>
</a>
</g>
</g>
<!-- Node1&#45;&gt;Node2 -->
<g id="edge1" class="edge">
<title>Node1&#45;&gt;Node2</title>
<path fill="none" stroke="midnightblue" d="M263.49,-145.37C233.36,-136.7 185.7,-123 144.93,-111.27"/>
<polygon fill="midnightblue" stroke="midnightblue" points="145.84,-107.89 135.26,-108.49 143.91,-114.62 145.84,-107.89"/>
</g>
<!-- Node3 -->
<g id="node3" class="node">
<title>Node3</title>
<g id="a_node3"><a xlink:href="vectortypes_8hpp.html" target="_top" xlink:title=" ">
<polygon fill="white" stroke="black" points="153.5,-73 153.5,-103 263.5,-103 263.5,-73 153.5,-73"/>
<text text-anchor="start" x="161.5" y="-91" font-family="Helvetica,sans-Serif" font-size="10.00">packages/types/inc</text>
<text text-anchor="middle" x="208.5" y="-80" font-family="Helvetica,sans-Serif" font-size="10.00">/vectortypes.hpp</text>
</a>
</g>
</g>
<!-- Node1&#45;&gt;Node3 -->
<g id="edge2" class="edge">
<title>Node1&#45;&gt;Node3</title>
<path fill="none" stroke="midnightblue" d="M282.04,-145.23C270.11,-136.11 251,-121.5 235.26,-109.46"/>
<polygon fill="midnightblue" stroke="midnightblue" points="236.99,-106.38 226.92,-103.09 232.74,-111.94 236.99,-106.38"/>
</g>
<!-- Node6 -->
<g id="node6" class="node">
<title>Node6</title>
<g id="a_node6"><a xlink:href="arraytypes_8hpp.html" target="_top" xlink:title=" ">
<polygon fill="white" stroke="black" points="324.5,-73 324.5,-103 434.5,-103 434.5,-73 324.5,-73"/>
<text text-anchor="start" x="332.5" y="-91" font-family="Helvetica,sans-Serif" font-size="10.00">packages/types/inc</text>
<text text-anchor="middle" x="379.5" y="-80" font-family="Helvetica,sans-Serif" font-size="10.00">/arraytypes.hpp</text>
</a>
</g>
</g>
<!-- Node1&#45;&gt;Node6 -->
<g id="edge5" class="edge">
<title>Node1&#45;&gt;Node6</title>
<path fill="none" stroke="midnightblue" d="M305.1,-145.23C317.28,-136.03 336.85,-121.23 352.87,-109.13"/>
<polygon fill="midnightblue" stroke="midnightblue" points="354.99,-111.91 360.86,-103.09 350.77,-106.33 354.99,-111.91"/>
</g>
<!-- Node11 -->
<g id="node11" class="node">
<title>Node11</title>
<g id="a_node11"><a xlink:title=" ">
<polygon fill="white" stroke="#bfbfbf" points="452.5,-67.5 452.5,-108.5 574.5,-108.5 574.5,-67.5 452.5,-67.5"/>
<text text-anchor="start" x="460.5" y="-96.5" font-family="Helvetica,sans-Serif" font-size="10.00">packages/overloads</text>
<text text-anchor="start" x="460.5" y="-85.5" font-family="Helvetica,sans-Serif" font-size="10.00">/impl/vectoroperators</text>
<text text-anchor="middle" x="513.5" y="-74.5" font-family="Helvetica,sans-Serif" font-size="10.00">_impl.hpp</text>
</a>
</g>
</g>
<!-- Node1&#45;&gt;Node11 -->
<g id="edge10" class="edge">
<title>Node1&#45;&gt;Node11</title>
<path fill="none" stroke="midnightblue" d="M322.71,-145.37C353.12,-136.38 401.88,-121.98 442.5,-109.98"/>
<polygon fill="midnightblue" stroke="midnightblue" points="443.49,-113.33 452.09,-107.14 441.51,-106.62 443.49,-113.33"/>
</g>
<!-- Node4 -->
<g id="node4" class="node">
<title>Node4</title>
<g id="a_node4"><a xlink:title=" ">
<polygon fill="white" stroke="#bfbfbf" points="95,-6 95,-25 142,-25 142,-6 95,-6"/>
<text text-anchor="middle" x="118.5" y="-13" font-family="Helvetica,sans-Serif" font-size="10.00">vector</text>
</a>
</g>
</g>
<!-- Node3&#45;&gt;Node4 -->
<g id="edge3" class="edge">
<title>Node3&#45;&gt;Node4</title>
<path fill="none" stroke="midnightblue" d="M190.29,-72.73C174.95,-60.72 153.07,-43.58 137.51,-31.39"/>
<polygon fill="midnightblue" stroke="midnightblue" points="139.63,-28.6 129.59,-25.19 135.31,-34.11 139.63,-28.6"/>
</g>
<!-- Node5 -->
<g id="node5" class="node">
<title>Node5</title>
<g id="a_node5"><a xlink:title=" ">
<polygon fill="white" stroke="#bfbfbf" points="160,-6 160,-25 213,-25 213,-6 160,-6"/>
<text text-anchor="middle" x="186.5" y="-13" font-family="Helvetica,sans-Serif" font-size="10.00">stdint.h</text>
</a>
</g>
</g>
<!-- Node3&#45;&gt;Node5 -->
<g id="edge4" class="edge">
<title>Node3&#45;&gt;Node5</title>
<path fill="none" stroke="midnightblue" d="M204.05,-72.73C200.66,-61.89 195.98,-46.88 192.3,-35.1"/>
<polygon fill="midnightblue" stroke="midnightblue" points="195.6,-33.9 189.28,-25.39 188.91,-35.98 195.6,-33.9"/>
</g>
<!-- Node7 -->
<g id="node7" class="node">
<title>Node7</title>
<g id="a_node7"><a target="_parent" xlink:href="../../../cieutils/docs/html/StaticArray_8hpp.html.html" xlink:title=" ">
<polygon fill="white" stroke="black" points="231,-0.5 231,-30.5 362,-30.5 362,-0.5 231,-0.5"/>
<text text-anchor="start" x="239" y="-18.5" font-family="Helvetica,sans-Serif" font-size="10.00">packages/stl_extension</text>
<text text-anchor="middle" x="296.5" y="-7.5" font-family="Helvetica,sans-Serif" font-size="10.00">/inc/StaticArray.hpp</text>
</a>
</g>
</g>
<!-- Node6&#45;&gt;Node7 -->
<g id="edge6" class="edge">
<title>Node6&#45;&gt;Node7</title>
<path fill="none" stroke="midnightblue" d="M362.7,-72.73C350.7,-62.54 334.36,-48.66 320.92,-37.24"/>
<polygon fill="midnightblue" stroke="midnightblue" points="322.88,-34.31 312.99,-30.5 318.34,-39.65 322.88,-34.31"/>
</g>
<!-- Node8 -->
<g id="node8" class="node">
<title>Node8</title>
<g id="a_node8"><a xlink:title=" ">
<polygon fill="white" stroke="#bfbfbf" points="380.5,-6 380.5,-25 422.5,-25 422.5,-6 380.5,-6"/>
<text text-anchor="middle" x="401.5" y="-13" font-family="Helvetica,sans-Serif" font-size="10.00">array</text>
</a>
</g>
</g>
<!-- Node6&#45;&gt;Node8 -->
<g id="edge7" class="edge">
<title>Node6&#45;&gt;Node8</title>
<path fill="none" stroke="midnightblue" d="M383.95,-72.73C387.34,-61.89 392.02,-46.88 395.7,-35.1"/>
<polygon fill="midnightblue" stroke="midnightblue" points="399.09,-35.98 398.72,-25.39 392.4,-33.9 399.09,-35.98"/>
</g>
<!-- Node9 -->
<g id="node9" class="node">
<title>Node9</title>
<g id="a_node9"><a xlink:title=" ">
<polygon fill="white" stroke="#bfbfbf" points="441,-6 441,-25 494,-25 494,-6 441,-6"/>
<text text-anchor="middle" x="467.5" y="-13" font-family="Helvetica,sans-Serif" font-size="10.00">cstddef</text>
</a>
</g>
</g>
<!-- Node6&#45;&gt;Node9 -->
<g id="edge8" class="edge">
<title>Node6&#45;&gt;Node9</title>
<path fill="none" stroke="midnightblue" d="M397.31,-72.73C412.09,-60.89 433.06,-44.09 448.23,-31.94"/>
<polygon fill="midnightblue" stroke="midnightblue" points="450.78,-34.38 456.4,-25.39 446.41,-28.91 450.78,-34.38"/>
</g>
<!-- Node10 -->
<g id="node10" class="node">
<title>Node10</title>
<g id="a_node10"><a xlink:title=" ">
<polygon fill="white" stroke="#bfbfbf" points="512.5,-6 512.5,-25 562.5,-25 562.5,-6 512.5,-6"/>
<text text-anchor="middle" x="537.5" y="-13" font-family="Helvetica,sans-Serif" font-size="10.00">cstdint</text>
</a>
</g>
</g>
<!-- Node6&#45;&gt;Node10 -->
<g id="edge9" class="edge">
<title>Node6&#45;&gt;Node10</title>
<path fill="none" stroke="midnightblue" d="M411.09,-72.9C439.65,-60.16 481.31,-41.57 508.9,-29.26"/>
<polygon fill="midnightblue" stroke="midnightblue" points="510.67,-32.3 518.38,-25.03 507.82,-25.91 510.67,-32.3"/>
</g>
</g>
</svg>
