<?xml version="1.0" encoding="UTF-8" standalone="no"?>
<!DOCTYPE svg PUBLIC "-//W3C//DTD SVG 1.1//EN"
 "http://www.w3.org/Graphics/SVG/1.1/DTD/svg11.dtd">
<!-- Generated by graphviz version 2.43.0 (0)
 -->
<!-- Title: vectoroperators.hpp Pages: 1 -->
<svg width="583pt" height="170pt"
 viewBox="0.00 0.00 582.50 170.00" xmlns="http://www.w3.org/2000/svg" xmlns:xlink="http://www.w3.org/1999/xlink">
<g id="graph0" class="graph" transform="scale(1 1) rotate(0) translate(4 166)">
<title>vectoroperators.hpp</title>
<!-- Node1 -->
<g id="Node000001" class="node">
<title>Node1</title>
<g id="a_Node000001"><a xlink:title=" ">
<polygon fill="#999999" stroke="#666666" points="351,-162 236,-162 236,-143 351,-143 351,-162"/>
<text text-anchor="middle" x="293.5" y="-150" font-family="Helvetica,sans-Serif" font-size="10.00">vectoroperators.hpp</text>
</a>
</g>
</g>
<!-- Node2 -->
<g id="Node000002" class="node">
<title>Node2</title>
<g id="a_Node000002"><a target="_parent" xlink:href="../../../cieutils/docs/html/container__concepts_8hpp.html" xlink:title=" ">
<polygon fill="white" stroke="#666666" points="135,-107 0,-107 0,-66 135,-66 135,-107"/>
<text text-anchor="start" x="8" y="-95" font-family="Helvetica,sans-Serif" font-size="10.00">packages/compile_time</text>
<text text-anchor="start" x="8" y="-84" font-family="Helvetica,sans-Serif" font-size="10.00">/packages/concepts/inc</text>
<text text-anchor="middle" x="67.5" y="-73" font-family="Helvetica,sans-Serif" font-size="10.00">/container_concepts.hpp</text>
</a>
</g>
</g>
<!-- Node1&#45;&gt;Node2 -->
<g id="edge1_Node000001_Node000002" class="edge">
<title>Node1&#45;&gt;Node2</title>
<g id="a_edge1_Node000001_Node000002"><a xlink:title=" ">
<path fill="none" stroke="#63b8ff" d="M263.02,-142.87C232.97,-134.36 185.79,-121 145.31,-109.53"/>
<polygon fill="#63b8ff" stroke="#63b8ff" points="146.02,-106.1 135.45,-106.74 144.11,-112.83 146.02,-106.1"/>
</a>
</g>
</g>
<!-- Node3 -->
<g id="Node000003" class="node">
<title>Node3</title>
<g id="a_Node000003"><a xlink:href="vectortypes_8hpp.html" target="_top" xlink:title=" ">
<polygon fill="white" stroke="#666666" points="263.5,-101.5 153.5,-101.5 153.5,-71.5 263.5,-71.5 263.5,-101.5"/>
<text text-anchor="start" x="161.5" y="-89.5" font-family="Helvetica,sans-Serif" font-size="10.00">packages/types/inc</text>
<text text-anchor="middle" x="208.5" y="-78.5" font-family="Helvetica,sans-Serif" font-size="10.00">/vectortypes.hpp</text>
</a>
</g>
</g>
<!-- Node1&#45;&gt;Node3 -->
<g id="edge2_Node000001_Node000003" class="edge">
<title>Node1&#45;&gt;Node3</title>
<g id="a_edge2_Node000001_Node000003"><a xlink:title=" ">
<path fill="none" stroke="#63b8ff" d="M282.04,-142.87C270.18,-133.94 251.25,-119.69 235.56,-107.88"/>
<polygon fill="#63b8ff" stroke="#63b8ff" points="237.34,-104.83 227.25,-101.62 233.13,-110.43 237.34,-104.83"/>
</a>
</g>
</g>
<!-- Node6 -->
<g id="Node000006" class="node">
<title>Node6</title>
<g id="a_Node000006"><a xlink:href="arraytypes_8hpp.html" target="_top" xlink:title=" ">
<polygon fill="white" stroke="#666666" points="434.5,-101.5 324.5,-101.5 324.5,-71.5 434.5,-71.5 434.5,-101.5"/>
<text text-anchor="start" x="332.5" y="-89.5" font-family="Helvetica,sans-Serif" font-size="10.00">packages/types/inc</text>
<text text-anchor="middle" x="379.5" y="-78.5" font-family="Helvetica,sans-Serif" font-size="10.00">/arraytypes.hpp</text>
</a>
</g>
</g>
<!-- Node1&#45;&gt;Node6 -->
<g id="edge5_Node000001_Node000006" class="edge">
<title>Node1&#45;&gt;Node6</title>
<g id="a_edge5_Node000001_Node000006"><a xlink:title=" ">
<path fill="none" stroke="#63b8ff" d="M305.1,-142.87C317.09,-133.94 336.25,-119.69 352.12,-107.88"/>
<polygon fill="#63b8ff" stroke="#63b8ff" points="354.6,-110.39 360.53,-101.62 350.42,-104.78 354.6,-110.39"/>
</a>
</g>
</g>
<!-- Node11 -->
<g id="Node000011" class="node">
<title>Node11</title>
<g id="a_Node000011"><a xlink:title=" ">
<polygon fill="#e0e0e0" stroke="#999999" points="574.5,-107 452.5,-107 452.5,-66 574.5,-66 574.5,-107"/>
<text text-anchor="start" x="460.5" y="-95" font-family="Helvetica,sans-Serif" font-size="10.00">packages/overloads</text>
<text text-anchor="start" x="460.5" y="-84" font-family="Helvetica,sans-Serif" font-size="10.00">/impl/vectoroperators</text>
<text text-anchor="middle" x="513.5" y="-73" font-family="Helvetica,sans-Serif" font-size="10.00">_impl.hpp</text>
</a>
</g>
</g>
<!-- Node1&#45;&gt;Node11 -->
<g id="edge10_Node000001_Node000011" class="edge">
<title>Node1&#45;&gt;Node11</title>
<g id="a_edge10_Node000001_Node000011"><a xlink:title=" ">
<path fill="none" stroke="#63b8ff" d="M323.17,-142.87C353.62,-134.01 402.12,-119.9 442.54,-108.14"/>
<polygon fill="#63b8ff" stroke="#63b8ff" points="443.73,-111.44 452.36,-105.29 441.78,-104.72 443.73,-111.44"/>
</a>
</g>
</g>
<!-- Node4 -->
<g id="Node000004" class="node">
<title>Node4</title>
<g id="a_Node000004"><a xlink:title=" ">
<polygon fill="#e0e0e0" stroke="#999999" points="142,-24.5 95,-24.5 95,-5.5 142,-5.5 142,-24.5"/>
<text text-anchor="middle" x="118.5" y="-12.5" font-family="Helvetica,sans-Serif" font-size="10.00">vector</text>
</a>
</g>
</g>
<!-- Node3&#45;&gt;Node4 -->
<g id="edge3_Node000003_Node000004" class="edge">
<title>Node3&#45;&gt;Node4</title>
<g id="a_edge3_Node000003_Node000004"><a xlink:title=" ">
<path fill="none" stroke="#63b8ff" d="M190.29,-71.44C174.95,-59.59 153.07,-42.7 137.51,-30.68"/>
<polygon fill="#63b8ff" stroke="#63b8ff" points="139.65,-27.91 129.59,-24.57 135.37,-33.45 139.65,-27.91"/>
</a>
</g>
</g>
<!-- Node5 -->
<g id="Node000005" class="node">
<title>Node5</title>
<g id="a_Node000005"><a xlink:title=" ">
<polygon fill="#e0e0e0" stroke="#999999" points="213,-24.5 160,-24.5 160,-5.5 213,-5.5 213,-24.5"/>
<text text-anchor="middle" x="186.5" y="-12.5" font-family="Helvetica,sans-Serif" font-size="10.00">stdint.h</text>
</a>
</g>
</g>
<!-- Node3&#45;&gt;Node5 -->
<g id="edge4_Node000003_Node000005" class="edge">
<title>Node3&#45;&gt;Node5</title>
<g id="a_edge4_Node000003_Node000005"><a xlink:title=" ">
<path fill="none" stroke="#63b8ff" d="M204.05,-71.44C200.66,-60.75 195.98,-45.95 192.3,-34.33"/>
<polygon fill="#63b8ff" stroke="#63b8ff" points="195.63,-33.24 189.28,-24.77 188.96,-35.36 195.63,-33.24"/>
</a>
</g>
</g>
<!-- Node7 -->
<g id="Node000007" class="node">
<title>Node7</title>
<g id="a_Node000007"><a target="_parent" xlink:href="../../../cieutils/docs/html/StaticArray_8hpp.html" xlink:title=" ">
<polygon fill="white" stroke="#666666" points="362,-30 231,-30 231,0 362,0 362,-30"/>
<text text-anchor="start" x="239" y="-18" font-family="Helvetica,sans-Serif" font-size="10.00">packages/stl_extension</text>
<text text-anchor="middle" x="296.5" y="-7" font-family="Helvetica,sans-Serif" font-size="10.00">/inc/StaticArray.hpp</text>
</a>
</g>
</g>
<!-- Node6&#45;&gt;Node7 -->
<g id="edge6_Node000006_Node000007" class="edge">
<title>Node6&#45;&gt;Node7</title>
<g id="a_edge6_Node000006_Node000007"><a xlink:title=" ">
<path fill="none" stroke="#63b8ff" d="M362.7,-71.44C350.78,-61.45 334.57,-47.88 321.18,-36.67"/>
<polygon fill="#63b8ff" stroke="#63b8ff" points="323.19,-33.78 313.27,-30.04 318.69,-39.15 323.19,-33.78"/>
</a>
</g>
</g>
<!-- Node8 -->
<g id="Node000008" class="node">
<title>Node8</title>
<g id="a_Node000008"><a xlink:title=" ">
<polygon fill="#e0e0e0" stroke="#999999" points="422.5,-24.5 380.5,-24.5 380.5,-5.5 422.5,-5.5 422.5,-24.5"/>
<text text-anchor="middle" x="401.5" y="-12.5" font-family="Helvetica,sans-Serif" font-size="10.00">array</text>
</a>
</g>
</g>
<!-- Node6&#45;&gt;Node8 -->
<g id="edge7_Node000006_Node000008" class="edge">
<title>Node6&#45;&gt;Node8</title>
<g id="a_edge7_Node000006_Node000008"><a xlink:title=" ">
<path fill="none" stroke="#63b8ff" d="M383.95,-71.44C387.34,-60.75 392.02,-45.95 395.7,-34.33"/>
<polygon fill="#63b8ff" stroke="#63b8ff" points="399.04,-35.36 398.72,-24.77 392.37,-33.24 399.04,-35.36"/>
</a>
</g>
</g>
<!-- Node9 -->
<g id="Node000009" class="node">
<title>Node9</title>
<g id="a_Node000009"><a xlink:title=" ">
<polygon fill="#e0e0e0" stroke="#999999" points="494,-24.5 441,-24.5 441,-5.5 494,-5.5 494,-24.5"/>
<text text-anchor="middle" x="467.5" y="-12.5" font-family="Helvetica,sans-Serif" font-size="10.00">cstddef</text>
</a>
</g>
</g>
<!-- Node6&#45;&gt;Node9 -->
<g id="edge8_Node000006_Node000009" class="edge">
<title>Node6&#45;&gt;Node9</title>
<g id="a_edge8_Node000006_Node000009"><a xlink:title=" ">
<path fill="none" stroke="#63b8ff" d="M397.31,-71.44C412.09,-59.76 433.06,-43.2 448.23,-31.22"/>
<polygon fill="#63b8ff" stroke="#63b8ff" points="450.72,-33.71 456.4,-24.77 446.38,-28.22 450.72,-33.71"/>
</a>
</g>
</g>
<!-- Node10 -->
<g id="Node000010" class="node">
<title>Node10</title>
<g id="a_Node000010"><a xlink:title=" ">
<polygon fill="#e0e0e0" stroke="#999999" points="562.5,-24.5 512.5,-24.5 512.5,-5.5 562.5,-5.5 562.5,-24.5"/>
<text text-anchor="middle" x="537.5" y="-12.5" font-family="Helvetica,sans-Serif" font-size="10.00">cstdint</text>
</a>
</g>
</g>
<!-- Node6&#45;&gt;Node10 -->
<g id="edge9_Node000006_Node000010" class="edge">
<title>Node6&#45;&gt;Node10</title>
<g id="a_edge9_Node000006_Node000010"><a xlink:title=" ">
<path fill="none" stroke="#63b8ff" d="M411.47,-71.44C439.9,-58.93 481.11,-40.81 508.57,-28.72"/>
<polygon fill="#63b8ff" stroke="#63b8ff" points="510.28,-31.8 518.02,-24.57 507.46,-25.39 510.28,-31.8"/>
</a>
</g>
</g>
</g>
</svg>
